<svg width="190" height="160" viewBox="0 0 190 160" fill="none" xmlns="http://www.w3.org/2000/svg">
<g clip-path="url(#clip0_235_593)">
<path d="M101.62 22.4735C107.923 17.8376 116.797 16.0605 123.741 19.6771C115.924 23.0562 109.56 29.0792 105.774 36.6805C104.324 39.6173 103.02 43.0339 100.029 44.3912C98.1683 45.2358 95.9721 45.0727 94.0454 44.3907C92.1185 43.7087 90.4045 42.5502 88.7144 41.4039L88.2075 41.3432C91.2153 34.1387 95.3171 27.1093 101.62 22.4735Z" fill="#F0F0F0"/>
<path d="M123.685 19.831C117.202 20.0333 110.947 22.2642 105.81 26.2069C104.689 27.0361 103.706 28.0361 102.898 29.17C102.146 30.2999 101.713 31.6096 101.641 32.9629C101.549 34.2235 101.602 35.5234 101.204 36.7398C100.991 37.3594 100.649 37.9272 100.2 38.4059C99.7511 38.8846 99.2057 39.2634 98.5994 39.5175C97.1054 40.1898 95.4578 40.2876 93.8433 40.3274C92.0506 40.3716 90.188 40.3893 88.5577 41.2296C88.3601 41.3315 88.213 41.0204 88.4102 40.9187C91.2466 39.4566 94.5612 40.4105 97.5424 39.5403C98.9334 39.1343 100.21 38.3084 100.769 36.9266C101.257 35.7183 101.204 34.3777 101.286 33.1005C101.336 31.7793 101.71 30.4904 102.376 29.3463C103.123 28.1751 104.066 27.1391 105.163 26.2827C107.601 24.3154 110.335 22.742 113.264 21.6202C116.6 20.3215 120.135 19.6005 123.715 19.4884C123.937 19.4816 123.905 19.8242 123.685 19.831Z" fill="white"/>
<path d="M107.39 24.8404C106.842 23.8925 106.651 22.7817 106.85 21.7064C107.05 20.6311 107.626 19.6614 108.477 18.9703C108.65 18.8311 108.875 19.0917 108.703 19.2312C107.909 19.8732 107.372 20.7766 107.188 21.7783C107.005 22.78 107.187 23.8139 107.702 24.6936C107.814 24.8849 107.501 25.0306 107.39 24.8404Z" fill="white"/>
<path d="M101.604 32.3177C103.766 32.9194 106.076 32.6876 108.074 31.6686C108.272 31.5674 108.42 31.8785 108.222 31.9795C106.141 33.0361 103.736 33.2725 101.487 32.6414C101.273 32.5811 101.39 32.2577 101.604 32.3177Z" fill="white"/>
<path d="M116.584 20.7771C116.719 21.1879 116.954 21.5588 117.269 21.8565C117.583 22.1543 117.967 22.3696 118.386 22.4831C118.601 22.5407 118.483 22.864 118.27 22.8068C117.808 22.6792 117.384 22.4409 117.035 22.1127C116.687 21.7845 116.425 21.3763 116.272 20.9239C116.254 20.8825 116.252 20.8358 116.267 20.7933C116.283 20.7508 116.314 20.7156 116.354 20.6951C116.395 20.6758 116.443 20.6737 116.486 20.689C116.529 20.7044 116.564 20.7361 116.584 20.7771Z" fill="white"/>
<path d="M129.246 45.5185C129.111 45.4864 128.976 45.4542 128.838 45.424C127.018 45.0012 125.166 44.7264 123.301 44.6023C123.157 44.5904 123.011 44.5805 122.866 44.5728C118.37 44.3214 113.865 44.9033 109.581 46.2892C107.877 46.8422 106.218 47.5234 104.618 48.3271C102.408 49.4371 100.101 50.8156 97.7218 51.1249C97.4739 51.1599 97.2242 51.1796 96.9739 51.1839L88.1724 41.9635C88.1629 41.9326 88.1513 41.9035 88.1418 41.8724L87.7734 41.5203C87.8531 41.4731 87.9367 41.4259 88.0163 41.3787C88.0623 41.3511 88.1104 41.3256 88.1565 41.2981C88.1878 41.2803 88.2192 41.2627 88.2465 41.2449C88.2569 41.239 88.2674 41.2332 88.2757 41.2292C88.303 41.2114 88.3302 41.1978 88.3553 41.182C88.8219 40.9167 89.2911 40.6542 89.7631 40.3945C89.7652 40.3925 89.7652 40.3925 89.7692 40.3925C93.3701 38.4228 97.1678 36.735 101.102 35.6748C101.22 35.6429 101.341 35.609 101.463 35.5813C103.239 35.1132 105.051 34.7904 106.88 34.6162C107.881 34.5239 108.887 34.4823 109.893 34.4913C112.492 34.5197 115.071 34.9549 117.534 35.781C122.445 37.4286 126.771 40.6215 129.074 45.1693C129.133 45.2857 129.19 45.4001 129.246 45.5185Z" fill="#F0F0F0"/>
<path d="M129.109 45.609C123.81 41.8843 117.467 39.9165 110.981 39.9852C109.585 39.9753 108.195 40.1846 106.864 40.6054C105.581 41.0571 104.442 41.8427 103.567 42.8806C102.732 43.832 101.988 44.9015 100.934 45.6341C100.389 46.0012 99.7729 46.2494 99.125 46.3625C98.4771 46.4757 97.8125 46.4512 97.1747 46.2907C95.5753 45.9319 94.2007 45.0223 92.8875 44.0863C91.4294 43.0471 89.9315 41.9446 88.1216 41.6384C87.9024 41.6013 87.973 41.2647 88.192 41.3017C91.3409 41.8345 93.4105 44.5831 96.317 45.6753C97.6732 46.1849 99.1919 46.2907 100.474 45.5222C101.594 44.8502 102.362 43.748 103.2 42.7774C104.039 41.7524 105.117 40.9476 106.341 40.4332C107.646 39.9462 109.025 39.6839 110.419 39.6576C113.555 39.5485 116.689 39.931 119.707 40.7912C123.156 41.754 126.414 43.2971 129.34 45.3537C129.521 45.4811 129.289 45.7356 129.109 45.609Z" fill="white"/>
<path d="M113.068 39.8406C113.205 38.7556 113.724 37.7542 114.533 37.015C115.342 36.2759 116.389 35.8473 117.487 35.8057C117.709 35.7981 117.731 36.1413 117.509 36.149C116.487 36.1858 115.512 36.5852 114.759 37.275C114.007 37.9648 113.527 38.8996 113.407 39.9107C113.38 40.1304 113.042 40.0591 113.068 39.8406Z" fill="white"/>
<path d="M103.927 42.3426C105.29 44.1191 107.275 45.319 109.486 45.7031C109.705 45.741 109.635 46.0776 109.416 46.0398C107.115 45.6358 105.052 44.3829 103.638 42.5312C103.504 42.3546 103.793 42.167 103.927 42.3426Z" fill="white"/>
<path d="M122.867 42.1079C122.727 42.5168 122.69 42.954 122.761 43.3803C122.833 43.8067 123.009 44.2087 123.275 44.5504C123.412 44.7252 123.122 44.9126 122.986 44.739C122.694 44.3601 122.5 43.9158 122.42 43.445C122.341 42.9741 122.378 42.491 122.529 42.0379C122.54 41.994 122.567 41.9558 122.605 41.931C122.643 41.9063 122.689 41.8968 122.733 41.9046C122.778 41.9141 122.817 41.9407 122.842 41.9788C122.867 42.0169 122.876 42.0633 122.867 42.1079Z" fill="white"/>
<path d="M99.9568 29.3702H99.2747V10.767C99.2747 9.35307 98.995 7.95297 98.4515 6.64666C97.908 5.34034 97.1115 4.1534 96.1072 3.15359C95.103 2.15378 93.9109 1.36069 92.5988 0.819594C91.2867 0.2785 89.8805 7.62263e-07 88.4603 0H48.8735C47.4533 -3.04893e-06 46.0471 0.27849 44.735 0.819581C43.4229 1.36067 42.2308 2.15376 41.2266 3.15357C40.2224 4.15337 39.4258 5.34032 38.8823 6.64663C38.3388 7.95295 38.0591 9.35304 38.0591 10.767V112.825C38.0591 115.681 39.1985 118.42 41.2265 120.439C43.2546 122.458 46.0053 123.592 48.8735 123.593H88.4603C91.3284 123.593 94.0791 122.458 96.1072 120.439C98.1353 118.42 99.2747 115.681 99.2747 112.826V42.6123H99.9568V29.3702Z" fill="#3F3D56"/>
<path d="M88.897 2.80122H83.7296C83.9672 3.38127 84.0579 4.0106 83.9937 4.63377C83.9295 5.25695 83.7124 5.85484 83.3614 6.37478C83.0105 6.89472 82.5364 7.32075 81.9812 7.61534C81.4259 7.90992 80.8063 8.06403 80.1771 8.06408H57.4984C56.8691 8.06403 56.2496 7.90993 55.6943 7.61534C55.139 7.32075 54.665 6.89473 54.3141 6.37479C53.9631 5.85485 53.7459 5.25695 53.6817 4.63377C53.6175 4.0106 53.7083 3.38126 53.9459 2.80121H49.1195C46.9776 2.80121 44.9234 3.64835 43.4089 5.15627C41.8943 6.66419 41.0435 8.70936 41.0435 10.8419V112.751C41.0435 113.807 41.2524 114.852 41.6582 115.828C42.0641 116.803 42.6589 117.69 43.4089 118.436C44.1588 119.183 45.0491 119.775 46.0289 120.179C47.0088 120.583 48.059 120.791 49.1195 120.791H88.897C89.9575 120.791 91.0077 120.583 91.9876 120.179C92.9674 119.775 93.8577 119.183 94.6076 118.436C95.3576 117.69 95.9524 116.803 96.3583 115.828C96.7642 114.852 96.973 113.807 96.973 112.751V10.8419C96.973 8.70936 96.1222 6.66418 94.6076 5.15627C93.0931 3.64835 91.0389 2.80122 88.897 2.80122Z" fill="white"/>
<path d="M69.7725 88.0544C66.8433 88.0571 63.9424 87.4847 61.2357 86.3699C58.529 85.2551 56.0696 83.6199 53.9984 81.5577C51.9272 79.4956 50.2847 77.047 49.165 74.3521C48.0454 71.6573 47.4704 68.769 47.4732 65.8527C47.469 61.7576 48.6041 57.7414 50.7527 54.2494C52.9013 50.7575 55.9793 47.9263 59.6455 46.0697C62.303 44.7236 65.2042 43.9207 68.1782 43.7081C71.1522 43.4956 74.1389 43.8779 76.9622 44.8323C81.9624 46.5288 86.1954 49.9372 88.9073 54.4506C91.6192 58.964 92.634 64.2892 91.7709 69.4779C90.9078 74.6666 88.2228 79.3818 84.1942 82.7837C80.1657 86.1856 75.055 88.0534 69.7725 88.0544ZM69.7725 44.5217C66.3896 44.5118 63.0534 45.3085 60.0431 46.8452C57.4117 48.1799 55.0859 50.0418 53.2117 52.314C51.3375 54.5862 49.9553 57.2196 49.1519 60.049C48.3485 62.8783 48.1413 65.8425 48.5432 68.7553C48.9451 71.6682 49.9475 74.4669 51.4875 76.9757C53.0275 79.4845 55.0717 81.6493 57.492 83.3341C59.9122 85.019 62.6561 86.1875 65.5515 86.7663C68.4469 87.3451 71.4312 87.3217 74.3171 86.6976C77.2029 86.0735 79.9281 84.8622 82.3214 83.1396C83.4785 82.3084 84.5485 81.3632 85.5151 80.3182C88.3424 77.2727 90.2162 73.4724 90.9073 69.3827C91.5983 65.293 91.0765 61.0915 89.4058 57.2925C87.7351 53.4936 84.988 50.2621 81.5008 47.9938C78.0137 45.7256 73.9379 44.519 69.7725 44.5217Z" fill="#F0F0F0"/>
<path d="M21.4528 46.1494C22.0649 46.2258 22.6527 46.4349 23.1749 46.762C23.697 47.089 24.1408 47.5261 24.4749 48.0424C24.809 48.5587 25.0254 49.1416 25.1088 49.7502C25.1921 50.3587 25.1405 50.9781 24.9574 51.5646L32.3664 57.709L29.7142 63.1024L19.3737 54.279C18.4044 53.9075 17.6057 53.1949 17.1288 52.2763C16.652 51.3577 16.5302 50.2968 16.7865 49.2947C17.0428 48.2927 17.6593 47.419 18.5194 46.8393C19.3794 46.2596 20.4231 46.0141 21.4528 46.1494Z" fill="#FFB6B6"/>
<path d="M90.6494 71.7731C90.5008 70.1828 89.8865 67.324 89.3652 66.2669C87.7629 62.0913 77.4095 58.6595 76.0193 58.2171L75.6666 54.3136L61.2813 52.7726L59.4564 57.7643L54.297 59.6914C53.9468 59.8214 53.6297 60.027 53.3687 60.2935C53.1076 60.5599 52.909 60.8806 52.7871 61.2324L48.1582 62.5645L43.5905 63.8792L27.7215 52.7465L26.9723 53.234L21.9645 56.4874L21.1919 56.9894L41.7278 75.4357L49.3562 73.6537L55.0928 72.31L55.5824 74.2893L54.3146 81.2429C57.988 84.9017 62.8506 87.1377 68.0302 87.5498C73.2097 87.962 78.3673 86.5234 82.5779 83.4921L85.8367 80.6132C88.108 78.168 89.7845 75.2358 90.7368 72.043L90.6494 71.7731Z" fill="#E4E4E4"/>
<path d="M72.9935 49.5802C78.4239 47.7901 81.3685 41.9561 79.5706 36.5495C77.7726 31.1429 71.9129 28.2111 66.4825 30.0012C61.0521 31.7912 58.1074 37.6253 59.9054 43.0319C61.7033 48.4385 67.5631 51.3703 72.9935 49.5802Z" fill="#FFB6B6"/>
<path d="M61.5569 28.0347C62.5638 26.603 64.0749 25.6009 65.7898 25.2275C67.4855 24.8802 69.2503 25.2025 70.7117 26.1263C72.301 25.4889 74.0145 25.066 75.6979 25.281C77.3814 25.496 79.0314 26.4322 79.8104 27.9746C79.9742 28.3742 80.173 28.7586 80.4045 29.1235C81.0908 30.0351 82.3662 30.1534 83.4926 30.1971C82.9231 30.5278 82.3536 30.8585 81.7839 31.1891C82.3515 31.4525 82.9192 31.7158 83.4869 31.9792C82.7143 32.2728 81.9418 32.5664 81.1693 32.8601C82.9673 34.4337 83.4023 37.2343 82.7213 39.5823C82.0768 41.8053 80.599 43.6767 78.9487 45.2788C78.6267 44.0834 78.9809 42.7873 79.2168 41.5497C79.4658 40.2419 79.5057 38.7128 78.5861 37.7895C77.9657 37.1667 77.0556 36.9785 76.1975 36.8274C71.8691 36.0653 67.5007 35.5488 63.1134 35.2806C62.5262 35.1999 61.9281 35.2607 61.3694 35.4579C60.3017 35.9303 59.8727 37.2276 59.5633 38.3778C59.4151 36.3588 59.5335 34.3292 59.9155 32.3408C60.2082 30.819 60.6692 29.2959 61.5569 28.0347Z" fill="#2F2E41"/>
<path d="M75.0193 98.5145H62.7766C62.3514 98.5145 61.9436 98.3463 61.6429 98.047C61.3422 97.7476 61.1733 97.3416 61.1733 96.9183C61.1733 96.4949 61.3422 96.0889 61.6429 95.7896C61.9436 95.4902 62.3514 95.3221 62.7766 95.3221H75.0193C75.4445 95.3221 75.8523 95.4902 76.153 95.7896C76.4536 96.0889 76.6226 96.4949 76.6226 96.9183C76.6226 97.3416 76.4536 97.7476 76.153 98.047C75.8523 98.3463 75.4445 98.5145 75.0193 98.5145Z" fill="#1C2126"/>
<path d="M34.8462 13.0961H1.17136C0.861044 13.0957 0.563601 12.9726 0.344349 12.7539C0.125097 12.5353 0.00195313 12.239 0.00195312 11.93C0.00195313 11.6211 0.125097 11.3247 0.344349 11.1061C0.563601 10.8875 0.861044 10.7644 1.17136 10.7639H34.8462C35.1568 10.7639 35.4547 10.8868 35.6744 11.1055C35.894 11.3242 36.0174 11.6208 36.0174 11.93C36.0174 12.2393 35.894 12.5359 35.6744 12.7546C35.4547 12.9733 35.1568 13.0961 34.8462 13.0961Z" fill="#1C2126"/>
<path d="M54.2888 20.544H1.17117C0.860559 20.544 0.562666 20.4212 0.343028 20.2025C0.12339 19.9838 0 19.6872 0 19.378C0 19.0687 0.12339 18.7721 0.343028 18.5534C0.562666 18.3348 0.860559 18.2119 1.17117 18.2119H54.2888C54.5994 18.2119 54.8973 18.3348 55.1169 18.5534C55.3365 18.7721 55.4599 19.0687 55.4599 19.378C55.4599 19.6872 55.3365 19.9838 55.1169 20.2025C54.8973 20.4212 54.5994 20.544 54.2888 20.544Z" fill="#1C2126"/>
<path d="M44.0812 27.5607H1.17117C0.86056 27.5607 0.562665 27.4378 0.343028 27.2191C0.12339 27.0005 0 26.7039 0 26.3946C0 26.0854 0.12339 25.7888 0.343028 25.5701C0.562665 25.3514 0.86056 25.2286 1.17117 25.2286H44.0812C44.3919 25.2286 44.6897 25.3514 44.9094 25.5701C45.129 25.7888 45.2524 26.0854 45.2524 26.3946C45.2524 26.7039 45.129 27.0005 44.9094 27.2191C44.6897 27.4378 44.3919 27.5607 44.0812 27.5607Z" fill="#CACACA"/>
<path d="M25.3679 34.5516H1.17117C0.86056 34.5516 0.562665 34.4287 0.343028 34.21C0.12339 33.9914 0 33.6948 0 33.3855C0 33.0763 0.12339 32.7797 0.343028 32.561C0.562665 32.3423 0.86056 32.2195 1.17117 32.2195H25.3679C25.6785 32.2195 25.9764 32.3423 26.196 32.561C26.4156 32.7797 26.539 33.0763 26.539 33.3855C26.539 33.6948 26.4156 33.9914 26.196 34.21C25.9764 34.4287 25.6785 34.5516 25.3679 34.5516Z" fill="#CACACA"/>
<path d="M38.7348 41.5419H1.17128C0.860982 41.5414 0.56357 41.4183 0.344331 41.1997C0.125093 40.9811 0.00195313 40.6848 0.00195312 40.3758C0.00195313 40.0669 0.125093 39.7706 0.344331 39.5519C0.56357 39.3333 0.860982 39.2103 1.17128 39.2098H38.7348C39.0451 39.2103 39.3425 39.3333 39.5617 39.5519C39.7809 39.7706 39.9041 40.0669 39.9041 40.3758C39.9041 40.6848 39.7809 40.9811 39.5617 41.1997C39.3425 41.4183 39.0451 41.5414 38.7348 41.5419Z" fill="#CACACA"/>
<path d="M144.599 155.622L141.581 155.622L140.145 144.031L144.6 144.032L144.599 155.622Z" fill="#9F616A"/>
<path d="M145.786 159.781L134.263 159.781V159.636C134.263 158.451 134.736 157.316 135.577 156.478C136.418 155.641 137.559 155.17 138.748 155.17H138.749L140.853 153.58L144.781 155.171L145.786 155.171L145.786 159.781Z" fill="#2F2E41"/>
<path d="M142.84 101.149L141.509 84.9895L140.463 78.9244L146.318 77.637L148.261 85.9405L146.568 101.597C146.91 102.014 147.118 102.522 147.167 103.058C147.216 103.593 147.103 104.131 146.843 104.602C146.582 105.073 146.186 105.456 145.706 105.701C145.225 105.946 144.682 106.043 144.146 105.978C143.609 105.914 143.105 105.691 142.697 105.339C142.289 104.987 141.996 104.521 141.855 104.002C141.715 103.483 141.734 102.934 141.909 102.425C142.085 101.917 142.409 101.472 142.84 101.149Z" fill="#9F616A"/>
<path d="M128.567 155.622L125.549 155.622L124.113 144.031L128.567 144.032L128.567 155.622Z" fill="#9F616A"/>
<path d="M123.737 104.812L122.399 107.116C122.399 107.116 120.929 107.516 121.409 112.287C121.889 117.059 121.91 145.329 124.236 148.807L124.657 151.794L129.049 152.212L129.159 149.562L134.396 112.738C134.396 112.738 137.48 148.887 140.032 149.772L140.953 152.783L144.978 152.785L144.741 149.236L145 104.438L123.737 104.812Z" fill="#2F2E41"/>
<path d="M122.265 106.94L122.173 106.917C124.935 96.6325 124.138 83.3154 122.188 69.0153L122.188 68.9561L129.237 62.5275H135.359L141.427 66.4266C145.35 68.3794 146.242 72.5151 146.25 72.5567L146.256 72.5862L143.853 80.9398L145.663 105.098L145.665 105.126L145.655 105.153C145.069 106.632 143.499 106.421 141.68 106.177C139.865 105.934 133.176 108.162 131.124 108.162C127.116 108.162 122.552 107.014 122.265 106.94Z" fill="#E4E4E4"/>
<path d="M140.156 69.6826L142.786 68.5436L146.25 72.7729L149.059 86.3254L139.439 84.8743L140.156 69.6826Z" fill="#E4E4E4"/>
<path d="M99.7089 94.6735L111.73 83.7364L115.908 79.2014L120.514 83.0238L115.107 89.6351L101.634 97.8835C101.512 98.4073 101.236 98.8828 100.84 99.2489C100.445 99.6151 99.9484 99.8551 99.4149 99.9383C98.8813 100.021 98.335 99.9438 97.8461 99.7155C97.3571 99.4872 96.948 99.1185 96.6711 98.6569C96.3942 98.1952 96.2623 97.6617 96.2923 97.1249C96.3222 96.588 96.5127 96.0724 96.8393 95.6442C97.1659 95.2159 97.6136 94.8947 98.1249 94.7217C98.6363 94.5487 99.1879 94.5319 99.7089 94.6735Z" fill="#9F616A"/>
<path d="M111.468 83.8555L114.798 79.5506C114.825 79.4889 117.588 73.3428 119.982 70.6725C122.438 67.9331 124.372 69.334 124.392 69.3491L124.44 69.3852L124.573 79.5012L115.354 90.4691L111.468 83.8555Z" fill="#E4E4E4"/>
<path d="M137.23 56.4723C137.726 53.4266 135.649 50.5569 132.59 50.0627C129.531 49.5684 126.648 51.6368 126.152 54.6825C125.655 57.7282 127.733 60.5979 130.792 61.0922C133.851 61.5864 136.733 59.5181 137.23 56.4723Z" fill="#9F616A"/>
<path d="M126.561 54.7481C126.561 54.7481 126.516 52.784 126.266 51.9149C126.017 51.0459 125.518 50.3009 125.768 50.3009C126.017 50.3009 126.142 49.6802 126.142 49.6802C126.142 49.6802 126.391 49.556 126.516 49.6802C126.641 49.8043 126.765 48.8111 126.765 48.8111C126.765 48.8111 126.89 48.4386 127.015 48.6869C127.139 48.9353 127.139 48.8111 127.264 48.4386C127.389 48.0662 128.012 47.8179 128.012 47.8179C128.012 47.8179 130.382 47.942 130.756 47.4454C131.13 46.9488 135.37 47.3212 136.242 47.942C137.115 48.5628 140.981 50.7975 140.358 52.6598C139.734 54.5221 137.939 58.8101 137.489 59.24C136.778 59.9198 136.286 60.1649 132.921 60.8316C132.262 60.9621 128.9 58.8216 128.9 58.4491C128.9 58.0767 129.305 56.8955 128.654 56.7334C127.669 56.4882 127.558 57.7278 127.309 57.3553C127.06 56.9829 126.561 54.7481 126.561 54.7481Z" fill="#2F2E41"/>
<path d="M129.754 159.781L118.231 159.781V159.636C118.231 158.451 118.704 157.316 119.545 156.478C120.386 155.641 121.527 155.17 122.716 155.17H122.716L124.821 153.58L128.748 155.171L129.754 155.171L129.754 159.781Z" fill="#2F2E41"/>
<path d="M189.653 160H0.970122C0.878072 160 0.789797 159.964 0.724707 159.899C0.659618 159.834 0.623047 159.746 0.623047 159.654C0.623047 159.563 0.659618 159.475 0.724707 159.41C0.789797 159.345 0.878072 159.309 0.970122 159.309H189.653C189.745 159.309 189.833 159.345 189.898 159.41C189.963 159.475 190 159.563 190 159.654C190 159.746 189.963 159.834 189.898 159.899C189.833 159.964 189.745 160 189.653 160Z" fill="#CACACA"/>
</g>
<defs>
<clipPath id="clip0_235_593">
<rect width="190" height="160" fill="white"/>
</clipPath>
</defs>
</svg>
