<svg width="190" height="51" viewBox="0 0 190 51" fill="none" xmlns="http://www.w3.org/2000/svg">
<g clip-path="url(#clip0_601_9)">
<path fill-rule="evenodd" clip-rule="evenodd" d="M42.0958 5.90403V4.68803C41.3278 4.7307 40.4318 4.77336 39.4078 4.81603C38.4265 4.85869 37.3171 4.88003 36.0798 4.88003H32.6238C31.5998 4.83736 30.5971 4.81603 29.6158 4.81603C28.6771 4.77336 27.6745 4.7307 26.6078 4.68803V5.90403C28.3145 5.9467 29.5731 6.35203 30.3838 7.12003C31.2371 7.88803 31.5145 8.97603 31.2158 10.384C30.9598 11.7493 30.0211 13.392 28.3998 15.312L24.6238 19.856C22.8745 21.8613 21.2531 23.3547 19.7598 24.336C18.4088 25.2499 16.8728 25.7567 15.1518 25.8566V11.472C15.1518 9.89336 15.2585 8.74136 15.4718 8.01603C15.6851 7.24803 16.1331 6.73603 16.8158 6.48003C17.5411 6.18136 18.5865 6.01069 19.9518 5.96803V4.68803C18.7998 4.7307 17.3491 4.77336 15.5998 4.81603C13.8505 4.85869 12.0798 4.88003 10.2878 4.88003C8.23978 4.88003 6.29845 4.85869 4.46378 4.81603C2.67178 4.77336 1.24245 4.7307 0.175781 4.68803V5.96803C1.49845 6.01069 2.50111 6.18136 3.18378 6.48003C3.90911 6.73603 4.37845 7.24803 4.59178 8.01603C4.84778 8.74136 4.97578 9.89336 4.97578 11.472V43.216C4.97578 44.752 4.84778 45.904 4.59178 46.672C4.37845 47.44 3.93045 47.952 3.24778 48.208C2.56511 48.464 1.54111 48.6347 0.175781 48.72V50C1.24245 49.9147 2.67178 49.872 4.46378 49.872C6.29845 49.8293 8.23978 49.808 10.2878 49.808C12.0798 49.808 13.8505 49.8293 15.5998 49.872C17.3491 49.872 18.7998 49.9147 19.9518 50V48.72C18.5865 48.6347 17.5625 48.464 16.8798 48.208C16.1971 47.952 15.7278 47.44 15.4718 46.672C15.2585 45.904 15.1518 44.752 15.1518 43.216V27.2457C15.7447 27.3054 16.2354 27.4235 16.6238 27.6C17.0931 27.7707 17.5625 28.112 18.0318 28.624C18.5011 29.0933 19.0345 29.8187 19.6318 30.8L28.9118 45.84C29.5945 46.864 29.7438 47.5893 29.3598 48.016C29.0185 48.4 27.9731 48.6347 26.2238 48.72V50C28.1865 49.9147 29.8078 49.872 31.0878 49.872C32.3678 49.8293 33.4558 49.808 34.3518 49.808C35.8451 49.808 37.5091 49.8293 39.3438 49.872C41.1785 49.872 42.8425 49.9147 44.3358 50V48.72C43.2265 48.2933 42.3305 47.7813 41.6478 47.184C40.9651 46.5867 40.3251 45.7973 39.7278 44.816L24.8191 21.576L32.8158 12.048C34.5225 10.0427 36.1438 8.59203 37.6798 7.69603C39.2585 6.80003 40.7305 6.20269 42.0958 5.90403ZM68.8648 17.744C66.5181 16.592 63.7875 16.016 60.6728 16.016C57.6435 16.016 54.9341 16.592 52.5448 17.744C50.1981 18.896 48.3421 20.752 46.9768 23.312C45.6541 25.872 44.9928 29.264 44.9928 33.488C44.9928 37.712 45.6541 41.104 46.9768 43.664C48.3421 46.1813 50.1981 48.016 52.5448 49.168C54.9341 50.32 57.6435 50.896 60.6728 50.896C63.7875 50.896 66.5181 50.32 68.8648 49.168C71.2115 48.016 73.0461 46.1813 74.3688 43.664C75.6915 41.104 76.3528 37.712 76.3528 33.488C76.3528 29.264 75.6915 25.872 74.3688 23.312C73.0461 20.752 71.2115 18.896 68.8648 17.744ZM56.3848 21.136C57.5368 18.576 58.9661 17.296 60.6728 17.296C62.4221 17.296 63.8515 18.576 64.9608 21.136C66.1128 23.6533 66.6888 27.7707 66.6888 33.488C66.6888 39.2053 66.1128 43.3227 64.9608 45.84C63.8515 48.3573 62.4221 49.616 60.6728 49.616C58.9661 49.616 57.5368 48.3573 56.3848 45.84C55.2328 43.3227 54.6568 39.2053 54.6568 33.488C54.6568 27.7707 55.2328 23.6533 56.3848 21.136ZM84.3803 49.36C85.6603 50.0853 87.2603 50.448 89.1803 50.448C91.271 50.448 93.0416 50 94.4923 49.104C95.943 48.1653 97.1803 46.8853 98.2043 45.264C98.2043 46.288 98.3963 47.184 98.7803 47.952C99.207 48.72 99.8896 49.3387 100.829 49.808C101.767 50.2347 103.026 50.448 104.605 50.448C106.055 50.448 107.357 50.256 108.509 49.872C109.703 49.4453 110.749 48.848 111.645 48.08L111.005 46.992C110.578 47.2907 110.173 47.5467 109.789 47.76C109.447 47.9733 109.085 48.08 108.701 48.08C108.189 48.08 107.826 47.888 107.613 47.504C107.399 47.0773 107.293 46.3307 107.293 45.264V27.856C107.293 25.68 107.143 23.888 106.845 22.48C106.546 21.0293 105.906 19.8133 104.925 18.832C103.858 17.7653 102.535 17.04 100.957 16.656C99.3776 16.2293 97.607 16.016 95.6443 16.016C93.6816 16.016 91.847 16.208 90.1403 16.592C88.4763 16.976 87.047 17.5093 85.8523 18.192C84.743 18.9173 83.8683 19.6853 83.2283 20.496C82.631 21.3067 82.3323 22.3307 82.3323 23.568C82.3323 24.9333 82.7163 26.1067 83.4843 27.088C84.295 28.0267 85.4683 28.496 87.0043 28.496C88.3696 28.496 89.543 28.0693 90.5243 27.216C91.5483 26.3627 92.0603 25.2107 92.0603 23.76C92.0603 22.6507 91.719 21.6693 91.0363 20.816C90.3963 19.92 89.479 19.2587 88.2843 18.832C88.839 18.2773 89.543 17.8933 90.3963 17.68C91.2496 17.424 92.103 17.296 92.9563 17.296C94.151 17.296 95.111 17.5307 95.8363 18C96.6043 18.4693 97.159 19.152 97.5003 20.048C97.8843 20.9013 98.0763 21.8827 98.0763 22.992V27.984C98.0763 28.9653 97.6496 29.776 96.7963 30.416C95.9856 31.0133 94.8976 31.5467 93.5323 32.016C92.2096 32.4427 90.8016 32.8907 89.3083 33.36C87.8576 33.8293 86.471 34.4267 85.1483 35.152C83.8256 35.8773 82.7376 36.816 81.8843 37.968C81.0736 39.12 80.6683 40.6133 80.6683 42.448C80.6683 43.8987 80.967 45.2427 81.5643 46.48C82.1616 47.6747 83.1003 48.6347 84.3803 49.36ZM96.0283 45.776C95.3456 46.16 94.5776 46.352 93.7243 46.352C92.5296 46.352 91.5696 45.9467 90.8443 45.136C90.119 44.3253 89.7563 43.088 89.7563 41.424C89.7563 40.1013 89.9696 38.9707 90.3963 38.032C90.823 37.0933 91.3776 36.304 92.0603 35.664C92.7856 35.024 93.5323 34.448 94.3003 33.936C95.0683 33.3813 95.7936 32.848 96.4763 32.336C97.159 31.824 97.6923 31.248 98.0763 30.608V43.728C97.4363 44.6667 96.7536 45.3493 96.0283 45.776ZM138.818 16.912C137.964 16.3147 136.855 16.016 135.49 16.016C134.124 16.016 132.887 16.2933 131.778 16.848C130.668 17.36 129.687 18.0853 128.833 19.024C127.98 19.9627 127.298 21.008 126.786 22.16V16.208C125.463 16.5067 124.012 16.7413 122.434 16.912C120.898 17.04 119.234 17.104 117.442 17.104C116.162 17.104 114.839 17.04 113.474 16.912V18.256C115.052 18.256 116.119 18.7253 116.674 19.664C117.271 20.56 117.57 21.968 117.57 23.888V44.048C117.57 45.84 117.25 47.056 116.61 47.696C116.012 48.336 114.967 48.656 113.474 48.656V50C114.37 49.9573 115.692 49.9147 117.442 49.872C119.191 49.7867 120.919 49.744 122.626 49.744C124.674 49.744 126.636 49.7867 128.514 49.872C130.391 49.9147 131.82 49.9573 132.802 50V48.656C130.796 48.656 129.282 48.2933 128.258 47.568C127.276 46.8427 126.786 45.456 126.786 43.408V26.448C126.786 25.5947 126.935 24.72 127.234 23.824C127.532 22.8853 127.938 22.032 128.45 21.264C128.962 20.4533 129.58 19.792 130.306 19.28C131.031 18.7253 131.799 18.384 132.61 18.256C133.207 18.0427 133.804 18.0213 134.402 18.192C133.591 18.7467 132.908 19.4293 132.354 20.24C131.842 21.008 131.586 21.9893 131.586 23.184C131.586 24.4213 131.991 25.424 132.802 26.192C133.655 26.9173 134.828 27.28 136.322 27.28C137.815 27.28 139.01 26.7893 139.906 25.808C140.844 24.784 141.314 23.4827 141.314 21.904C141.314 20.9227 141.1 19.984 140.674 19.088C140.29 18.192 139.671 17.4667 138.818 16.912ZM156.661 44.048V16.208C155.338 16.5067 153.887 16.7413 152.309 16.912C150.773 17.04 149.109 17.104 147.317 17.104C146.037 17.104 144.714 17.04 143.349 16.912V18.256C144.927 18.256 145.994 18.7253 146.549 19.664C147.146 20.56 147.445 21.968 147.445 23.888V44.048C147.445 45.84 147.125 47.056 146.485 47.696C145.887 48.336 144.842 48.656 143.349 48.656V50C144.202 49.9573 145.482 49.9147 147.189 49.872C148.895 49.7867 150.581 49.744 152.245 49.744C153.909 49.744 155.551 49.7867 157.173 49.872C158.794 49.9147 159.989 49.9573 160.757 50V48.656C159.263 48.656 158.197 48.336 157.557 47.696C156.959 47.056 156.661 45.84 156.661 44.048ZM180.88 16.72C179.557 16.2507 178 16.016 176.208 16.016C174.288 16.016 172.475 16.3573 170.768 17.04C169.104 17.68 167.76 18.6613 166.736 19.984C165.712 21.3067 165.2 22.928 165.2 24.848C165.2 26.512 165.584 28.0053 166.352 29.328C167.12 30.608 168.101 31.8027 169.296 32.912C170.533 33.9787 171.835 35.0667 173.2 36.176C175.077 37.6267 176.613 38.9707 177.808 40.208C179.045 41.4453 179.664 43.0027 179.664 44.88C179.664 45.9467 179.429 46.8213 178.96 47.504C178.533 48.1867 177.979 48.6773 177.296 48.976C176.613 49.2747 175.909 49.424 175.184 49.424C173.392 49.424 171.899 48.9333 170.704 47.952C169.552 46.928 168.635 45.5413 167.952 43.792C167.269 42 166.8 39.952 166.544 37.648H165.2C165.2 40.8907 165.179 43.4933 165.136 45.456C165.093 47.4187 165.029 49.0827 164.944 50.448H166.288C166.459 49.68 166.693 49.0827 166.992 48.656C167.333 48.2293 167.717 48.08 168.144 48.208C168.571 48.3787 169.019 48.592 169.488 48.848C170 49.0613 170.533 49.296 171.088 49.552C171.813 49.936 172.667 50.256 173.648 50.512C174.672 50.768 175.824 50.896 177.104 50.896C179.323 50.896 181.328 50.512 183.12 49.744C184.955 48.976 186.427 47.888 187.536 46.48C188.645 45.0293 189.2 43.344 189.2 41.424C189.2 39.7173 188.859 38.2453 188.176 37.008C187.493 35.7707 186.576 34.64 185.424 33.616C184.272 32.5493 182.992 31.4827 181.584 30.416C180.261 29.4347 178.981 28.5173 177.744 27.664C176.549 26.768 175.568 25.8507 174.8 24.912C174.032 23.9307 173.648 22.8 173.648 21.52C173.648 20.1973 174.075 19.1947 174.928 18.512C175.781 17.7867 176.827 17.424 178.064 17.424C179.856 17.424 181.307 17.9147 182.416 18.896C183.568 19.8773 184.443 21.136 185.04 22.672C185.637 24.208 186.043 25.7653 186.256 27.344H187.6C187.6 24.4853 187.621 22.2027 187.664 20.496C187.707 18.7467 187.771 17.2747 187.856 16.08H186.512C186.171 18.3413 185.275 18.9813 183.824 18C183.227 17.5733 182.245 17.1467 180.88 16.72Z" fill="#1C2126"/>
<path d="M151.669 0.400024C153.461 0.400024 154.869 0.848024 155.893 1.74403C156.959 2.59736 157.493 3.79203 157.493 5.32803C157.493 6.86403 156.959 8.08003 155.893 8.97603C154.869 9.82936 153.461 10.256 151.669 10.256C149.877 10.256 148.447 9.82936 147.381 8.97603C146.357 8.08003 145.845 6.86403 145.845 5.32803C145.845 3.79203 146.357 2.59736 147.381 1.74403C148.447 0.848024 149.877 0.400024 151.669 0.400024Z" fill="#F36246"/>
</g>
<defs>
<clipPath id="clip0_601_9">
<rect width="190" height="51" fill="white"/>
</clipPath>
</defs>
</svg>
