<svg width="130" height="61" viewBox="0 0 130 61" fill="none" xmlns="http://www.w3.org/2000/svg">
<path d="M50.625 25H45.125L39.1406 15.375L37.0938 16.8438V25H32.25V2.15625H37.0938V12.6094C37.4167 12.1615 37.7344 11.7135 38.0469 11.2656C38.3594 10.8177 38.6771 10.3698 39 9.92188L45.1875 2.15625H50.5625L42.5938 12.2656L50.625 25ZM69 16.2344C69 17.6927 68.8021 18.9844 68.4062 20.1094C68.0208 21.2344 67.4531 22.1875 66.7031 22.9688C65.9635 23.7396 65.0677 24.3229 64.0156 24.7188C62.974 25.1146 61.7969 25.3125 60.4844 25.3125C59.2552 25.3125 58.125 25.1146 57.0938 24.7188C56.0729 24.3229 55.1823 23.7396 54.4219 22.9688C53.6719 22.1875 53.0885 21.2344 52.6719 20.1094C52.2656 18.9844 52.0625 17.6927 52.0625 16.2344C52.0625 14.2969 52.4062 12.6562 53.0938 11.3125C53.7812 9.96875 54.7604 8.94792 56.0312 8.25C57.3021 7.55208 58.8177 7.20312 60.5781 7.20312C62.2135 7.20312 63.6615 7.55208 64.9219 8.25C66.1927 8.94792 67.1875 9.96875 67.9062 11.3125C68.6354 12.6562 69 14.2969 69 16.2344ZM56.9219 16.2344C56.9219 17.3802 57.0469 18.3438 57.2969 19.125C57.5469 19.9062 57.9375 20.4948 58.4688 20.8906C59 21.2865 59.6927 21.4844 60.5469 21.4844C61.3906 21.4844 62.0729 21.2865 62.5938 20.8906C63.125 20.4948 63.5104 19.9062 63.75 19.125C64 18.3438 64.125 17.3802 64.125 16.2344C64.125 15.0781 64 14.1198 63.75 13.3594C63.5104 12.5885 63.125 12.0104 62.5938 11.625C62.0625 11.2396 61.3698 11.0469 60.5156 11.0469C59.2552 11.0469 58.3385 11.4792 57.7656 12.3438C57.2031 13.2083 56.9219 14.5052 56.9219 16.2344ZM80.0938 7.17188C82.4375 7.17188 84.2344 7.68229 85.4844 8.70312C86.7344 9.72396 87.3594 11.276 87.3594 13.3594V25H84.0312L83.1094 22.625H82.9844C82.4844 23.25 81.974 23.7604 81.4531 24.1562C80.9323 24.5521 80.3333 24.8438 79.6562 25.0312C78.9792 25.2188 78.1562 25.3125 77.1875 25.3125C76.1562 25.3125 75.2292 25.1146 74.4062 24.7188C73.5938 24.3229 72.9531 23.7188 72.4844 22.9062C72.0156 22.0833 71.7812 21.0417 71.7812 19.7812C71.7812 17.9271 72.4323 16.5625 73.7344 15.6875C75.0365 14.8021 76.9896 14.3125 79.5938 14.2188L82.625 14.125V13.3594C82.625 12.4427 82.3854 11.7708 81.9062 11.3438C81.4271 10.9167 80.7604 10.7031 79.9062 10.7031C79.0625 10.7031 78.2344 10.8229 77.4219 11.0625C76.6094 11.3021 75.7969 11.6042 74.9844 11.9688L73.4062 8.75C74.3333 8.26042 75.3698 7.875 76.5156 7.59375C77.6719 7.3125 78.8646 7.17188 80.0938 7.17188ZM82.625 16.9062L80.7812 16.9688C79.2396 17.0104 78.1667 17.2865 77.5625 17.7969C76.9688 18.3073 76.6719 18.9792 76.6719 19.8125C76.6719 20.5417 76.8854 21.0625 77.3125 21.375C77.7396 21.6771 78.2969 21.8281 78.9844 21.8281C80.0052 21.8281 80.8646 21.526 81.5625 20.9219C82.2708 20.3177 82.625 19.4583 82.625 18.3438V16.9062ZM102.031 7.20312C102.271 7.20312 102.547 7.21875 102.859 7.25C103.182 7.27083 103.443 7.30208 103.641 7.34375L103.281 11.8125C103.125 11.7604 102.901 11.724 102.609 11.7031C102.328 11.6719 102.083 11.6562 101.875 11.6562C101.26 11.6562 100.661 11.7344 100.078 11.8906C99.5052 12.0469 98.9896 12.3021 98.5312 12.6562C98.0729 13 97.7083 13.4583 97.4375 14.0312C97.1771 14.5938 97.0469 15.2865 97.0469 16.1094V25H92.2812V7.53125H95.8906L96.5938 10.4688H96.8281C97.1719 9.875 97.599 9.33333 98.1094 8.84375C98.6302 8.34375 99.2188 7.94792 99.875 7.65625C100.542 7.35417 101.26 7.20312 102.031 7.20312ZM111.578 7.53125V25H106.812V7.53125H111.578ZM109.203 0.6875C109.911 0.6875 110.521 0.854167 111.031 1.1875C111.542 1.51042 111.797 2.11979 111.797 3.01562C111.797 3.90104 111.542 4.51562 111.031 4.85938C110.521 5.19271 109.911 5.35938 109.203 5.35938C108.484 5.35938 107.87 5.19271 107.359 4.85938C106.859 4.51562 106.609 3.90104 106.609 3.01562C106.609 2.11979 106.859 1.51042 107.359 1.1875C107.87 0.854167 108.484 0.6875 109.203 0.6875ZM128.781 19.8125C128.781 21 128.5 22.0052 127.938 22.8281C127.385 23.6406 126.557 24.2604 125.453 24.6875C124.349 25.1042 122.974 25.3125 121.328 25.3125C120.109 25.3125 119.062 25.2344 118.188 25.0781C117.323 24.9219 116.448 24.6615 115.562 24.2969V20.3594C116.51 20.7865 117.526 21.1406 118.609 21.4219C119.703 21.6927 120.661 21.8281 121.484 21.8281C122.411 21.8281 123.073 21.6927 123.469 21.4219C123.875 21.1406 124.078 20.776 124.078 20.3281C124.078 20.0365 123.995 19.776 123.828 19.5469C123.672 19.3073 123.328 19.0417 122.797 18.75C122.266 18.4479 121.432 18.0573 120.297 17.5781C119.203 17.1198 118.302 16.6562 117.594 16.1875C116.896 15.7188 116.375 15.1667 116.031 14.5312C115.698 13.8854 115.531 13.0677 115.531 12.0781C115.531 10.4635 116.156 9.25 117.406 8.4375C118.667 7.61458 120.349 7.20312 122.453 7.20312C123.536 7.20312 124.568 7.3125 125.547 7.53125C126.536 7.75 127.552 8.09896 128.594 8.57812L127.156 12.0156C126.292 11.6406 125.474 11.3333 124.703 11.0938C123.943 10.8542 123.167 10.7344 122.375 10.7344C121.677 10.7344 121.151 10.8281 120.797 11.0156C120.443 11.2031 120.266 11.4896 120.266 11.875C120.266 12.1562 120.354 12.4062 120.531 12.625C120.719 12.8438 121.073 13.0885 121.594 13.3594C122.125 13.6198 122.901 13.9583 123.922 14.375C124.911 14.7812 125.771 15.2083 126.5 15.6562C127.229 16.0938 127.792 16.6406 128.188 17.2969C128.583 17.9427 128.781 18.7812 128.781 19.8125ZM7.26562 56H4.23828V44.2422H0.361328V41.7227H11.1426V44.2422H7.26562V56ZM17.6074 44.877C18.6165 44.877 19.4857 45.0723 20.2148 45.4629C20.944 45.847 21.5072 46.4069 21.9043 47.1426C22.3014 47.8783 22.5 48.7767 22.5 49.8379V51.2832H15.459C15.4915 52.123 15.7422 52.7839 16.2109 53.2656C16.6862 53.7409 17.3438 53.9785 18.1836 53.9785C18.8802 53.9785 19.5182 53.9069 20.0977 53.7637C20.6771 53.6204 21.2728 53.4056 21.8848 53.1191V55.4238C21.3444 55.6908 20.778 55.8861 20.1855 56.0098C19.5996 56.1335 18.8867 56.1953 18.0469 56.1953C16.9531 56.1953 15.9831 55.9935 15.1367 55.5898C14.2969 55.1862 13.6361 54.571 13.1543 53.7441C12.679 52.9173 12.4414 51.8757 12.4414 50.6191C12.4414 49.3431 12.6562 48.2819 13.0859 47.4355C13.5221 46.5827 14.1276 45.9447 14.9023 45.5215C15.6771 45.0918 16.5788 44.877 17.6074 44.877ZM17.627 46.9961C17.0475 46.9961 16.5658 47.1816 16.1816 47.5527C15.804 47.9238 15.5859 48.5065 15.5273 49.3008H19.707C19.7005 48.8581 19.6191 48.4642 19.4629 48.1191C19.3132 47.7741 19.0853 47.5007 18.7793 47.2988C18.4798 47.097 18.0957 46.9961 17.627 46.9961ZM29.3555 56.1953C28.2747 56.1953 27.3535 56 26.5918 55.6094C25.8301 55.2122 25.2507 54.6003 24.8535 53.7734C24.4564 52.9466 24.2578 51.8887 24.2578 50.5996C24.2578 49.265 24.4824 48.1777 24.9316 47.3379C25.3874 46.4915 26.0156 45.8698 26.8164 45.4727C27.6237 45.0755 28.5579 44.877 29.6191 44.877C30.3743 44.877 31.0254 44.9518 31.5723 45.1016C32.1257 45.2448 32.6074 45.4173 33.0176 45.6191L32.1387 47.9238C31.6699 47.735 31.2337 47.582 30.8301 47.4648C30.4264 47.3411 30.0228 47.2793 29.6191 47.2793C29.0983 47.2793 28.6654 47.403 28.3203 47.6504C27.9753 47.8913 27.7181 48.2559 27.5488 48.7441C27.3796 49.2324 27.2949 49.8444 27.2949 50.5801C27.2949 51.3027 27.3861 51.9017 27.5684 52.377C27.7507 52.8522 28.0143 53.207 28.3594 53.4414C28.7044 53.6693 29.1243 53.7832 29.6191 53.7832C30.2376 53.7832 30.7878 53.7018 31.2695 53.5391C31.7513 53.3698 32.2201 53.1354 32.6758 52.8359V55.3848C32.2201 55.6712 31.7415 55.8763 31.2402 56C30.7454 56.1302 30.1172 56.1953 29.3555 56.1953ZM38.1934 40.8047V43.9004C38.1934 44.4408 38.1738 44.9551 38.1348 45.4434C38.1022 45.9316 38.0762 46.2767 38.0566 46.4785H38.2129C38.4473 46.1009 38.724 45.7949 39.043 45.5605C39.3685 45.3262 39.7266 45.1536 40.1172 45.043C40.5078 44.9323 40.9277 44.877 41.377 44.877C42.1647 44.877 42.8516 45.0169 43.4375 45.2969C44.0234 45.5703 44.4792 46.0033 44.8047 46.5957C45.1302 47.1816 45.293 47.9434 45.293 48.8809V56H42.3145V49.623C42.3145 48.8418 42.1712 48.2526 41.8848 47.8555C41.5983 47.4583 41.1556 47.2598 40.5566 47.2598C39.9577 47.2598 39.4857 47.3997 39.1406 47.6797C38.7956 47.9531 38.5514 48.36 38.4082 48.9004C38.265 49.4342 38.1934 50.0885 38.1934 50.8633V56H35.2148V40.8047H38.1934ZM54.5605 44.877C55.7259 44.877 56.6634 45.196 57.373 45.834C58.0827 46.4655 58.4375 47.4811 58.4375 48.8809V56H55.459V49.623C55.459 48.8418 55.3158 48.2526 55.0293 47.8555C54.7493 47.4583 54.3066 47.2598 53.7012 47.2598C52.7897 47.2598 52.168 47.569 51.8359 48.1875C51.5039 48.806 51.3379 49.6979 51.3379 50.8633V56H48.3594V45.082H50.6348L51.0352 46.4785H51.2012C51.4355 46.1009 51.7253 45.7949 52.0703 45.5605C52.4219 45.3262 52.8092 45.1536 53.2324 45.043C53.6621 44.9323 54.1048 44.877 54.5605 44.877ZM71.4258 50.5215C71.4258 51.4329 71.3021 52.2402 71.0547 52.9434C70.8138 53.6465 70.459 54.2422 69.9902 54.7305C69.528 55.2122 68.9681 55.5768 68.3105 55.8242C67.6595 56.0716 66.9238 56.1953 66.1035 56.1953C65.3353 56.1953 64.6289 56.0716 63.9844 55.8242C63.3464 55.5768 62.7897 55.2122 62.3145 54.7305C61.8457 54.2422 61.4811 53.6465 61.2207 52.9434C60.9668 52.2402 60.8398 51.4329 60.8398 50.5215C60.8398 49.3105 61.0547 48.2852 61.4844 47.4453C61.9141 46.6055 62.526 45.9674 63.3203 45.5312C64.1146 45.0951 65.0618 44.877 66.1621 44.877C67.1842 44.877 68.0892 45.0951 68.877 45.5312C69.6712 45.9674 70.293 46.6055 70.7422 47.4453C71.1979 48.2852 71.4258 49.3105 71.4258 50.5215ZM63.877 50.5215C63.877 51.2376 63.9551 51.8398 64.1113 52.3281C64.2676 52.8164 64.5117 53.1842 64.8438 53.4316C65.1758 53.679 65.6087 53.8027 66.1426 53.8027C66.6699 53.8027 67.0964 53.679 67.4219 53.4316C67.7539 53.1842 67.9948 52.8164 68.1445 52.3281C68.3008 51.8398 68.3789 51.2376 68.3789 50.5215C68.3789 49.7988 68.3008 49.1999 68.1445 48.7246C67.9948 48.2428 67.7539 47.8815 67.4219 47.6406C67.0898 47.3997 66.6569 47.2793 66.123 47.2793C65.3353 47.2793 64.7624 47.5495 64.4043 48.0898C64.0527 48.6302 63.877 49.4408 63.877 50.5215ZM76.8652 56H73.8867V40.8047H76.8652V56ZM89.9219 50.5215C89.9219 51.4329 89.7982 52.2402 89.5508 52.9434C89.3099 53.6465 88.9551 54.2422 88.4863 54.7305C88.0241 55.2122 87.4642 55.5768 86.8066 55.8242C86.1556 56.0716 85.4199 56.1953 84.5996 56.1953C83.8314 56.1953 83.125 56.0716 82.4805 55.8242C81.8424 55.5768 81.2858 55.2122 80.8105 54.7305C80.3418 54.2422 79.9772 53.6465 79.7168 52.9434C79.4629 52.2402 79.3359 51.4329 79.3359 50.5215C79.3359 49.3105 79.5508 48.2852 79.9805 47.4453C80.4102 46.6055 81.0221 45.9674 81.8164 45.5312C82.6107 45.0951 83.5579 44.877 84.6582 44.877C85.6803 44.877 86.5853 45.0951 87.373 45.5312C88.1673 45.9674 88.7891 46.6055 89.2383 47.4453C89.694 48.2852 89.9219 49.3105 89.9219 50.5215ZM82.373 50.5215C82.373 51.2376 82.4512 51.8398 82.6074 52.3281C82.7637 52.8164 83.0078 53.1842 83.3398 53.4316C83.6719 53.679 84.1048 53.8027 84.6387 53.8027C85.166 53.8027 85.5924 53.679 85.918 53.4316C86.25 53.1842 86.4909 52.8164 86.6406 52.3281C86.7969 51.8398 86.875 51.2376 86.875 50.5215C86.875 49.7988 86.7969 49.1999 86.6406 48.7246C86.4909 48.2428 86.25 47.8815 85.918 47.6406C85.5859 47.3997 85.153 47.2793 84.6191 47.2793C83.8314 47.2793 83.2585 47.5495 82.9004 48.0898C82.5488 48.6302 82.373 49.4408 82.373 50.5215ZM95.5762 60.8047C94.0527 60.8047 92.8874 60.5378 92.0801 60.0039C91.2793 59.4766 90.8789 58.7344 90.8789 57.7773C90.8789 57.1198 91.084 56.5697 91.4941 56.127C91.9043 55.6842 92.5065 55.3685 93.3008 55.1797C92.9948 55.0495 92.7279 54.8379 92.5 54.5449C92.2721 54.2454 92.1582 53.9297 92.1582 53.5977C92.1582 53.181 92.2786 52.8359 92.5195 52.5625C92.7604 52.2826 93.1087 52.0091 93.5645 51.7422C92.9915 51.4948 92.5358 51.0977 92.1973 50.5508C91.8652 50.0039 91.6992 49.3594 91.6992 48.6172C91.6992 47.8229 91.8717 47.1491 92.2168 46.5957C92.5684 46.0358 93.0762 45.6094 93.7402 45.3164C94.4108 45.0234 95.2246 44.877 96.1816 44.877C96.3835 44.877 96.6178 44.89 96.8848 44.916C97.1517 44.9421 97.3958 44.9714 97.6172 45.0039C97.8451 45.0365 97.998 45.0625 98.0762 45.082H101.885V46.5957L100.176 47.0352C100.332 47.276 100.449 47.5332 100.527 47.8066C100.605 48.0801 100.645 48.3698 100.645 48.6758C100.645 49.8477 100.234 50.7624 99.4141 51.4199C98.6003 52.071 97.4674 52.3965 96.0156 52.3965C95.6706 52.377 95.3451 52.3509 95.0391 52.3184C94.8893 52.4355 94.7754 52.5592 94.6973 52.6895C94.6191 52.8197 94.5801 52.9564 94.5801 53.0996C94.5801 53.2428 94.6387 53.3633 94.7559 53.4609C94.8796 53.5521 95.0618 53.6237 95.3027 53.6758C95.5501 53.7214 95.8561 53.7441 96.2207 53.7441H98.0762C99.2741 53.7441 100.186 54.0013 100.811 54.5156C101.442 55.0299 101.758 55.7852 101.758 56.7812C101.758 58.0573 101.224 59.0469 100.156 59.75C99.0951 60.4531 97.5684 60.8047 95.5762 60.8047ZM95.7031 58.8613C96.4128 58.8613 97.0215 58.793 97.5293 58.6562C98.0436 58.526 98.4375 58.3372 98.7109 58.0898C98.9844 57.849 99.1211 57.5592 99.1211 57.2207C99.1211 56.9473 99.0397 56.7292 98.877 56.5664C98.7207 56.4102 98.4798 56.2995 98.1543 56.2344C97.8353 56.1693 97.4251 56.1367 96.9238 56.1367H95.3809C95.0163 56.1367 94.6875 56.1953 94.3945 56.3125C94.1081 56.4297 93.8802 56.5924 93.7109 56.8008C93.5417 57.0156 93.457 57.263 93.457 57.543C93.457 57.9531 93.6523 58.2754 94.043 58.5098C94.4401 58.7441 94.9935 58.8613 95.7031 58.8613ZM96.1816 50.5801C96.7415 50.5801 97.1517 50.4076 97.4121 50.0625C97.6725 49.7174 97.8027 49.2487 97.8027 48.6562C97.8027 47.9987 97.666 47.5072 97.3926 47.1816C97.1257 46.8496 96.722 46.6836 96.1816 46.6836C95.6348 46.6836 95.2246 46.8496 94.9512 47.1816C94.6777 47.5072 94.541 47.9987 94.541 48.6562C94.541 49.2487 94.6745 49.7174 94.9414 50.0625C95.2148 50.4076 95.6283 50.5801 96.1816 50.5801ZM106.67 45.082V56H103.691V45.082H106.67ZM105.186 40.8047C105.628 40.8047 106.009 40.9089 106.328 41.1172C106.647 41.319 106.807 41.6999 106.807 42.2598C106.807 42.8132 106.647 43.1973 106.328 43.4121C106.009 43.6204 105.628 43.7246 105.186 43.7246C104.736 43.7246 104.352 43.6204 104.033 43.4121C103.721 43.1973 103.564 42.8132 103.564 42.2598C103.564 41.6999 103.721 41.319 104.033 41.1172C104.352 40.9089 104.736 40.8047 105.186 40.8047ZM114.307 44.877C115.316 44.877 116.185 45.0723 116.914 45.4629C117.643 45.847 118.206 46.4069 118.604 47.1426C119.001 47.8783 119.199 48.7767 119.199 49.8379V51.2832H112.158C112.191 52.123 112.441 52.7839 112.91 53.2656C113.385 53.7409 114.043 53.9785 114.883 53.9785C115.579 53.9785 116.217 53.9069 116.797 53.7637C117.376 53.6204 117.972 53.4056 118.584 53.1191V55.4238C118.044 55.6908 117.477 55.8861 116.885 56.0098C116.299 56.1335 115.586 56.1953 114.746 56.1953C113.652 56.1953 112.682 55.9935 111.836 55.5898C110.996 55.1862 110.335 54.571 109.854 53.7441C109.378 52.9173 109.141 51.8757 109.141 50.6191C109.141 49.3431 109.355 48.2819 109.785 47.4355C110.221 46.5827 110.827 45.9447 111.602 45.5215C112.376 45.0918 113.278 44.877 114.307 44.877ZM114.326 46.9961C113.747 46.9961 113.265 47.1816 112.881 47.5527C112.503 47.9238 112.285 48.5065 112.227 49.3008H116.406C116.4 48.8581 116.318 48.4642 116.162 48.1191C116.012 47.7741 115.785 47.5007 115.479 47.2988C115.179 47.097 114.795 46.9961 114.326 46.9961ZM129.238 52.7578C129.238 53.5 129.062 54.1283 128.711 54.6426C128.366 55.1504 127.848 55.5378 127.158 55.8047C126.468 56.0651 125.609 56.1953 124.58 56.1953C123.818 56.1953 123.164 56.1465 122.617 56.0488C122.077 55.9512 121.53 55.7884 120.977 55.5605V53.0996C121.569 53.3665 122.204 53.5879 122.881 53.7637C123.564 53.9329 124.163 54.0176 124.678 54.0176C125.257 54.0176 125.671 53.9329 125.918 53.7637C126.172 53.5879 126.299 53.36 126.299 53.0801C126.299 52.8978 126.247 52.735 126.143 52.5918C126.045 52.4421 125.83 52.276 125.498 52.0938C125.166 51.9049 124.645 51.6608 123.936 51.3613C123.252 51.0749 122.689 50.7852 122.246 50.4922C121.81 50.1992 121.484 49.8542 121.27 49.457C121.061 49.0534 120.957 48.5423 120.957 47.9238C120.957 46.9147 121.348 46.1562 122.129 45.6484C122.917 45.1341 123.968 44.877 125.283 44.877C125.96 44.877 126.605 44.9453 127.217 45.082C127.835 45.2188 128.47 45.4368 129.121 45.7363L128.223 47.8848C127.682 47.6504 127.171 47.4583 126.689 47.3086C126.214 47.1589 125.729 47.084 125.234 47.084C124.798 47.084 124.469 47.1426 124.248 47.2598C124.027 47.377 123.916 47.556 123.916 47.7969C123.916 47.9727 123.971 48.1289 124.082 48.2656C124.199 48.4023 124.421 48.5553 124.746 48.7246C125.078 48.8874 125.563 49.099 126.201 49.3594C126.82 49.6133 127.357 49.8802 127.812 50.1602C128.268 50.4336 128.62 50.7754 128.867 51.1855C129.115 51.5892 129.238 52.1133 129.238 52.7578Z" fill="#F7F9F9"/>
</svg>
