<svg width="233" height="133" viewBox="0 0 233 133" fill="none" xmlns="http://www.w3.org/2000/svg">
<g clip-path="url(#clip0_235_441)">
<path d="M38.2988 60.4732V23.0957C38.2988 22.5619 38.5111 22.05 38.8888 21.6726C39.2666 21.2951 39.779 21.0831 40.3132 21.0831C40.8475 21.0831 41.3598 21.2951 41.7376 21.6726C42.1154 22.05 42.3276 22.5619 42.3276 23.0957V60.4732C42.3276 61.007 42.1154 61.5189 41.7376 61.8964C41.3598 62.2738 40.8475 62.4859 40.3132 62.4859C39.779 62.4859 39.2666 62.2738 38.8888 61.8964C38.5111 61.5189 38.2988 61.007 38.2988 60.4732Z" fill="#F0F0F0"/>
<path d="M33.4785 60.4732V23.0957C33.4785 22.5619 33.6907 22.05 34.0685 21.6726C34.4463 21.2951 34.9587 21.0831 35.4929 21.0831C36.0272 21.0831 36.5395 21.2951 36.9173 21.6726C37.2951 22.05 37.5073 22.5619 37.5073 23.0957V60.4732C37.5073 61.007 37.2951 61.5189 36.9173 61.8964C36.5395 62.2738 36.0272 62.4859 35.4929 62.4859C34.9587 62.4859 34.4463 62.2738 34.0685 61.8964C33.6907 61.5189 33.4785 61.007 33.4785 60.4732Z" fill="#F0F0F0"/>
<path d="M28.6582 60.4732V23.0957C28.6582 22.5619 28.8704 22.05 29.2482 21.6726C29.626 21.2951 30.1383 21.0831 30.6726 21.0831C31.2068 21.0831 31.7192 21.2951 32.097 21.6726C32.4747 22.05 32.687 22.5619 32.687 23.0957V60.4732C32.687 61.007 32.4747 61.5189 32.097 61.8964C31.7192 62.2738 31.2068 62.4859 30.6726 62.4859C30.1383 62.4859 29.626 62.2738 29.2482 61.8964C28.8704 61.5189 28.6582 61.007 28.6582 60.4732Z" fill="#F0F0F0"/>
<path d="M210.645 120.173C209.834 120.173 209.029 120.034 208.265 119.76L208.147 119.717L208.202 119.457C206.834 116.697 207.312 112.915 209.426 109.806C211.347 106.979 214.268 104.924 216.846 103.111C217.173 102.881 217.562 102.754 217.961 102.747C218.361 102.739 218.754 102.851 219.09 103.068C219.426 103.286 219.689 103.598 219.845 103.966C220.001 104.334 220.044 104.74 219.968 105.132L219.046 109.857C218.381 113.266 217.589 116.492 215.242 118.504C213.953 119.582 212.326 120.172 210.645 120.173Z" fill="#E6E6E6"/>
<path d="M216.681 128.337C215.789 128.332 214.911 128.104 214.129 127.674C213.347 127.244 212.685 126.625 212.203 125.875L212.136 125.771L212.295 125.63C212.707 123.383 214.647 121.38 217.251 120.518C219.618 119.735 222.231 119.863 224.535 119.976C224.84 119.991 225.133 120.096 225.378 120.277C225.622 120.459 225.808 120.709 225.91 120.995C226.013 121.282 226.027 121.593 225.953 121.888C225.878 122.184 225.718 122.45 225.491 122.654L222.899 124.992C221.016 126.69 219.137 128.224 216.871 128.334C216.808 128.336 216.744 128.338 216.681 128.337Z" fill="#E6E6E6"/>
<path d="M208.637 130.837C208.254 127.989 207.86 125.104 208.129 122.226C208.367 119.669 209.131 117.172 210.686 115.125C211.507 114.044 212.511 113.114 213.653 112.379C213.949 112.187 214.222 112.668 213.927 112.858C211.948 114.142 210.426 116.018 209.578 118.218C208.631 120.677 208.479 123.358 208.643 125.971C208.741 127.551 208.95 129.121 209.161 130.689C209.178 130.759 209.168 130.833 209.133 130.897C209.098 130.96 209.04 131.008 208.971 131.03C208.936 131.04 208.9 131.042 208.865 131.037C208.829 131.033 208.795 131.021 208.764 131.003C208.733 130.985 208.705 130.961 208.684 130.932C208.662 130.904 208.646 130.871 208.637 130.837Z" fill="#F2F2F2"/>
<path d="M207.555 132.474C209.397 129.144 211.534 125.443 215.353 124.26C216.413 123.933 217.528 123.815 218.633 123.914C218.981 123.945 218.894 124.493 218.547 124.463C216.69 124.307 214.837 124.807 213.312 125.877C211.836 126.903 210.687 128.33 209.715 129.843C209.119 130.769 208.585 131.735 208.051 132.7C207.881 133.008 207.382 132.786 207.555 132.474Z" fill="#F2F2F2"/>
<path d="M206.726 132.425L208.586 132.468L197.369 72.5951L195.508 72.9453L198.438 88.477H189.001L191.93 72.9453L190.069 72.5951L178.946 132.468L180.712 132.425L186.561 101.415H200.878L206.726 132.425ZM186.994 99.1153L188.567 90.7772H198.871L200.444 99.1153H186.994Z" fill="#CACACA"/>
<path d="M125.493 61.4269V41.7648C125.493 41.181 126.396 40.7061 127.507 40.7061C128.618 40.7061 129.521 41.181 129.521 41.7648V61.4269C129.521 62.0107 128.618 62.4856 127.507 62.4856C126.396 62.4856 125.493 62.0107 125.493 61.4269Z" fill="#F0F0F0"/>
<path d="M120.673 61.4269V41.7648C120.673 41.181 121.576 40.7061 122.687 40.7061C123.798 40.7061 124.702 41.181 124.702 41.7648V61.4269C124.702 62.0107 123.798 62.4856 122.687 62.4856C121.576 62.4856 120.673 62.0107 120.673 61.4269Z" fill="#F0F0F0"/>
<path d="M115.853 61.4269V41.7648C115.853 41.181 116.756 40.7061 117.867 40.7061C118.978 40.7061 119.881 41.181 119.881 41.7648V61.4269C119.881 62.0107 118.978 62.4856 117.867 62.4856C116.756 62.4856 115.853 62.0107 115.853 61.4269Z" fill="#F0F0F0"/>
<path d="M156.404 46.9674C156.395 46.9076 156.373 46.8504 156.341 46.7995C156.308 46.7486 156.265 46.705 156.215 46.6717L141.028 36.6549C141.257 36.5595 141.448 36.3919 141.573 36.1778C141.725 35.9135 141.766 35.5998 141.687 35.3055C141.608 35.0111 141.416 34.7599 141.152 34.6068L139.906 33.888C139.641 33.7364 139.327 33.6956 139.033 33.7744C138.738 33.8533 138.487 34.0455 138.334 34.309C138.251 34.4538 138.201 34.615 138.188 34.7813L127.226 27.5507C126.857 26.6598 126.299 25.8599 125.59 25.2066C124.881 24.5533 124.037 24.0624 123.119 23.768V20.5799H119.09V23.768C117.753 24.1951 116.587 25.0354 115.76 26.1678C114.932 27.3001 114.486 28.6659 114.486 30.068V30.9306H118.515C118.515 31.6169 118.787 32.2751 119.273 32.7604C119.759 33.2456 120.418 33.5183 121.105 33.5183C121.791 33.5183 122.45 33.2456 122.936 32.7604C123.422 32.2751 123.694 31.6169 123.694 30.9306H127.723V30.068C127.723 29.6546 127.684 29.242 127.607 28.8358L155.339 47.1277L143.819 61.1214C143.73 61.121 143.641 61.1201 143.551 61.1201C142.631 61.1201 141.741 61.1419 140.892 61.1792C140.944 61.0371 140.966 60.8862 140.958 60.7354C140.941 60.4311 140.805 60.1458 140.578 59.9418C140.352 59.7378 140.053 59.6317 139.749 59.6467L138.312 59.7215C138.007 59.7383 137.722 59.8747 137.518 60.1012C137.313 60.3276 137.207 60.6255 137.222 60.9299C137.233 61.1097 137.286 61.2844 137.378 61.4393C134.837 61.7091 133.191 62.081 133.191 62.2702C133.191 62.5802 137.612 62.2851 143.145 62.2709C143.171 62.3428 143.215 62.4066 143.273 62.4559C143.331 62.5052 143.402 62.5381 143.477 62.5513C143.552 62.5644 143.629 62.5574 143.701 62.5309C143.772 62.5044 143.836 62.4593 143.884 62.4004L143.991 62.271C149.508 62.2863 153.91 62.5796 153.91 62.2702C153.91 61.9785 149.996 61.2529 144.924 61.1365L156.31 47.3056C156.349 47.2589 156.377 47.2046 156.393 47.1464C156.409 47.0881 156.413 47.0271 156.404 46.9674Z" fill="#CCCCCC"/>
<path d="M156.819 132.569H121.361C120.645 132.568 119.958 132.283 119.451 131.777C118.944 131.271 118.659 130.584 118.658 129.868V71.7273C118.658 71.0876 118.403 70.4743 117.95 70.022C117.498 69.5696 116.884 69.3152 116.243 69.3145H33.3037C32.6635 69.3152 32.0496 69.5696 31.5969 70.022C31.1441 70.4743 30.8895 71.0876 30.8887 71.7273V129.868C30.8879 130.584 30.6029 131.271 30.0962 131.777C29.5895 132.283 28.9025 132.568 28.186 132.569H26.9728C26.2562 132.568 25.5692 132.283 25.0625 131.777C24.5558 131.271 24.2708 130.584 24.27 129.868V68.5957C24.2719 66.8806 24.9547 65.2362 26.1686 64.0234C27.3824 62.8106 29.0282 62.1284 30.7448 62.1265H153.047C154.764 62.1285 156.409 62.8107 157.623 64.0235C158.837 65.2362 159.52 66.8806 159.522 68.5957V129.868C159.521 130.584 159.236 131.271 158.729 131.777C158.222 132.283 157.535 132.568 156.819 132.569Z" fill="#E4E4E4"/>
<path d="M159.378 77.2213H118.802V78.9464H159.378V77.2213Z" fill="white"/>
<path d="M159.378 100.51H118.802V102.235H159.378V100.51Z" fill="white"/>
<path d="M85.2147 61.8426L84.0485 61.3519L83.2485 55.511H72.5952L71.7281 61.3281L70.6848 61.8493C70.6349 61.8742 70.5948 61.9153 70.5712 61.9658C70.5475 62.0163 70.5417 62.0733 70.5545 62.1276C70.5673 62.1818 70.5981 62.2302 70.6418 62.2648C70.6856 62.2994 70.7398 62.3182 70.7956 62.3182H85.1186C85.1758 62.3182 85.2312 62.2985 85.2755 62.2623C85.3197 62.2261 85.3501 62.1757 85.3614 62.1197C85.3727 62.0637 85.3643 62.0055 85.3375 61.9549C85.3108 61.9044 85.2674 61.8647 85.2147 61.8426Z" fill="#E6E6E6"/>
<path d="M104.146 56.2881H51.8143C51.5397 56.2875 51.2766 56.1781 51.0826 55.9839C50.8887 55.7897 50.7798 55.5266 50.7798 55.2522V47.8792H105.181V55.2522C105.181 55.5266 105.072 55.7897 104.878 55.9839C104.684 56.1781 104.421 56.2875 104.146 56.2881Z" fill="#CCCCCC"/>
<path d="M105.236 51.3638H50.7324V19.816C50.7328 19.4849 50.8646 19.1675 51.0989 18.9334C51.3332 18.6993 51.6509 18.5676 51.9823 18.5673H103.986C104.317 18.5676 104.635 18.6993 104.869 18.9334C105.104 19.1675 105.235 19.4849 105.236 19.816V51.3638Z" fill="#3F3D56"/>
<path d="M101.98 49.0741H53.9875C53.732 49.0738 53.4871 48.9723 53.3065 48.7918C53.1258 48.6113 53.0242 48.3666 53.0239 48.1114V21.8197C53.0242 21.5644 53.1258 21.3197 53.3065 21.1392C53.4871 20.9588 53.732 20.8572 53.9875 20.8569H101.98C102.236 20.8572 102.481 20.9588 102.661 21.1392C102.842 21.3197 102.944 21.5644 102.944 21.8197V48.1114C102.944 48.3666 102.842 48.6113 102.661 48.7918C102.481 48.9723 102.236 49.0738 101.98 49.0741Z" fill="white"/>
<path d="M155.781 23.8752C156.24 23.8091 156.708 23.8444 157.152 23.9786C157.596 24.1128 158.005 24.3426 158.35 24.6518C158.696 24.9611 158.969 25.3422 159.151 25.7685C159.333 26.1947 159.42 26.6556 159.404 27.1188L169.927 31.1655L165.159 34.5686L155.898 30.2041C155.121 30.1265 154.399 29.7668 153.87 29.1931C153.341 28.6195 153.04 27.8718 153.026 27.0917C153.011 26.3116 153.284 25.5532 153.792 24.9604C154.299 24.3676 155.007 23.9815 155.781 23.8752Z" fill="#9E616A"/>
<path d="M195.734 21.8887L197.514 25.1224C197.084 27.1734 195.972 29.0187 194.36 30.3583C191.634 32.6549 177.384 41.2083 177.384 41.2083L159.393 32.1845L162.54 28.0059L176.665 32.7353C181.904 27.792 188.227 24.1399 195.129 22.0702L195.734 21.8887Z" fill="#E4E4E4"/>
<path d="M192.424 75.3974C200.179 75.3974 206.465 73.3509 206.465 70.8264C206.465 68.3019 200.179 66.2554 192.424 66.2554C184.67 66.2554 178.384 68.3019 178.384 70.8264C178.384 73.3509 184.67 75.3974 192.424 75.3974Z" fill="#CACACA"/>
<path d="M160.926 128.551L157.197 127.522L159.398 112.663L164.901 114.183L160.926 128.551Z" fill="#9E616A"/>
<path d="M160.878 132.425L148.856 129.105L148.898 128.953C149.241 127.713 150.063 126.66 151.183 126.026C152.303 125.391 153.629 125.227 154.87 125.57L154.871 125.57L162.213 127.598L160.878 132.425Z" fill="#2F2E41"/>
<path d="M150.116 128.6L146.577 127.038L150.92 112.659L156.143 114.963L150.116 128.6Z" fill="#9E616A"/>
<path d="M149.504 132.425L138.094 127.391L138.158 127.247C138.678 126.07 139.645 125.148 140.845 124.683C142.046 124.219 143.382 124.249 144.56 124.769L144.56 124.769L151.529 127.844L149.504 132.425Z" fill="#2F2E41"/>
<path d="M203.351 59.6508C203.351 59.6508 205.227 65.4567 193.719 72.7991L178.899 87.5542L163.5 124.358L154.357 120.263L156.151 115.481L157.354 112.272L157.969 110.631L158.629 108.871L168.417 82.768L176.638 68.3853L176.877 60.5811L178.899 55.0798L193.571 49.8783L203.351 59.6508Z" fill="#2F2E41"/>
<path d="M195.87 59.9383C195.87 59.9383 197.745 65.7442 186.238 73.0866L171.417 87.8417L156.018 124.646L146.875 120.551L148.669 115.769L149.872 112.56L150.487 110.918L151.147 109.158L160.935 83.0555L163.688 78.2399C167.319 71.8868 171.732 66.0127 176.823 60.7543L179.522 57.9671L179.81 53.6544L186.089 50.1658L195.87 59.9383Z" fill="#2F2E41"/>
<path d="M187.004 31.5153L191.608 21.7397L199.643 20.6446C199.643 20.6446 205.917 28.631 204.27 39.8534C203.652 44.0618 203.149 48.2516 203.119 51.9292C203.111 52.9078 203.968 53.3447 203.982 54.2294C203.996 55.0984 202.358 56.514 202.831 57.1046C203.507 57.9185 203.91 58.9244 203.982 59.9798C203.412 61.3358 186.153 53.9896 178.899 55.0798L187.004 31.5153Z" fill="#E4E4E4"/>
<path d="M198.416 15.7231C200.467 12.2759 199.332 7.82027 195.882 5.77112C192.432 3.72197 187.972 4.85529 185.922 8.30247C183.871 11.7496 185.005 16.2053 188.455 18.2544C191.905 20.3036 196.365 19.1703 198.416 15.7231Z" fill="#9E616A"/>
<path d="M196.815 9.40562C196.801 9.59668 196.782 9.84972 196.76 10.136C196.737 10.9197 196.959 11.6911 197.393 12.3441C197.799 13.0311 197.314 17.1804 197.314 17.1804C209.219 8.88943 199.812 0.559816 196.133 1.30026C196.21 0.245891 193.209 0.663583 193.209 0.663583C192.065 -1.11554 189.559 1.2461 189.559 1.2461L190.043 0.433299C188.097 0.927752 186.174 6.93565 186.174 6.93565C186.834 9.52754 196.892 8.35124 196.815 9.40562Z" fill="#2F2E41"/>
<path d="M150.634 35.3608C154.725 29.9242 157.959 23.894 160.223 17.4797C160.354 17.096 160.345 16.6783 160.197 16.3009C160.049 15.9234 159.771 15.6107 159.414 15.4185L145.415 7.92428C145.189 7.80211 144.937 7.7332 144.68 7.72277C144.423 7.71234 144.167 7.76067 143.931 7.86409C143.691 7.9683 143.478 8.12584 143.308 8.32473C143.139 8.52362 143.016 8.75861 142.951 9.01181C141.322 15.1928 138.259 20.9038 134.011 25.6827C133.836 25.8772 133.708 26.109 133.636 26.3605C133.564 26.612 133.551 26.8765 133.597 27.1339C133.642 27.3872 133.743 27.6271 133.894 27.8352C134.045 28.0433 134.242 28.2143 134.469 28.335L148.468 35.8293C148.826 36.0201 149.24 36.0777 149.637 35.9919C150.033 35.9061 150.387 35.6825 150.634 35.3608Z" fill="#CCCCCC"/>
<path d="M149.678 34.6437C149.603 34.7376 149.497 34.8023 149.379 34.8266C149.262 34.851 149.139 34.8334 149.032 34.777L135.034 27.2826C134.966 27.2472 134.907 27.1965 134.862 27.1346C134.817 27.0727 134.786 27.0011 134.774 26.9256C134.759 26.8459 134.763 26.7639 134.786 26.686C134.808 26.6081 134.848 26.5365 134.903 26.4767C139.277 21.557 142.43 15.6777 144.107 9.31463C144.126 9.23602 144.164 9.16295 144.216 9.10116C144.268 9.03937 144.334 8.99053 144.409 8.95846C144.479 8.92713 144.555 8.91248 144.632 8.91565C144.709 8.91882 144.784 8.93972 144.851 8.97673L158.849 16.4709C158.955 16.5282 159.038 16.6206 159.083 16.7323C159.128 16.844 159.133 16.9679 159.096 17.0827C156.872 23.3821 153.696 29.3043 149.678 34.6437Z" fill="white"/>
<path d="M144.781 16.0969L154.437 21.7513C155.397 22.3139 156.267 20.8234 155.308 20.2618L145.653 14.6073C144.692 14.0448 143.822 15.5352 144.781 16.0969Z" fill="#1C2126"/>
<path d="M143.055 19.2597L152.71 24.9141C153.671 25.4766 154.541 23.9862 153.581 23.4245L143.926 17.7701C142.965 17.2075 142.096 18.698 143.055 19.2597Z" fill="#1C2126"/>
<path d="M141.04 22.7099L150.695 28.3643C151.656 28.9269 152.526 27.4364 151.567 26.8747L141.911 21.2203C140.951 20.6577 140.081 22.1482 141.04 22.7099Z" fill="#1C2126"/>
<path d="M139.026 25.5851L148.681 31.2395C149.642 31.8021 150.512 30.3116 149.553 29.7499L139.897 24.0955C138.937 23.5329 138.067 25.0234 139.026 25.5851Z" fill="#1C2126"/>
<path d="M183.042 58.8449L186.667 66.989C186.754 67.184 186.791 67.3976 186.775 67.6107C186.759 67.8237 186.69 68.0294 186.575 68.2091C186.439 68.4239 186.242 68.5936 186.009 68.6969C185.777 68.8003 185.519 68.8325 185.268 68.7896C185.183 68.7766 185.099 68.7543 185.018 68.723C184.698 68.5994 184.44 68.354 184.3 68.0405L180.675 59.8964C180.606 59.7411 180.568 59.5738 180.564 59.4039C180.56 59.2341 180.589 59.065 180.65 58.9064C180.773 58.5861 181.018 58.3278 181.332 58.1884C181.646 58.049 182.002 58.0398 182.323 58.1629C182.644 58.286 182.902 58.5313 183.042 58.8449Z" fill="#1C2126"/>
<path d="M186.374 66.3322L187.1 67.9759L187.471 70.3062C187.496 70.4596 187.469 70.6169 187.395 70.7534C187.321 70.89 187.204 70.9983 187.061 71.0614C186.919 71.1245 186.76 71.1389 186.609 71.1024C186.458 71.066 186.323 70.9806 186.226 70.8596L184.723 68.9915L184.007 67.3837L186.374 66.3322Z" fill="#3F3D56"/>
<path d="M179.87 56.579L180.389 59.8395C180.406 59.9463 180.447 60.0477 180.51 60.1359C180.572 60.2242 180.654 60.2969 180.749 60.3485C180.844 60.4 180.95 60.4291 181.058 60.4333C181.166 60.4376 181.274 60.4169 181.373 60.373L181.888 60.1442L182.882 62.3773C182.913 62.4468 182.97 62.5012 183.041 62.5285C183.113 62.5558 183.192 62.5537 183.261 62.5227C183.331 62.4918 183.386 62.4345 183.413 62.3634C183.44 62.2923 183.438 62.2133 183.408 62.1436L182.414 59.9105L182.929 59.6817C183.099 59.6058 183.233 59.4653 183.3 59.2912C183.368 59.117 183.363 58.9232 183.288 58.7524C183.263 58.6958 183.23 58.6427 183.191 58.5946L181.116 56.0253C181.018 55.9045 180.883 55.8192 180.732 55.7828C180.581 55.7464 180.422 55.7608 180.28 55.824C180.138 55.8871 180.021 55.9953 179.946 56.1319C179.872 56.2684 179.845 56.4256 179.87 56.579Z" fill="#3F3D56"/>
<path d="M181.373 62.4641C181.455 62.0079 181.636 61.5751 181.903 61.1963C182.17 60.8175 182.517 60.5018 182.92 60.2715C183.322 60.0412 183.77 59.9018 184.233 59.8633C184.695 59.8248 185.16 59.888 185.595 60.0484L192.751 51.3428L194.484 56.9349L187.423 64.3445C187.105 65.0571 186.536 65.6282 185.824 65.9497C185.113 66.2712 184.308 66.3207 183.562 66.0889C182.816 65.8571 182.182 65.3601 181.778 64.692C181.375 64.0239 181.231 63.2312 181.373 62.4641Z" fill="#9E616A"/>
<path d="M190.382 61.8984L187.23 57.35L196.179 45.4279L191.569 35.5574L191.905 23.8165L195.714 23.1133L195.762 23.137C197.614 24.2023 199.046 25.8684 199.819 27.8589C200.769 30.2327 202.891 39.1442 204.071 44.2447C204.303 45.2331 204.278 46.2643 203.998 47.2402C203.717 48.2161 203.192 49.104 202.471 49.8194L190.382 61.8984Z" fill="#E4E4E4"/>
<path d="M101.644 39.9208C101.618 40.1417 101.609 40.3644 101.618 40.5866L85.482 52.3157L81.0491 50.3555L77.2139 56.6532L84.724 60.8852C85.3307 61.2271 86.0321 61.3631 86.7228 61.2729C87.4135 61.1826 88.0562 60.8709 88.5545 60.3846L104.795 44.5356C105.626 44.7467 106.502 44.6998 107.306 44.4014C108.11 44.1029 108.804 43.567 109.296 42.8648C109.787 42.1627 110.054 41.3276 110.059 40.4706C110.064 39.6137 109.808 38.7755 109.324 38.0676C108.841 37.3597 108.153 36.8155 107.353 36.5076C106.553 36.1996 105.677 36.1424 104.844 36.3436C104.01 36.5448 103.257 36.9948 102.686 37.6338C102.114 38.2728 101.751 39.0705 101.644 39.9208Z" fill="#FFB6B6"/>
<path d="M84.9603 52.7444L80.2547 60.5788C80.1208 60.8017 79.9404 60.9931 79.7257 61.1401C79.5111 61.2871 79.2673 61.3861 79.0109 61.4304C78.7546 61.4747 78.4916 61.4634 78.24 61.397C77.9885 61.3307 77.7542 61.2109 77.5531 61.0459L70.5076 55.2647C69.3703 54.5737 68.5536 53.4603 68.2365 52.1686C67.9195 50.877 68.1279 49.5124 68.8162 48.3741C69.5045 47.2357 70.6164 46.4165 71.9083 46.096C73.2001 45.7754 74.5665 45.9797 75.7078 46.664L84.1019 50.1428C84.3422 50.2424 84.5582 50.3927 84.7352 50.5833C84.9121 50.7739 85.0459 51.0003 85.1273 51.2472C85.2088 51.4941 85.236 51.7557 85.2072 52.014C85.1784 52.2724 85.0941 52.5215 84.9603 52.7444Z" fill="#1C2126"/>
<path d="M64.7982 120.839H74.022V105.568H64.7982V120.839Z" fill="#CACACA"/>
<path d="M73.5598 113.649L72.376 115.392L94.513 130.4L95.6968 128.657L73.5598 113.649Z" fill="#CACACA"/>
<path d="M65.2605 113.649L43.1235 128.657L44.3074 130.4L66.4443 115.392L65.2605 113.649Z" fill="#CACACA"/>
<path d="M95.1049 132.425C96.706 132.425 98.0038 131.128 98.0038 129.529C98.0038 127.929 96.706 126.632 95.1049 126.632C93.5039 126.632 92.2061 127.929 92.2061 129.529C92.2061 131.128 93.5039 132.425 95.1049 132.425Z" fill="#CACACA"/>
<path d="M69.2783 132.425C70.8793 132.425 72.1772 131.128 72.1772 129.529C72.1772 127.929 70.8793 126.632 69.2783 126.632C67.6773 126.632 66.3794 127.929 66.3794 129.529C66.3794 131.128 67.6773 132.425 69.2783 132.425Z" fill="#CACACA"/>
<path d="M43.7153 132.425C45.3163 132.425 46.6142 131.128 46.6142 129.529C46.6142 127.929 45.3163 126.632 43.7153 126.632C42.1143 126.632 40.8164 127.929 40.8164 129.529C40.8164 131.128 42.1143 132.425 43.7153 132.425Z" fill="#CACACA"/>
<path d="M70.3324 114.52H68.2241V129.529H70.3324V114.52Z" fill="#CACACA"/>
<path d="M67.4337 112.414H71.3867V92.1392H67.4337V112.414Z" fill="#CACACA"/>
<path d="M58.0781 95.2988V90.5593C58.0791 89.6867 58.4265 88.8501 59.0441 88.2331C59.6616 87.6161 60.4989 87.269 61.3723 87.268H79.0291C79.9025 87.269 80.7398 87.6161 81.3574 88.2331C81.975 88.8501 82.3223 89.6867 82.3233 90.5593V95.2988C82.3223 96.1715 81.975 97.008 81.3574 97.6251C80.7398 98.2421 79.9025 98.5892 79.0291 98.5902H61.3723C60.4989 98.5892 59.6616 98.2421 59.0441 97.6251C58.4265 97.008 58.0791 96.1715 58.0781 95.2988Z" fill="#3F3D56"/>
<path d="M89.9688 127.696L94.8517 127.695L97.1752 115.041L89.9683 115.042L89.9688 127.696Z" fill="#FFB8B8"/>
<path d="M88.7235 132.425L104.469 132.424V132.225C104.469 131.421 104.31 130.625 104.002 129.882C103.694 129.139 103.243 128.464 102.674 127.896C102.105 127.327 101.429 126.876 100.686 126.568C99.9422 126.261 99.1453 126.102 98.3405 126.102H98.3398L88.7231 126.103L88.7235 132.425Z" fill="#2F2E41"/>
<path d="M97.2721 119.849L107.007 98.0374C107.82 96.199 107.91 94.1222 107.259 92.2206C106.608 90.319 105.264 88.7322 103.495 87.7762L82.379 76.4631L72.7434 75.6442L63.8553 74.837L63.7912 74.9455C63.7093 75.0838 61.7982 78.3818 63.09 81.998C64.0699 84.741 66.6186 86.8836 70.6654 88.3662C80.111 91.8266 91.0225 94.7841 95.2754 95.8948C95.4633 95.9429 95.639 96.0301 95.7908 96.1508C95.9426 96.2715 96.0671 96.4229 96.1561 96.5952C96.2454 96.7654 96.2984 96.9522 96.3118 97.1439C96.3253 97.3356 96.2989 97.528 96.2343 97.709L87.1901 118.011C87.0956 118.268 87.0616 118.544 87.0907 118.817C87.1197 119.089 87.2111 119.352 87.3577 119.584C87.5043 119.816 87.7022 120.011 87.9362 120.154C88.1702 120.297 88.4341 120.385 88.7074 120.41L95.4653 120.902C95.5227 120.907 95.5798 120.91 95.6366 120.91C95.9827 120.91 96.3214 120.81 96.6116 120.621C96.9019 120.433 97.1313 120.165 97.2721 119.849Z" fill="#2F2E41"/>
<path d="M86.7823 127.696L91.6652 127.695L93.9886 115.041L86.7817 115.042L86.7823 127.696Z" fill="#FFB8B8"/>
<path d="M85.5369 132.425L101.282 132.424V132.225C101.282 131.421 101.124 130.625 100.816 129.882C100.508 129.139 100.056 128.464 99.4873 127.896C98.9183 127.327 98.2427 126.876 97.4992 126.568C96.7556 126.261 95.9587 126.102 95.1539 126.102H95.1533L85.5366 126.103L85.5369 132.425Z" fill="#2F2E41"/>
<path d="M93.6873 121.043L103.422 99.2312C104.235 97.3929 104.325 95.3161 103.674 93.4145C103.023 91.5129 101.679 89.9261 99.9098 88.9701L78.7942 77.657L69.1586 76.8381L62.197 76.2348L62.198 76.1393C62.116 76.2777 60.205 79.5756 61.4967 83.1919C62.4766 85.9349 63.0338 88.0774 67.0805 89.5601C76.5262 93.0205 87.4377 95.978 91.6906 97.0887C91.8785 97.1368 92.0542 97.224 92.206 97.3447C92.3578 97.4654 92.4823 97.6168 92.5713 97.7891C92.6606 97.9593 92.7136 98.1461 92.727 98.3378C92.7405 98.5295 92.7141 98.7219 92.6495 98.9029L83.6053 119.205C83.5108 119.462 83.4768 119.738 83.5059 120.011C83.5349 120.283 83.6263 120.546 83.7729 120.778C83.9195 121.009 84.1174 121.204 84.3514 121.348C84.5854 121.491 84.8493 121.579 85.1226 121.604L91.8805 122.096C91.9379 122.101 91.995 122.104 92.0518 122.104C92.3979 122.104 92.7366 122.004 93.0268 121.815C93.3171 121.627 93.5465 121.358 93.6873 121.043Z" fill="#2F2E41"/>
<path d="M87.5809 27.0955C88.831 21.8437 85.5832 16.5739 80.3269 15.3249C75.0706 14.076 69.7961 17.3209 68.5461 22.5726C67.2961 27.8244 70.5438 33.0943 75.8001 34.3432C81.0565 35.5922 86.3309 32.3472 87.5809 27.0955Z" fill="#FFB8B8"/>
<path d="M111.785 62.3877C115.876 56.951 119.11 50.9208 121.375 44.5066C121.506 44.1229 121.496 43.7052 121.348 43.3277C121.2 42.9503 120.923 42.6376 120.565 42.4454L106.567 34.9511C106.34 34.829 106.089 34.7601 105.832 34.7496C105.575 34.7392 105.318 34.7875 105.083 34.8909C104.843 34.9951 104.63 35.1527 104.46 35.3516C104.29 35.5505 104.168 35.7855 104.102 36.0387C102.473 42.2196 99.4104 47.9306 95.1621 52.7096C94.9872 52.9041 94.8591 53.1359 94.7874 53.3874C94.7157 53.6389 94.7025 53.9034 94.7486 54.1608C94.7929 54.4141 94.8945 54.6539 95.0456 54.862C95.1967 55.0702 95.3934 55.2411 95.6206 55.3618L109.619 62.8561C109.977 63.0469 110.392 63.1045 110.788 63.0187C111.185 62.933 111.538 62.7094 111.785 62.3877Z" fill="#CCCCCC"/>
<path d="M110.83 61.6705C110.755 61.7644 110.649 61.8291 110.531 61.8534C110.413 61.8778 110.29 61.8602 110.184 61.8038L96.185 54.3094C96.117 54.274 96.0582 54.2233 96.0131 54.1614C95.968 54.0994 95.9379 54.0279 95.9251 53.9524C95.9105 53.8727 95.9146 53.7907 95.937 53.7128C95.9595 53.6349 95.9997 53.5633 96.0545 53.5035C100.428 48.5838 103.581 42.7045 105.258 36.3414C105.278 36.2628 105.315 36.1897 105.367 36.128C105.42 36.0662 105.486 36.0173 105.56 35.9853C105.63 35.9539 105.707 35.9393 105.783 35.9424C105.86 35.9456 105.935 35.9665 106.002 36.0035L120.001 43.4977C120.107 43.555 120.19 43.6474 120.235 43.7591C120.28 43.8708 120.284 43.9947 120.248 44.1094C118.023 50.4089 114.847 56.3311 110.83 61.6705Z" fill="white"/>
<path d="M105.932 43.1238L115.587 48.7782C116.548 49.3408 117.418 47.8503 116.459 47.2886L106.804 41.6342C105.843 41.0716 104.973 42.5621 105.932 43.1238Z" fill="#CCCCCC"/>
<path d="M104.206 46.2865L113.861 51.9409C114.822 52.5034 115.691 51.013 114.732 50.4513L105.077 44.7969C104.116 44.2343 103.246 45.7248 104.206 46.2865Z" fill="#CCCCCC"/>
<path d="M102.849 49.4369L111.63 54.6452C112.503 55.1634 113.438 54.0921 112.566 53.5747L103.785 48.3664C102.911 47.8482 101.977 48.9195 102.849 49.4369Z" fill="#CCCCCC"/>
<path d="M100.177 52.6119L109.832 58.2663C110.793 58.8289 111.663 57.3384 110.704 56.7767L101.048 51.1223C100.088 50.5597 99.2176 52.0502 100.177 52.6119Z" fill="#CCCCCC"/>
<path d="M83.7041 77.2548L64.3447 77.1392L64.3395 77.0016C63.9704 67.2967 65.1575 58.5054 67.9687 50.1258C68.0085 49.8122 68.0514 49.4769 68.0936 49.1478C68.5738 45.3989 68.955 42.4223 72.5231 41.3138C72.2259 40.9189 72.0506 40.4457 72.019 39.9526C71.9965 39.6248 72.0395 39.2959 72.1455 38.9849C72.2514 38.674 72.4183 38.3872 72.6363 38.1412C72.8448 37.9037 73.0986 37.7101 73.3828 37.5715C73.667 37.433 73.976 37.3523 74.2917 37.3343L81.1824 37.0998C81.5445 37.0974 81.8969 37.2167 82.1829 37.4387C82.7075 37.8281 83.0762 38.3914 83.223 39.0276C83.3698 39.6639 83.285 40.3316 82.9839 40.9111C82.9028 41.0726 82.8717 41.1462 82.8599 41.1782C83.1049 42.4605 83.8317 43.9837 84.6008 45.5957C85.7022 47.9037 86.9504 50.5195 87.2713 53.318C87.4447 54.829 87.3727 56.3581 87.058 57.8461C86.9144 58.648 86.8813 59.4658 86.9597 60.2766C87.0227 61.4789 87.082 62.6141 86.4019 63.7119C86.2285 64.0096 86.0301 64.3268 85.7973 64.6784L84.8405 66.9637L83.7041 77.2548Z" fill="#1C2126"/>
<path d="M54.6523 90.8362V51.3133C54.6538 50.0254 55.1665 48.7907 56.078 47.88C56.9894 46.9693 58.2252 46.4571 59.5142 46.4556H60.8589C62.1479 46.4571 63.3837 46.9693 64.2952 47.88C65.2067 48.7907 65.7194 50.0254 65.7208 51.3133V90.8362C65.7194 92.1241 65.2067 93.3588 64.2952 94.2694C63.3837 95.1801 62.1479 95.6924 60.8589 95.6938H59.5142C58.2252 95.6924 56.9894 95.1801 56.078 94.2694C55.1665 93.3588 54.6538 92.1241 54.6523 90.8362Z" fill="#3F3D56"/>
<path d="M106.567 55.258C106.428 55.4318 106.303 55.6163 106.193 55.8097L86.2915 57.2616L83.562 53.2589L76.9775 56.585L81.1204 64.1403C81.4551 64.7506 81.9789 65.236 82.6132 65.5236C83.2475 65.8112 83.9581 65.8855 84.6382 65.7353L106.805 60.8392C107.4 61.4568 108.168 61.879 109.009 62.0495C109.849 62.22 110.722 62.1309 111.51 61.7938C112.299 61.4567 112.966 60.8878 113.423 60.1627C113.88 59.4375 114.106 58.5905 114.069 57.7343C114.033 56.8782 113.736 56.0534 113.219 55.3697C112.702 54.686 111.989 54.1758 111.174 53.907C110.36 53.6382 109.483 53.6234 108.66 53.8648C107.837 54.1061 107.107 54.592 106.567 55.258Z" fill="#FFB6B6"/>
<path d="M85.6218 57.3506L77.4862 61.5229C77.2547 61.6416 77.0003 61.709 76.7404 61.7207C76.4804 61.7323 76.2211 61.6878 75.9799 61.5903C75.7387 61.4927 75.5214 61.3444 75.3428 61.1553C75.1642 60.9663 75.0284 60.741 74.9448 60.4949L72.0151 51.8689C71.4144 50.6847 71.3075 49.311 71.7178 48.0483C72.128 46.7856 73.0221 45.7366 74.2044 45.1307C70.5981 46.9802 78.109 41.7266 80.9757 47.3066L86.2673 54.6882C86.4187 54.8996 86.5228 55.1411 86.5724 55.3963C86.622 55.6515 86.6159 55.9144 86.5547 56.1671C86.4934 56.4197 86.3784 56.6562 86.2174 56.8605C86.0564 57.0647 85.8532 57.2319 85.6218 57.3506Z" fill="#1C2126"/>
<path d="M73.6444 34.3408C73.0556 34.3408 72.4058 34.0573 71.6733 33.4828C69.5179 31.7917 67.9772 29.4409 67.2876 26.7908C66.5981 24.1407 66.7977 21.3378 67.856 18.812C68.3886 17.5409 69.3847 15.8133 71.1056 14.8008C72.3427 14.0733 73.7958 13.8104 75.0609 13.6212C76.156 13.4572 77.265 13.3267 78.3567 13.2337C79.6613 13.1222 81.1682 13.047 82.5427 13.5687C83.5497 13.9511 84.4068 14.6264 85.2357 15.2795C85.5246 15.5069 85.8233 15.7425 86.1226 15.9604C86.8476 16.5255 87.6838 16.9312 88.5766 17.1512C88.7649 17.1902 88.9428 17.2692 89.098 17.3827C89.2532 17.4963 89.3822 17.6419 89.4763 17.8096C89.5722 17.98 89.6305 18.1691 89.647 18.364C89.6636 18.5588 89.6381 18.755 89.5723 18.9392C89.443 19.3014 89.3263 19.6279 89.5624 19.9817C89.6499 20.1063 89.7666 20.2076 89.9024 20.2768C90.0381 20.3459 90.1888 20.3807 90.3411 20.3782C90.4215 20.3769 90.501 20.3956 90.5723 20.4328C90.6435 20.47 90.7044 20.5244 90.7493 20.591C90.7949 20.6571 90.8236 20.7332 90.8329 20.8129C90.8422 20.8926 90.8318 20.9733 90.8027 21.0481L90.7648 21.1455C90.8661 21.155 90.9636 21.1889 91.0488 21.2443C91.1341 21.2997 91.2046 21.375 91.2542 21.4637C91.3281 21.5899 91.3567 21.7376 91.3352 21.8823C91.3137 22.027 91.2434 22.16 91.136 22.2594C90.263 23.0897 89.1746 23.6588 87.9942 23.9023C87.1865 24.0606 86.3555 24.0587 85.5484 23.8966L85.4186 23.8714L85.4346 23.7276C82.1701 22.5643 79.2233 24.5385 77.5435 26.7954L77.3008 26.6424C77.3425 26.5583 77.3667 26.4666 77.372 26.3729C77.3773 26.2792 77.3636 26.1854 77.3316 26.0971C77.2978 25.9912 77.2434 25.893 77.1715 25.8081C77.0997 25.7232 77.0118 25.6533 76.9128 25.6024C76.7128 25.5199 76.4927 25.4985 76.2805 25.5408C76.0682 25.5831 75.8733 25.6873 75.7202 25.8402C75.5643 26.0034 75.4442 26.1973 75.3674 26.4095C75.2906 26.6216 75.2589 26.8475 75.2743 27.0725C75.3184 27.5496 75.4401 28.0163 75.6344 28.4543C75.7134 28.6637 75.7951 28.8805 75.8615 29.0989C76.2333 30.3399 76.1342 31.6743 75.5831 32.8468C75.3288 33.3817 74.869 34.0637 74.1225 34.2751C73.9669 34.319 73.806 34.3411 73.6444 34.3408Z" fill="#2F2E41"/>
<path d="M232.657 133H0.342628C0.251926 133 0.16503 132.964 0.100986 132.899C0.0369427 132.835 0.000976562 132.748 0.000976562 132.658C0.000976562 132.567 0.0369427 132.48 0.100986 132.416C0.16503 132.352 0.251926 132.316 0.342628 132.315H232.657C232.748 132.315 232.835 132.351 232.9 132.416C232.964 132.48 233 132.567 233 132.658C233 132.748 232.964 132.836 232.9 132.9C232.835 132.964 232.748 133 232.657 133Z" fill="#CACACA"/>
</g>
<defs>
<clipPath id="clip0_235_441">
<rect width="233" height="133" fill="white"/>
</clipPath>
</defs>
</svg>
