<svg width="119" height="102" viewBox="0 0 119 102" fill="none" xmlns="http://www.w3.org/2000/svg">
<g clip-path="url(#clip0_228_221)">
<path d="M115.868 33.6531C115.868 24.2642 108.257 16.6531 98.8684 16.6531H52.193V64.5306H115.868V33.6531Z" fill="#FEFEFE"/>
<path d="M84.0282 100.936C82.1179 99.3193 80.9575 96.766 81.2618 94.2803C81.5661 91.7947 83.4509 89.5096 85.8957 88.9818C88.3405 88.454 91.1274 89.9151 91.87 92.3064C92.2786 87.6961 92.7496 82.8925 95.1975 78.9664C97.4141 75.4113 101.253 72.8676 105.414 72.4125C109.575 71.9574 113.956 73.6762 116.551 76.9645C119.145 80.2529 119.781 85.0334 117.963 88.8087C116.625 91.5898 114.158 93.6595 111.574 95.3434C103.223 100.739 93.2065 102.933 83.3685 101.522" fill="#F2F2F2"/>
<path d="M112.436 73.7715C109.003 76.5715 105.853 79.7031 103.033 83.1209C98.619 88.4516 95.0472 94.4282 92.4419 100.843C92.2512 101.311 93.0101 101.514 93.1987 101.051C94.8554 96.996 96.9051 93.1128 99.3184 89.4576C103.082 83.7478 107.692 78.6457 112.991 74.3271C113.383 74.0077 112.825 73.4547 112.436 73.7715Z" fill="white"/>
<path d="M82.7087 100.936C84.619 99.3193 85.7794 96.766 85.4751 94.2803C85.1708 91.7947 83.286 89.5096 80.8412 88.9818C78.3964 88.454 75.6095 89.9151 74.8669 92.3064C74.4583 87.6961 73.9873 82.8925 71.5394 78.9664C69.3228 75.4113 65.4836 72.8676 61.3228 72.4125C57.162 71.9574 52.7813 73.6762 50.1863 76.9645C47.5914 80.2529 46.9561 85.0334 48.7735 88.8087C50.1123 91.5898 52.5789 93.6595 55.1633 95.3434C63.5144 100.739 73.5304 102.933 83.3684 101.522" fill="#F2F2F2"/>
<path d="M54.301 73.7715C57.7341 76.5715 60.8837 79.7031 63.7041 83.1209C68.118 88.4516 71.6898 94.4282 74.2951 100.843C74.4858 101.311 73.7269 101.514 73.5383 101.051C69.2757 90.6268 62.4708 81.4385 53.746 74.3271C53.3543 74.0077 53.9124 73.4547 54.301 73.7715Z" fill="white"/>
<path d="M77.04 45.8844C73.5059 45.8844 70.641 43.0158 70.641 39.4771C70.641 35.9385 73.5059 33.0698 77.04 33.0698C80.574 33.0698 83.439 35.9385 83.439 39.4771C83.439 43.0158 80.574 45.8844 77.04 45.8844Z" fill="#F2F2F2"/>
<path d="M96.7696 17.3901H52.6825V19.8053H91.1415C93.4028 19.8053 95.6419 20.2513 97.731 21.1178C99.8201 21.9842 101.718 23.2542 103.317 24.8552C104.916 26.4563 106.185 28.3569 107.05 30.4488C107.915 32.5406 108.361 34.7826 108.361 37.0468V64.4863H113.185C113.398 64.4863 113.602 64.4015 113.753 64.2505C113.904 64.0995 113.989 63.8947 113.989 63.6812V34.6316C113.989 32.3674 113.543 30.1254 112.678 28.0336C111.813 25.9417 110.544 24.0411 108.945 22.44C107.346 20.839 105.448 19.569 103.359 18.7026C101.27 17.8361 99.0309 17.3901 96.7696 17.3901Z" fill="#F2F2F2"/>
<path d="M88.2898 101.07V64.3831H77.556V101.07C77.5563 101.317 77.6543 101.553 77.8284 101.727C78.0025 101.902 78.2387 102 78.4849 102H87.3609C87.6072 102 87.8433 101.902 88.0174 101.727C88.1916 101.553 88.2895 101.317 88.2898 101.07Z" fill="#3F3D56"/>
<path d="M115.868 63.5163V34.235C115.863 29.5736 113.999 25.1046 110.684 21.8085C107.369 18.5124 102.875 16.6584 98.1877 16.6531H53.2368V64.5306H114.848C115.119 64.5303 115.378 64.4234 115.569 64.2332C115.761 64.043 115.868 63.7852 115.868 63.5163ZM53.6448 17.0588H98.1877C102.767 17.064 107.157 18.8753 110.396 22.0953C113.634 25.3154 115.455 29.6812 115.46 34.235V63.5163C115.46 63.6776 115.396 63.8323 115.281 63.9464C115.166 64.0605 115.011 64.1247 114.848 64.1249H53.6448V17.0588Z" fill="#3F3D56"/>
<path d="M77.0399 42.7842C78.025 42.7831 78.9694 42.3908 79.666 41.6933C80.3625 40.9958 80.7543 40.0502 80.7554 39.0638V12.4012C80.7556 12.2368 80.8209 12.0792 80.937 11.963C81.0531 11.8467 81.2105 11.7813 81.3747 11.7812H95.824C96.0976 11.7808 96.3599 11.6719 96.5534 11.4781C96.7469 11.2844 96.8558 11.0217 96.8561 10.7477V1.03343C96.8558 0.759448 96.7469 0.496773 96.5534 0.303035C96.3599 0.109297 96.0976 0.000317273 95.824 0H74.3565C74.0828 0.000313451 73.8205 0.109293 73.627 0.303032C73.4335 0.496771 73.3247 0.759447 73.3244 1.03343V39.0638C73.3255 40.0502 73.7173 40.9958 74.4139 41.6933C75.1104 42.3908 76.0548 42.7831 77.0399 42.7842Z" fill="#1C2126"/>
<path d="M51.2377 15.5015C48.1237 15.495 45.1347 16.7273 42.9282 18.9275C40.7217 21.1276 39.4784 24.1153 39.4719 27.2333V61.194H16.353C15.4243 61.1921 14.5328 61.5596 13.8748 62.2158C13.2167 62.872 12.8459 63.763 12.8439 64.693H63.0035V27.2333C62.997 24.1153 61.7537 21.1276 59.5472 18.9275C57.3407 16.7273 54.3517 15.495 51.2377 15.5015Z" fill="#3F3D56"/>
<path d="M54.061 34.8406L51.6247 44.9178L3.96659 33.3658L6.40292 23.2885C6.43235 23.1653 6.4924 23.0516 6.57748 22.9578C6.66256 22.864 6.76991 22.7933 6.88958 22.7522C6.97794 22.7211 7.07137 22.707 7.16496 22.7107L34.7134 8.42821C34.8748 8.34568 35.0604 8.32363 35.2366 8.36605C35.4129 8.40847 35.5682 8.51256 35.6745 8.65955L48.9513 27.1981L53.9565 34.1888C53.9656 34.2011 53.972 34.2151 53.9751 34.23C53.9783 34.2449 53.9782 34.2604 53.9749 34.2753C54.0768 34.445 54.1077 34.6481 54.061 34.8406Z" fill="white"/>
<path d="M53.975 34.2753C53.9726 34.2884 53.9677 34.3009 53.9605 34.3121C53.9533 34.3233 53.944 34.333 53.9331 34.3405C53.9201 34.3494 53.9055 34.3555 53.8902 34.3586C53.8748 34.3616 53.8589 34.3615 53.8436 34.3582C53.8187 34.3516 53.7969 34.3364 53.7819 34.3154L53.7647 34.2915L53.5041 33.9266L48.7712 27.32L35.4983 8.78574C35.4226 8.68071 35.3117 8.60635 35.1859 8.57615C35.0601 8.54596 34.9277 8.56193 34.8126 8.62116L7.47758 22.793L7.23228 22.9205C7.22237 22.9246 7.21221 22.9282 7.20187 22.9312C7.18337 22.9278 7.16462 22.926 7.14583 22.9258C7.12017 22.9172 7.09877 22.8991 7.08601 22.8752C7.07936 22.8626 7.07524 22.8488 7.07391 22.8347C7.07259 22.8205 7.07405 22.8062 7.07825 22.7926C7.08244 22.779 7.08929 22.7663 7.09837 22.7554C7.10745 22.7444 7.1186 22.7354 7.13118 22.7287L7.16504 22.7107L34.7135 8.42821C34.8749 8.34568 35.0605 8.32363 35.2367 8.36605C35.413 8.40847 35.5683 8.51256 35.6746 8.65955L48.9514 27.1981L53.9566 34.1888C53.9657 34.2011 53.972 34.2151 53.9752 34.23C53.9784 34.2449 53.9783 34.2604 53.975 34.2753Z" fill="#3F3D56"/>
<path d="M39.6617 35.3028L38.6009 35.4207L30.7276 36.294L25.5081 36.8726L25.1998 36.9069L18.6869 31.8131L18.4373 31.618L16.899 30.4151L11.4262 26.1353L11.3933 25.8347L9.44669 8.24275C9.42016 8.00051 9.49063 7.75762 9.64267 7.56732C9.7947 7.37703 10.0159 7.25486 10.2577 7.2276L36.2367 4.34602C36.4786 4.31957 36.7211 4.39018 36.9111 4.54239C37.1012 4.69461 37.2232 4.91602 37.2505 5.15814L38.6233 17.5671L39.3848 24.4469L40.066 30.6017L40.3817 33.46L40.4739 34.2879C40.5001 34.5303 40.4294 34.7731 40.2772 34.9634C40.125 35.1536 39.9037 35.2757 39.6617 35.3028Z" fill="#E6E6E6"/>
<path d="M32.5227 19.8829L21.2695 21.1309L17.2787 21.5734C17.1025 21.5929 16.9242 21.5775 16.7539 21.528C16.5837 21.4786 16.4248 21.396 16.2864 21.2851C16.1481 21.1742 16.0328 21.037 15.9474 20.8815C15.8619 20.726 15.8079 20.5551 15.7884 20.3787C15.7689 20.2023 15.7843 20.0237 15.8337 19.8533C15.8831 19.6828 15.9655 19.5237 16.0763 19.3852C16.1871 19.2466 16.324 19.1312 16.4794 19.0457C16.6347 18.9601 16.8053 18.906 16.9815 18.8865L21.9452 18.336L32.2247 17.1947C32.5806 17.1553 32.9376 17.2591 33.2171 17.4832C33.4967 17.7073 33.6759 18.0333 33.7154 18.3897C33.7549 18.7461 33.6515 19.1035 33.4278 19.3835C33.2042 19.6636 32.8786 19.8432 32.5227 19.8829Z" fill="white"/>
<path d="M33.1634 24.8673C33.1344 24.8725 33.1054 24.8777 33.0758 24.8806L20.0126 26.3296L17.8315 26.5721C17.4755 26.6115 17.1185 26.5077 16.8389 26.2835C16.5594 26.0594 16.3802 25.7332 16.3408 25.3767C16.3014 25.0203 16.4051 24.6628 16.6289 24.3829C16.8528 24.1029 17.1786 23.9235 17.5346 23.8841L20.6883 23.5347L31.0361 22.3866L32.7775 22.1934C33.1258 22.1545 33.4755 22.2527 33.7527 22.4673C34.03 22.6819 34.213 22.996 34.2631 23.3433C34.3132 23.6906 34.2265 24.0437 34.0213 24.3281C33.8161 24.6125 33.5084 24.8059 33.1634 24.8673Z" fill="white"/>
<path d="M34.6419 29.287C34.5349 29.465 34.3883 29.6158 34.2136 29.7278C34.0388 29.8399 33.8407 29.9101 33.6345 29.933L28.2802 30.5267L18.7443 31.5846L18.7422 31.5841L18.4373 31.6181L16.899 30.4151C16.8895 30.3237 16.8894 30.2316 16.8988 30.1402C16.9312 29.8334 17.0673 29.5468 17.2845 29.3279C17.5017 29.109 17.787 28.971 18.0933 28.9365L19.4179 28.7891L24.6727 28.2069L28.4537 27.787L33.3376 27.245C33.5879 27.2173 33.8409 27.2602 34.0681 27.3689C34.2953 27.4776 34.4877 27.6478 34.6233 27.8602C34.759 28.0727 34.8327 28.3188 34.8359 28.571C34.8392 28.8231 34.772 29.0711 34.6419 29.287Z" fill="white"/>
<path d="M27.1214 13.7902L24.3215 14.1007L23.0848 14.2382L21.2167 14.4452C20.8607 14.4847 20.5036 14.3809 20.2241 14.1567C19.9445 13.9325 19.7653 13.6064 19.726 13.2499C19.6866 12.8935 19.7902 12.536 20.0141 12.256C20.238 11.9761 20.5637 11.7967 20.9197 11.7573L26.8232 11.103C27.179 11.0634 27.536 11.167 27.8156 11.3909C28.0953 11.6149 28.2746 11.9409 28.3141 12.2973C28.3537 12.6536 28.2502 13.0111 28.0266 13.291C27.8029 13.571 27.4773 13.7506 27.1214 13.7902Z" fill="white"/>
<path d="M50.0163 21.2748L46.6027 35.3943L40.9053 36.4791L35.6351 37.4838L29.9805 38.5611L28.1737 38.9054C28.068 38.9254 27.9592 38.9226 27.8545 38.8973C27.7499 38.8719 27.6519 38.8245 27.567 38.7583L26.1175 37.6247L25.1997 36.9071L18.6868 31.8133L22.828 14.6845C22.8689 14.514 22.958 14.3591 23.0848 14.2382C23.1959 14.1312 23.3322 14.054 23.481 14.0137C23.6298 13.9733 23.7864 13.9711 23.9362 14.0073L49.3401 20.165C49.5766 20.2225 49.7807 20.3717 49.9075 20.5798C50.0343 20.7879 50.0735 21.0378 50.0163 21.2748Z" fill="#1C2126"/>
<path d="M42.1889 32.5073C42.1044 32.8556 41.8853 33.1561 41.5797 33.3428C41.2741 33.5295 40.9071 33.5872 40.5591 33.5031L25.6527 29.8899C25.3049 29.8051 25.005 29.5857 24.8185 29.2798C24.6321 28.9738 24.5744 28.6064 24.6582 28.2579C24.662 28.2407 24.6668 28.2236 24.6727 28.207C24.7679 27.871 24.9893 27.585 25.2904 27.4089C25.5915 27.2328 25.949 27.1802 26.288 27.2621L41.1944 30.8753C41.5422 30.96 41.8423 31.1794 42.0288 31.4853C42.2152 31.7913 42.2728 32.1589 42.1889 32.5073Z" fill="white"/>
<path d="M40.9054 36.479L35.6351 37.4836L24.4711 34.7775C24.1231 34.6932 23.8228 34.4739 23.6363 34.1678C23.4498 33.8618 23.3923 33.4941 23.4766 33.1456C23.5608 32.7971 23.7798 32.4964 24.0855 32.3097C24.3911 32.1229 24.7584 32.0654 25.1064 32.1498L40.0127 35.763C40.3243 35.8379 40.5987 36.0221 40.7863 36.2821C40.8315 36.3442 40.8713 36.4101 40.9054 36.479Z" fill="white"/>
<path d="M29.9806 38.5609L28.1738 38.9052C28.068 38.9252 27.9592 38.9224 27.8546 38.8971C27.75 38.8717 27.6519 38.8243 27.567 38.7581L26.1176 37.6245L29.9806 38.5609Z" fill="white"/>
<path d="M39.1854 24.9361C39.1009 25.2844 38.8818 25.5849 38.5762 25.7716C38.2706 25.9583 37.9036 26.0159 37.5556 25.9319L31.782 24.5324C31.4342 24.4476 31.1343 24.2282 30.9478 23.9223C30.7614 23.6163 30.7037 23.2489 30.7875 22.9005C30.8324 22.7132 30.9173 22.5379 31.0362 22.3866C31.1959 22.182 31.4111 22.0278 31.656 21.9423C31.9009 21.8568 32.1652 21.8438 32.4173 21.9046L38.1909 23.3041C38.5389 23.3885 38.8391 23.6079 39.0256 23.9139C39.2121 24.2199 39.2696 24.5876 39.1854 24.9361Z" fill="white"/>
<path d="M35.6355 37.4836L29.98 38.5612L28.1738 38.9056C28.0681 38.9254 27.9594 38.9225 27.8548 38.8971C27.7503 38.8718 27.6523 38.8246 27.5673 38.7586L26.1168 37.6247L26.6258 37.7481L27.7003 38.5875C27.7611 38.6346 27.831 38.6683 27.9057 38.6864C27.9804 38.7046 28.0581 38.7066 28.1336 38.6925L29.471 38.4378L35.1265 37.3602L35.6355 37.4836ZM18.7427 31.5849L18.6876 31.8127L18.4368 31.6174L18.7427 31.5849ZM35.6355 37.4836L29.98 38.5612L28.1738 38.9056C28.0681 38.9254 27.9594 38.9225 27.8548 38.8971C27.7503 38.8718 27.6523 38.8246 27.5673 38.7586L26.1168 37.6247L26.6258 37.7481L27.7003 38.5875C27.7611 38.6346 27.831 38.6683 27.9057 38.6864C27.9804 38.7046 28.0581 38.7066 28.1336 38.6925L29.471 38.4378L35.1265 37.3602L35.6355 37.4836ZM35.6355 37.4836L29.98 38.5612L28.1738 38.9056C28.0681 38.9254 27.9594 38.9225 27.8548 38.8971C27.7503 38.8718 27.6523 38.8246 27.5673 38.7586L26.1168 37.6247L26.6258 37.7481L27.7003 38.5875C27.7611 38.6346 27.831 38.6683 27.9057 38.6864C27.9804 38.7046 28.0581 38.7066 28.1336 38.6925L29.471 38.4378L35.1265 37.3602L35.6355 37.4836ZM54.061 34.8407L47.6794 61.2367C47.632 61.4318 47.5093 61.6001 47.3382 61.7046C47.1671 61.8092 46.9615 61.8415 46.7666 61.7944L0.578274 50.5986C0.383461 50.5512 0.215397 50.4284 0.11097 50.257C0.00654602 50.0857 -0.0257149 49.8798 0.0212822 49.6847L6.40292 23.2886C6.43235 23.1654 6.49239 23.0517 6.57747 22.9579C6.66255 22.8641 6.76991 22.7934 6.88958 22.7523C6.97794 22.7212 7.07137 22.7071 7.16495 22.7108C7.27405 22.7139 7.38097 22.7421 7.47749 22.7931C7.52206 22.8143 7.56411 22.8404 7.60284 22.871L11.3935 25.8349L16.8988 30.1409L18.7431 31.5834L18.7427 31.5849L18.7443 31.5853L25.5077 36.872L26.6258 37.7481L27.7003 38.5875C27.7611 38.6346 27.831 38.6683 27.9057 38.6864C27.9804 38.7046 28.0581 38.7066 28.1336 38.6925L29.471 38.4378L35.1265 37.3602L40.7869 36.2822L53.1846 33.9198C53.2903 33.8988 53.3993 33.9012 53.504 33.9267C53.645 33.9612 53.7731 34.0355 53.8732 34.1408C53.9114 34.1822 53.9455 34.2273 53.9749 34.2754C54.0768 34.4451 54.1077 34.6483 54.061 34.8407ZM35.6355 37.4836L29.98 38.5612L28.1738 38.9056C28.0681 38.9254 27.9594 38.9225 27.8548 38.8971C27.7503 38.8718 27.6523 38.8246 27.5673 38.7586L26.1168 37.6247L26.6258 37.7481L27.7003 38.5875C27.7611 38.6346 27.831 38.6683 27.9057 38.6864C27.9804 38.7046 28.0581 38.7066 28.1336 38.6925L29.471 38.4378L35.1265 37.3602L35.6355 37.4836ZM35.6355 37.4836L29.98 38.5612L28.1738 38.9056C28.0681 38.9254 27.9594 38.9225 27.8548 38.8971C27.7503 38.8718 27.6523 38.8246 27.5673 38.7586L26.1168 37.6247L26.6258 37.7481L27.7003 38.5875C27.7611 38.6346 27.831 38.6683 27.9057 38.6864C27.9804 38.7046 28.0581 38.7066 28.1336 38.6925L29.471 38.4378L35.1265 37.3602L35.6355 37.4836ZM35.6355 37.4836L29.98 38.5612L28.1738 38.9056C28.0681 38.9254 27.9594 38.9225 27.8548 38.8971C27.7503 38.8718 27.6523 38.8246 27.5673 38.7586L26.1168 37.6247L26.6258 37.7481L27.7003 38.5875C27.7611 38.6346 27.831 38.6683 27.9057 38.6864C27.9804 38.7046 28.0581 38.7066 28.1336 38.6925L29.471 38.4378L35.1265 37.3602L35.6355 37.4836Z" fill="white"/>
<path d="M35.6355 37.4836L29.98 38.5612L28.1738 38.9056C28.0681 38.9254 27.9594 38.9225 27.8548 38.8971C27.7503 38.8718 27.6523 38.8246 27.5673 38.7586L26.1168 37.6247L26.6258 37.7481L27.7003 38.5875C27.7611 38.6346 27.831 38.6683 27.9057 38.6864C27.9804 38.7045 28.0581 38.7066 28.1336 38.6925L29.471 38.4378L35.1265 37.3602L35.6355 37.4836ZM18.7427 31.5849L18.6876 31.8127L18.4368 31.6174L18.7427 31.5849ZM35.6355 37.4836L29.98 38.5612L28.1738 38.9056C28.0681 38.9254 27.9594 38.9225 27.8548 38.8971C27.7503 38.8718 27.6523 38.8246 27.5673 38.7586L26.1168 37.6247L26.6258 37.7481L27.7003 38.5875C27.7611 38.6346 27.831 38.6683 27.9057 38.6864C27.9804 38.7045 28.0581 38.7066 28.1336 38.6925L29.471 38.4378L35.1265 37.3602L35.6355 37.4836ZM35.6355 37.4836L29.98 38.5612L28.1738 38.9056C28.0681 38.9254 27.9594 38.9225 27.8548 38.8971C27.7503 38.8718 27.6523 38.8246 27.5673 38.7586L26.1168 37.6247L26.6258 37.7481L27.7003 38.5875C27.7611 38.6346 27.831 38.6683 27.9057 38.6864C27.9804 38.7045 28.0581 38.7066 28.1336 38.6925L29.471 38.4378L35.1265 37.3602L35.6355 37.4836ZM53.7646 34.2916L53.7366 34.3127C53.7319 34.305 53.7237 34.2981 53.7175 34.2901C53.655 34.2249 53.5773 34.1763 53.4913 34.1486C53.4054 34.1209 53.314 34.115 53.2252 34.1314L40.905 36.4781L35.6355 37.4836L29.98 38.5612L28.1738 38.9056C28.0681 38.9254 27.9594 38.9225 27.8548 38.8971C27.7503 38.8718 27.6523 38.8246 27.5673 38.7586L26.1168 37.6247L26.6258 37.7481L27.7003 38.5875C27.7611 38.6346 27.831 38.6683 27.9057 38.6864C27.9804 38.7045 28.0581 38.7066 28.1336 38.6925L29.471 38.4378L35.1265 37.3602L40.7869 36.2822L53.1846 33.9198C53.2903 33.8988 53.3993 33.9012 53.504 33.9267L53.7646 34.2916ZM54.061 34.8407L47.6794 61.2367C47.632 61.4318 47.5093 61.6001 47.3382 61.7046C47.1671 61.8092 46.9615 61.8415 46.7666 61.7944L0.578274 50.5986C0.383461 50.5512 0.215397 50.4284 0.11097 50.257C0.00654602 50.0857 -0.0257149 49.8798 0.0212822 49.6847L6.40292 23.2886C6.43235 23.1654 6.49239 23.0517 6.57747 22.9579C6.66255 22.8641 6.76991 22.7934 6.88958 22.7523C6.97794 22.7212 7.07137 22.7071 7.16495 22.7108C7.27405 22.7139 7.38097 22.7421 7.47749 22.7931C7.52206 22.8143 7.56411 22.8404 7.60284 22.871L11.3935 25.8349L16.8988 30.1409L18.7431 31.5834L18.7427 31.5849L18.7443 31.5853L25.5077 36.872L26.6258 37.7481L27.7003 38.5875C27.7611 38.6346 27.831 38.6683 27.9057 38.6864C27.9804 38.7045 28.0581 38.7066 28.1336 38.6925L29.471 38.4378L35.1265 37.3602L40.7869 36.2822L53.1846 33.9198C53.2903 33.8988 53.3993 33.9012 53.504 33.9267C53.645 33.9612 53.7731 34.0355 53.8732 34.1408C53.9114 34.1822 53.9455 34.2272 53.9749 34.2754C54.0768 34.4451 54.1077 34.6483 54.061 34.8407ZM53.8506 34.7897C53.8694 34.7119 53.8706 34.6308 53.8541 34.5525C53.8376 34.4742 53.8039 34.4005 53.7553 34.3369C53.7509 34.3276 53.7445 34.3193 53.7366 34.3127C53.7319 34.305 53.7237 34.2981 53.7175 34.2901C53.655 34.2249 53.5773 34.1763 53.4913 34.1486C53.4054 34.1209 53.314 34.115 53.2252 34.1314L40.905 36.4781L35.6355 37.4836L29.98 38.5612L28.1738 38.9056C28.0681 38.9254 27.9594 38.9225 27.8548 38.8971C27.7503 38.8718 27.6523 38.8246 27.5673 38.7586L26.1168 37.6247L25.1995 36.9071L18.6876 31.8127L18.4368 31.6174L16.8997 30.415L11.4258 26.1346L7.46854 23.0402C7.40838 22.9932 7.33891 22.9596 7.26477 22.9416C7.24407 22.9365 7.22301 22.9331 7.20178 22.9313C7.18328 22.9279 7.16455 22.9261 7.14575 22.9259C7.0825 22.9253 7.01962 22.9356 6.95983 22.9562C6.87453 22.986 6.79802 23.0366 6.73724 23.1035C6.67645 23.1704 6.63334 23.2514 6.6118 23.3393L0.230167 49.7353C0.213379 49.8045 0.210369 49.8763 0.221325 49.9466C0.232281 50.0169 0.256977 50.0844 0.294006 50.1452C0.331036 50.206 0.379677 50.2588 0.43713 50.3007C0.494583 50.3427 0.559734 50.3728 0.628845 50.3895L46.8172 61.5853C46.9565 61.6188 47.1035 61.5956 47.2257 61.5207C47.3479 61.4457 47.4354 61.3252 47.4689 61.1857L53.8506 34.7897ZM35.6355 37.4836L29.98 38.5612L28.1738 38.9056C28.0681 38.9254 27.9594 38.9225 27.8548 38.8971C27.7503 38.8718 27.6523 38.8246 27.5673 38.7586L26.1168 37.6247L26.6258 37.7481L27.7003 38.5875C27.7611 38.6346 27.831 38.6683 27.9057 38.6864C27.9804 38.7045 28.0581 38.7066 28.1336 38.6925L29.471 38.4378L35.1265 37.3602L35.6355 37.4836ZM35.6355 37.4836L29.98 38.5612L28.1738 38.9056C28.0681 38.9254 27.9594 38.9225 27.8548 38.8971C27.7503 38.8718 27.6523 38.8246 27.5673 38.7586L26.1168 37.6247L26.6258 37.7481L27.7003 38.5875C27.7611 38.6346 27.831 38.6683 27.9057 38.6864C27.9804 38.7045 28.0581 38.7066 28.1336 38.6925L29.471 38.4378L35.1265 37.3602L35.6355 37.4836ZM35.6355 37.4836L29.98 38.5612L28.1738 38.9056C28.0681 38.9254 27.9594 38.9225 27.8548 38.8971C27.7503 38.8718 27.6523 38.8246 27.5673 38.7586L26.1168 37.6247L26.6258 37.7481L27.7003 38.5875C27.7611 38.6346 27.831 38.6683 27.9057 38.6864C27.9804 38.7045 28.0581 38.7066 28.1336 38.6925L29.471 38.4378L35.1265 37.3602L35.6355 37.4836Z" fill="#3F3D56"/>
<path d="M12.6164 45.4128C12.7205 44.9803 12.6489 44.5241 12.4175 44.1443C12.1861 43.7645 11.8136 43.4922 11.3819 43.387L5.55231 41.974C5.12093 41.871 4.66639 41.9434 4.28825 42.1754C3.9101 42.4074 3.63919 42.7799 3.53485 43.2115C3.43052 43.6431 3.50126 44.0984 3.73158 44.4779C3.96191 44.8573 4.33305 45.1299 4.76369 45.2359L10.5933 46.649C11.0252 46.7531 11.4808 46.6815 11.8601 46.4498C12.2394 46.218 12.5114 45.8451 12.6164 45.4128Z" fill="#1C2126"/>
<path d="M77.0399 40.5106C76.2419 40.5106 75.595 39.8628 75.595 39.0638C75.595 38.2647 76.2419 37.6169 77.0399 37.6169C77.8379 37.6169 78.4849 38.2647 78.4849 39.0638C78.4849 39.8628 77.8379 40.5106 77.0399 40.5106Z" fill="white"/>
</g>
<defs>
<clipPath id="clip0_228_221">
<rect width="119" height="102" fill="white" transform="matrix(-1 0 0 1 119 0)"/>
</clipPath>
</defs>
</svg>
