<svg width="169" height="132" viewBox="0 0 169 132" fill="none" xmlns="http://www.w3.org/2000/svg">
<g clip-path="url(#clip0_165_112)">
<path d="M84.7071 3.69563C84.6994 4.12672 84.6061 4.55208 84.4327 4.9474C84.2592 5.34272 84.009 5.70026 83.6962 5.9996C83.3835 6.29894 83.0143 6.53422 82.6099 6.69198C82.2055 6.84975 81.7737 6.92692 81.3392 6.91908H65.715C65.6584 6.91764 65.6017 6.91619 65.5451 6.91188C65.3987 6.9025 65.2532 6.88277 65.1096 6.85282V1.36519C65.1095 1.14562 65.177 0.931261 65.3031 0.750815C65.4292 0.57037 65.6079 0.432451 65.8151 0.355522H81.4583C82.3352 0.371972 83.1697 0.732874 83.7788 1.35905C84.3878 1.98522 84.7217 2.82554 84.7071 3.69563Z" fill="#E6E6E6"/>
<path d="M167.196 7.53861e-06H66.4323C66.2152 -0.000628809 65.9999 0.0390267 65.7974 0.116927C65.4541 0.24437 65.1581 0.472851 64.9492 0.771782C64.7404 1.07071 64.6285 1.42582 64.6287 1.78957V110.834C64.6288 111.308 64.8189 111.763 65.1571 112.099C65.4953 112.434 65.954 112.623 66.4323 112.623H167.196C167.675 112.623 168.133 112.434 168.472 112.099C168.81 111.763 169 111.308 169 110.834V1.78957C169 1.315 168.81 0.859918 168.472 0.524348C168.133 0.188777 167.675 0.000179555 167.196 7.53861e-06ZM168.279 110.834C168.278 111.118 168.164 111.391 167.961 111.592C167.758 111.794 167.483 111.907 167.196 111.907H66.4323C66.1454 111.907 65.8704 111.794 65.6676 111.592C65.4647 111.391 65.3506 111.118 65.3501 110.834V1.78957C65.3506 1.50493 65.4647 1.23207 65.6676 1.0308C65.8704 0.829525 66.1454 0.716259 66.4323 0.715832H167.196C167.483 0.716259 167.758 0.829525 167.961 1.0308C168.164 1.23207 168.278 1.50493 168.279 1.78957V110.834Z" fill="#E6E6E6"/>
<path d="M113.716 37.4666C115.024 37.4666 116.083 36.4151 116.083 35.118C116.083 33.8209 115.024 32.7694 113.716 32.7694C112.409 32.7694 111.349 33.8209 111.349 35.118C111.349 36.4151 112.409 37.4666 113.716 37.4666Z" fill="#F36246"/>
<path d="M123.579 37.4666C124.887 37.4666 125.946 36.4151 125.946 35.118C125.946 33.8209 124.887 32.7694 123.579 32.7694C122.272 32.7694 121.212 33.8209 121.212 35.118C121.212 36.4151 122.272 37.4666 123.579 37.4666Z" fill="#F36246"/>
<path d="M93.9903 56.8748C95.2976 56.8748 96.3574 55.8233 96.3574 54.5262C96.3574 53.2291 95.2976 52.1776 93.9903 52.1776C92.683 52.1776 91.6232 53.2291 91.6232 54.5262C91.6232 55.8233 92.683 56.8748 93.9903 56.8748Z" fill="#F36246"/>
<path d="M103.853 56.8748C105.161 56.8748 106.22 55.8233 106.22 54.5262C106.22 53.2291 105.161 52.1776 103.853 52.1776C102.546 52.1776 101.486 53.2291 101.486 54.5262C101.486 55.8233 102.546 56.8748 103.853 56.8748Z" fill="#F36246"/>
<path d="M113.716 66.5789C115.024 66.5789 116.083 65.5274 116.083 64.2303C116.083 62.9332 115.024 61.8816 113.716 61.8816C112.409 61.8816 111.349 62.9332 111.349 64.2303C111.349 65.5274 112.409 66.5789 113.716 66.5789Z" fill="#F36246"/>
<path d="M123.579 66.5789C124.887 66.5789 125.946 65.5274 125.946 64.2303C125.946 62.9332 124.887 61.8816 123.579 61.8816C122.272 61.8816 121.212 62.9332 121.212 64.2303C121.212 65.5274 122.272 66.5789 123.579 66.5789Z" fill="#F36246"/>
<path d="M133.442 66.5789C134.75 66.5789 135.809 65.5274 135.809 64.2303C135.809 62.9332 134.75 61.8816 133.442 61.8816C132.135 61.8816 131.075 62.9332 131.075 64.2303C131.075 65.5274 132.135 66.5789 133.442 66.5789Z" fill="#F36246"/>
<path d="M74.1282 1.73524C74.0754 1.78759 74.0458 1.85859 74.0457 1.93263C74.0457 2.00667 74.0754 2.07768 74.1281 2.13004L75.3361 3.32857H72.3575C72.283 3.32878 72.2116 3.35829 72.159 3.41063C72.1064 3.46296 72.0769 3.53385 72.0769 3.60775C72.0769 3.68165 72.1064 3.75254 72.159 3.80488C72.2116 3.85721 72.283 3.88672 72.3575 3.88694H75.3361L74.1282 5.08544C74.0754 5.13779 74.0457 5.2088 74.0457 5.28285C74.0457 5.35689 74.0754 5.4279 74.1282 5.48026C74.1809 5.53262 74.2525 5.56203 74.3271 5.56203C74.4018 5.56203 74.4733 5.53262 74.5261 5.48027L76.2144 3.80517C76.2672 3.75281 76.2968 3.6818 76.2968 3.60775C76.2968 3.53371 76.2672 3.4627 76.2144 3.41034L74.5261 1.73524C74.4733 1.68288 74.4017 1.65347 74.3271 1.65347C74.2525 1.65347 74.1809 1.68288 74.1282 1.73524Z" fill="white"/>
<path d="M145.467 40.1287H81.908C81.662 40.1287 81.4626 40.0219 81.4626 39.8901C81.4626 39.7583 81.662 39.6515 81.908 39.6515H145.467C145.713 39.6515 145.913 39.7583 145.913 39.8901C145.913 40.0219 145.713 40.1287 145.467 40.1287Z" fill="#E6E6E6"/>
<path d="M145.467 29.5874H81.908C81.662 29.5874 81.4626 29.4806 81.4626 29.3488C81.4626 29.217 81.662 29.1102 81.908 29.1102H145.467C145.713 29.1102 145.913 29.217 145.913 29.3488C145.913 29.4806 145.713 29.5874 145.467 29.5874Z" fill="#E6E6E6"/>
<path d="M145.672 49.9743H81.7603C81.6965 49.9743 81.6353 49.9492 81.5902 49.9044C81.5451 49.8597 81.5198 49.799 81.5198 49.7357C81.5198 49.6724 81.5451 49.6117 81.5902 49.567C81.6353 49.5223 81.6965 49.4971 81.7603 49.4971H145.672C145.736 49.4971 145.797 49.5223 145.842 49.567C145.888 49.6117 145.913 49.6724 145.913 49.7357C145.913 49.799 145.888 49.8597 145.842 49.9044C145.797 49.9492 145.736 49.9743 145.672 49.9743Z" fill="#E6E6E6"/>
<path d="M145.672 59.5187H81.7603C81.6965 59.5187 81.6353 59.4935 81.5902 59.4488C81.5451 59.404 81.5198 59.3433 81.5198 59.28C81.5198 59.2168 81.5451 59.1561 81.5902 59.1113C81.6353 59.0666 81.6965 59.0414 81.7603 59.0414H145.672C145.736 59.0414 145.797 59.0666 145.842 59.1113C145.888 59.1561 145.913 59.2168 145.913 59.28C145.913 59.3433 145.888 59.404 145.842 59.4488C145.797 59.4935 145.736 59.5187 145.672 59.5187Z" fill="#E6E6E6"/>
<path d="M145.672 69.3016H81.7603C81.6965 69.3016 81.6353 69.2765 81.5902 69.2317C81.5451 69.187 81.5198 69.1263 81.5198 69.063C81.5198 68.9997 81.5451 68.939 81.5902 68.8943C81.6353 68.8495 81.6965 68.8244 81.7603 68.8244H145.672C145.736 68.8244 145.797 68.8495 145.842 68.8943C145.888 68.939 145.913 68.9997 145.913 69.063C145.913 69.1263 145.888 69.187 145.842 69.2317C145.797 69.2765 145.736 69.3016 145.672 69.3016Z" fill="#E6E6E6"/>
<path d="M138.218 68.8099V29.4967C138.218 29.415 138.325 29.3488 138.458 29.3488C138.591 29.3488 138.699 29.415 138.699 29.4967V68.8099C138.699 68.8916 138.591 68.9578 138.458 68.9578C138.325 68.9578 138.218 68.8916 138.218 68.8099Z" fill="#E6E6E6"/>
<path d="M128.358 68.8099V29.4967C128.358 29.415 128.465 29.3488 128.598 29.3488C128.731 29.3488 128.839 29.415 128.839 29.4967V68.8099C128.839 68.8916 128.731 68.9578 128.598 68.9578C128.465 68.9578 128.358 68.8916 128.358 68.8099Z" fill="#E6E6E6"/>
<path d="M118.498 68.8099V29.4967C118.498 29.415 118.605 29.3488 118.738 29.3488C118.871 29.3488 118.979 29.415 118.979 29.4967V68.8099C118.979 68.8916 118.871 68.9578 118.738 68.9578C118.605 68.9578 118.498 68.8916 118.498 68.8099Z" fill="#E6E6E6"/>
<path d="M108.878 68.8099V29.4967C108.878 29.415 108.986 29.3488 109.119 29.3488C109.251 29.3488 109.359 29.415 109.359 29.4967V68.8099C109.359 68.8916 109.251 68.9578 109.119 68.9578C108.986 68.9578 108.878 68.8916 108.878 68.8099Z" fill="#E6E6E6"/>
<path d="M98.7778 78.794V29.5342C98.7915 29.4812 98.8225 29.4342 98.866 29.4006C98.9096 29.367 98.9632 29.3488 99.0183 29.3488C99.0735 29.3488 99.127 29.367 99.1706 29.4006C99.2141 29.4342 99.2452 29.4812 99.2588 29.5342V78.794C99.2452 78.847 99.2141 78.894 99.1706 78.9275C99.127 78.9611 99.0735 78.9793 99.0183 78.9793C98.9632 78.9793 98.9096 78.9611 98.866 78.9275C98.8225 78.894 98.7915 78.847 98.7778 78.794Z" fill="#E6E6E6"/>
<path d="M88.6774 78.794V29.5342C88.691 29.4812 88.722 29.4342 88.7656 29.4006C88.8091 29.367 88.8627 29.3488 88.9179 29.3488C88.973 29.3488 89.0266 29.367 89.0701 29.4006C89.1137 29.4342 89.1447 29.4812 89.1583 29.5342V78.794C89.1447 78.847 89.1137 78.894 89.0701 78.9275C89.0266 78.9611 88.973 78.9793 88.9179 78.9793C88.8627 78.9793 88.8091 78.9611 88.7656 78.9275C88.722 78.894 88.691 78.847 88.6774 78.794Z" fill="#E6E6E6"/>
<path d="M81.7603 79.0847C81.6965 79.0848 81.6353 79.0598 81.5901 79.0151C81.5449 78.9705 81.5194 78.9099 81.5193 78.8466C81.5191 78.7833 81.5444 78.7225 81.5894 78.6777C81.6344 78.6329 81.6955 78.6076 81.7592 78.6074L106.232 78.5021C106.295 78.5034 106.356 78.5288 106.401 78.573C106.445 78.6173 106.472 78.677 106.473 78.7398C106.474 78.7711 106.467 78.8022 106.455 78.8312C106.444 78.8602 106.426 78.8865 106.404 78.9088C106.381 78.931 106.355 78.9487 106.326 78.9608C106.297 78.9729 106.266 78.9792 106.234 78.9793L81.7614 79.0847H81.7603Z" fill="#E6E6E6"/>
<path d="M99.6524 19.1312C99.5886 19.1312 99.5274 19.1061 99.4823 19.0614C99.4372 19.0167 99.4118 18.956 99.4117 18.8928C99.4117 18.8295 99.437 18.7688 99.4821 18.724C99.5271 18.6792 99.5883 18.654 99.6521 18.654L133.976 18.6114H133.976C134.04 18.6114 134.101 18.6365 134.146 18.6812C134.191 18.7259 134.217 18.7866 134.217 18.8499C134.217 18.9132 134.191 18.9739 134.146 19.0186C134.101 19.0634 134.04 19.0886 133.976 19.0887L99.6528 19.1312H99.6524Z" fill="#E6E6E6"/>
<path d="M111.275 96.9234C110.322 96.9234 109.39 96.643 108.598 96.1177C107.805 95.5924 107.188 94.8458 106.823 93.9722C106.458 93.0987 106.363 92.1375 106.549 91.2101C106.735 90.2828 107.194 89.4309 107.868 88.7624C108.541 88.0938 109.4 87.6385 110.335 87.454C111.269 87.2696 112.238 87.3642 113.118 87.7261C113.999 88.0879 114.751 88.7006 115.281 89.4868C115.81 90.273 116.093 91.1973 116.093 92.1428C116.093 92.7706 115.968 93.3922 115.726 93.9722C115.484 94.5522 115.129 95.0793 114.682 95.5232C114.234 95.9671 113.703 96.3192 113.118 96.5595C112.534 96.7997 111.907 96.9234 111.275 96.9234Z" fill="#E6E6E6"/>
<path d="M113.176 91.6712H111.75V90.2565C111.75 90.1314 111.7 90.0114 111.611 89.923C111.521 89.8346 111.401 89.7849 111.275 89.7849C111.148 89.7849 111.028 89.8346 110.938 89.923C110.849 90.0114 110.799 90.1314 110.799 90.2565V91.6712H109.373C109.247 91.6712 109.126 91.7209 109.037 91.8093C108.948 91.8978 108.898 92.0177 108.898 92.1428C108.898 92.2679 108.948 92.3878 109.037 92.4762C109.126 92.5647 109.247 92.6144 109.373 92.6144H110.799V94.0291C110.799 94.0911 110.811 94.1526 110.835 94.2099C110.859 94.2672 110.894 94.3193 110.938 94.3632C110.982 94.4071 111.035 94.442 111.092 94.4658C111.15 94.4895 111.212 94.5017 111.275 94.5017C111.337 94.5017 111.399 94.4895 111.457 94.4658C111.514 94.442 111.567 94.4071 111.611 94.3632C111.655 94.3193 111.69 94.2672 111.714 94.2099C111.738 94.1526 111.75 94.0911 111.75 94.0291V92.6144H113.176C113.302 92.6144 113.423 92.5647 113.512 92.4762C113.601 92.3878 113.651 92.2679 113.651 92.1428C113.651 92.0177 113.601 91.8978 113.512 91.8093C113.423 91.7209 113.302 91.6712 113.176 91.6712Z" fill="white"/>
<path d="M122.337 96.9234C121.384 96.9234 120.452 96.643 119.66 96.1177C118.868 95.5924 118.25 94.8458 117.885 93.9722C117.521 93.0987 117.425 92.1375 117.611 91.2101C117.797 90.2828 118.256 89.4309 118.93 88.7624C119.604 88.0938 120.462 87.6385 121.397 87.454C122.332 87.2696 123.3 87.3642 124.181 87.7261C125.061 88.0879 125.814 88.7006 126.343 89.4868C126.873 90.273 127.155 91.1973 127.155 92.1428C127.155 92.7706 127.031 93.3922 126.788 93.9722C126.546 94.5522 126.191 95.0793 125.744 95.5232C125.297 95.9671 124.765 96.3192 124.181 96.5595C123.596 96.7997 122.97 96.9234 122.337 96.9234Z" fill="#E6E6E6"/>
<path d="M124.776 94.1771L123.521 92.7192C123.814 92.3067 123.942 91.7999 123.878 91.2987C123.814 90.7975 123.564 90.3381 123.176 90.011C122.788 89.6838 122.291 89.5126 121.782 89.531C121.273 89.5494 120.789 89.7561 120.426 90.1104C120.063 90.4646 119.847 90.9409 119.82 91.4454C119.794 91.9499 119.958 92.446 120.281 92.8363C120.605 93.2266 121.064 93.4826 121.568 93.5541C122.072 93.6256 122.584 93.5073 123.005 93.2225L124.227 94.642C124.289 94.7136 124.378 94.7579 124.473 94.7651C124.568 94.7723 124.662 94.7418 124.734 94.6804C124.807 94.6189 124.852 94.5315 124.86 94.4372C124.867 94.3429 124.837 94.2494 124.776 94.1771ZM120.533 91.5463C120.533 91.2867 120.611 91.033 120.756 90.8172C120.902 90.6014 121.108 90.4331 121.35 90.3338C121.591 90.2345 121.857 90.2085 122.114 90.2591C122.371 90.3098 122.606 90.4348 122.791 90.6183C122.976 90.8018 123.102 91.0357 123.153 91.2902C123.204 91.5448 123.178 91.8087 123.078 92.0485C122.978 92.2883 122.808 92.4932 122.591 92.6374C122.373 92.7816 122.118 92.8586 121.856 92.8586C121.505 92.8582 121.169 92.7198 120.921 92.4738C120.673 92.2278 120.534 91.8942 120.533 91.5463Z" fill="white"/>
<path d="M99.6524 97.3948C99.5886 97.3949 99.5274 97.3697 99.4823 97.325C99.4372 97.2803 99.4118 97.2197 99.4117 97.1564C99.4117 97.0931 99.437 97.0324 99.4821 96.9876C99.5271 96.9428 99.5883 96.9176 99.6521 96.9176L133.976 96.8749H133.976C134.04 96.8749 134.101 96.9 134.146 96.9447C134.191 96.9894 134.217 97.0501 134.217 97.1134C134.217 97.1767 134.191 97.2374 134.146 97.2821C134.101 97.3269 134.04 97.3521 133.976 97.3522L99.6528 97.3948H99.6524Z" fill="#E6E6E6"/>
<path d="M55.7283 128.613L58.7962 128.612L60.2557 116.872L55.7278 116.872L55.7283 128.613Z" fill="#FFB6B6"/>
<path d="M54.947 127.619V131.563H64.8383V131.439C64.8381 130.426 64.4324 129.454 63.7104 128.738C62.9884 128.021 62.0091 127.619 60.9881 127.619L59.1796 126.258L59.0858 126.297L55.8104 127.619H54.947Z" fill="#2F2E41"/>
<path d="M28.009 124.655L30.7547 126.013L37.3395 116.152L33.287 114.148L28.009 124.655Z" fill="#FFB6B6"/>
<path d="M25.9827 126.95L34.835 131.326L34.8903 131.217C35.1162 130.768 35.2506 130.279 35.2861 129.779C35.3215 129.278 35.2572 128.776 35.0969 128.3C34.9365 127.825 34.6833 127.385 34.3515 127.006C34.0198 126.628 33.6161 126.318 33.1636 126.094L32.156 124.078L32.0501 124.07L28.5294 123.801L28.4573 123.765L27.755 123.419L25.9827 126.95Z" fill="#2F2E41"/>
<path d="M57.8091 65.5089L40.8929 66.0964L40.7751 65.9264C40.7751 65.9264 39.3322 69.2669 39.3322 72.1302C39.3322 73.0822 39.9995 79.3087 39.6602 80.4867C39.6181 80.6332 39.9083 80.9923 39.8131 81.6745C39.7514 82.1172 39.4105 81.7767 39.3322 82.3904C39.2759 82.8308 39.8759 83.0739 39.8131 83.5834C39.7446 84.14 38.9193 85.943 38.845 86.5621C38.0541 93.1539 37.0011 102.703 37.0011 102.703C37.0011 102.703 32.7717 113.943 31.8771 114.125C30.3753 114.432 29.3615 117.141 30.1937 117.704C30.5899 117.973 35.7115 119.778 35.7115 119.778C35.9929 119.828 36.8733 119.39 36.3125 118.354C36.2092 118.163 36.825 118.649 36.9273 118.42C37.0361 118.177 36.8225 117.211 36.9471 116.942C38.0664 114.521 39.7849 111.167 41.4134 109.445C43.8197 106.901 45.3435 103.66 45.7626 100.195L49.4979 79.6453L50.7782 85.4081L51.8375 86.4467L51.5469 88.8684L51.597 91.2189L54.2424 101.002C54.2424 101.002 54.6391 119.272 54.0019 119.852C53.6568 120.166 52.1923 124.037 54.9638 124.385L59.9992 124C59.9992 124 60.6777 122.581 60.3384 122.077C59.9992 121.572 60.0196 121.709 60.4334 120.883C60.8473 120.057 60.6777 118.657 60.6777 118.657C61.3373 112.078 61.5975 105.465 61.457 98.8543C61.2046 87.9969 59.6749 75.5239 59.6749 75.2697C59.6621 75.0099 59.7103 74.7508 59.8158 74.5126V73.8273L59.166 71.399L57.8091 65.5089Z" fill="#2F2E41"/>
<path d="M35.9087 71.6137C35.7668 71.3732 35.6798 71.1048 35.6539 70.8274C35.6279 70.5499 35.6635 70.2702 35.7583 70.0079C35.8531 69.7456 36.0047 69.5071 36.2024 69.3092C36.4001 69.1113 36.6391 68.9588 36.9027 68.8625L36.7811 56.8029L39.7791 58.6847L39.4345 70.1146C39.5682 70.5645 39.531 71.0476 39.3297 71.4721C39.1285 71.8966 38.7773 72.2332 38.3427 72.418C37.9081 72.6028 37.4203 72.623 36.9717 72.4747C36.5231 72.3265 36.1448 72.0202 35.9087 71.6137Z" fill="#FFB8B8"/>
<path d="M36.593 66.5583L36.8481 66.5461L36.8786 66.5469L37.8227 66.5436L39.3778 66.5403L39.4904 66.5387L39.5411 66.5483L40.072 66.6399L40.094 66.4986L41.1288 64.5374L41.9244 63.4516L41.6349 62.1722L41.064 61.4667L42.0337 60.3009L42.1562 59.7251L42.9678 55.9383L45.6579 43.3782L45.6581 43.3707L45.7146 43.1042L46.5895 39.0239L46.32 37.9979L46.0196 36.8714C45.8275 36.1563 45.3822 35.5338 44.7652 35.1178C44.4974 34.938 44.2027 34.8014 43.8919 34.7131C43.4958 34.5967 43.0797 34.5627 42.6697 34.6133L42.6651 34.6147C42.4325 34.6434 42.2039 34.6982 41.9837 34.7781L41.8961 34.812C41.7742 34.8611 41.6556 34.9177 41.5409 34.9817C41.1856 35.1777 40.8731 35.442 40.6216 35.759C40.3702 36.076 40.1848 36.4395 40.0763 36.8282L37.2259 39.9785L36.7245 41.7611L36.5633 42.3336L36.0466 45.3854L36.0543 57.3953L35.9623 57.9393L35.8315 60.9544L36.3427 61.6455L35.7651 62.4834L35.7453 62.9433L35.7415 63.0617L36.5128 63.8389L36.562 65.5151L36.593 66.5583Z" fill="#3F3D56"/>
<path d="M39.3774 69.435C43.6487 70.1679 46.5129 69.8888 48.2755 67.2875C50.575 64.3823 54.7569 67.8127 58.2852 69.0882L58.7037 68.6396L59.4155 67.8785L58.7614 67.1435L59.4155 65.7262L58.8696 63.9772L58.1722 63.8507L58.3598 62.3451L58.6532 61.4647L57.7922 60.5269L57.0611 58.1862L57.5878 53.2876C58.3085 46.5729 56.912 39.8018 53.5909 33.9078L51.5925 32.1278L50.7628 31.3881L49.6493 29.3265L48.4733 29.4625L45.2893 29.8276L45.1811 30.0853L44.3995 31.956L41.5602 34.9821C41.1586 35.4101 40.8535 35.918 40.6651 36.4721C40.4767 37.0262 40.4093 37.6137 40.4675 38.1956L40.5493 39.0116L40.6094 39.5986L40.8932 42.4237L42.0499 53.9652L42.1365 54.5784L43.0672 61.2141C41.5545 62.6649 41.4625 62.3483 40.8204 64.9015C40.7482 65.1854 39.9113 65.8177 39.8584 66.0945C39.7839 66.4858 39.3774 69.435 39.3774 69.435Z" fill="#3F3D56"/>
<path d="M48.0497 28.1104C51.104 28.1104 53.58 25.6537 53.58 22.6233C53.58 19.5928 51.104 17.1362 48.0497 17.1362C44.9954 17.1362 42.5194 19.5928 42.5194 22.6233C42.5194 25.6537 44.9954 28.1104 48.0497 28.1104Z" fill="#FFB6B6"/>
<path d="M42.2637 18.4927C43.006 17.7259 44.1918 17.3477 45.1987 17.7115C45.4239 17.0723 45.8215 16.5065 46.3483 16.0759C46.8751 15.6453 47.5108 15.3664 48.1863 15.2695C48.8618 15.1726 49.5512 15.2614 50.1793 15.5263C50.8075 15.7912 51.3504 16.2219 51.7488 16.7718C51.931 16.6906 52.1313 16.6574 52.3302 16.6756C52.5291 16.6937 52.7199 16.7625 52.8841 16.8753C53.2102 17.1053 53.4729 17.4129 53.6482 17.7698C54.1003 18.622 54.311 19.58 54.258 20.5417C54.2049 21.5033 53.89 22.4327 53.3468 23.2309C53.5632 22.7973 52.9547 23.5441 52.3617 23.3485C51.8522 23.216 49.7596 21.8846 49.2374 21.952C48.7152 22.0193 48.5458 21.6014 48.0349 21.4747C47.5346 21.316 46.2573 23.3682 46.0014 24.7261C45.9529 24.9835 45.8351 25.3032 45.5713 25.309C45.2464 25.3163 45.1491 24.8546 44.8751 24.6813C44.7459 24.6161 44.5963 24.6032 44.4578 24.6453C44.3192 24.6874 44.2026 24.7813 44.1324 24.9071C44.0683 25.0364 44.0363 25.179 44.0391 25.323C44.0418 25.467 44.0791 25.6083 44.148 25.7351C44.288 25.9872 44.4681 26.2152 44.6814 26.4103L44.5395 26.4876C44.3998 26.587 44.2295 26.635 44.058 26.6234C43.8865 26.6118 43.7244 26.5415 43.5995 26.4243C43.0713 26.6607 41.6347 25.3274 41.8254 24.5207C41.4243 23.5318 41.205 22.4797 41.1778 21.4141C41.1556 20.3393 41.5435 19.2959 42.2637 18.4927Z" fill="#2F2E41"/>
<path d="M82.8318 51.1999C82.5639 51.2837 82.2808 51.3082 82.0024 51.2716C81.724 51.2351 81.4571 51.1384 81.2204 50.9884C80.9837 50.8384 80.783 50.6388 80.6325 50.4035C80.482 50.1683 80.3853 49.9031 80.3492 49.6268L68.4718 47.0636L70.9874 44.5817L82.1424 47.4559C82.6143 47.4266 83.0807 47.57 83.4531 47.859C83.8256 48.1481 84.0782 48.5626 84.1632 49.0241C84.2482 49.4856 84.1596 49.962 83.9142 50.363C83.6688 50.764 83.2837 51.0618 82.8318 51.1999Z" fill="#FFB8B8"/>
<path d="M50.7335 34.1874C50.0451 34.2123 49.3846 34.4642 48.8566 34.9031C48.5644 35.1435 48.3207 35.4365 48.1385 35.7669C47.9379 36.1252 47.8128 36.5202 47.7707 36.9279L47.7708 36.9303C47.7093 37.5308 47.8283 38.1359 48.113 38.6694C48.3977 39.2028 48.8352 39.6406 49.3704 39.9276L53.2831 42.0314L53.7787 42.2973C57.1124 45.6686 62.7339 47.4309 69.2008 48.6L72.9187 49.6091L74.1686 49.1489L74.4712 50.3279L75.7158 50.3683L76.3925 50.2288L77.8085 49.6778L78.0788 49.1382L78.0787 49.1358L78.6598 46.5779L78.6638 46.561L78.6636 46.5586L78.7991 45.9734L78.0006 45.6068L77.306 44.6862L76.0499 44.7112L74.9044 44.8101L74.5688 44.0312L60.0534 37.3669L57.0479 35.9856L57.0405 35.9812L56.8973 35.9146L52.9765 34.1147L51.909 34.1483L50.7335 34.1874Z" fill="#3F3D56"/>
<path d="M82.4529 54.1692C83.7603 54.1692 84.8201 53.1177 84.8201 51.8206C84.8201 50.5235 83.7603 49.4719 82.4529 49.4719C81.1456 49.4719 80.0858 50.5235 80.0858 51.8206C80.0858 53.1177 81.1456 54.1692 82.4529 54.1692Z" fill="#F36246"/>
<path d="M14.5959 130.354C12.8592 130.506 11.1103 130.271 9.47684 129.666C7.84339 129.062 6.36667 128.103 5.15455 126.86C3.56961 125.202 2.48197 123.068 1.43011 121.004C1.12392 120.403 0.80742 119.782 0.485427 119.187C0.12644 118.538 -0.0284929 117.797 0.0405869 117.06C0.109667 116.323 0.399593 115.624 0.873019 115.051C1.32671 114.48 1.94262 114.055 2.6414 113.834C3.34018 113.612 4.0898 113.604 4.79368 113.809L4.94717 113.853L6.32857 119.201C6.53465 118.403 6.97699 116.606 7.25632 114.845L7.27979 114.697L7.41735 114.758C8.85974 115.391 10.216 116.202 11.4542 117.172C13.6477 118.917 15.4317 121.116 16.6822 123.615C17.9328 126.114 18.6199 128.853 18.6958 131.642L18.6995 131.808L14.5959 130.354Z" fill="#F2F2F2"/>
<path d="M67.3221 131.927L0.286345 132C0.210402 132 0.137567 131.97 0.0838674 131.917C0.0301676 131.863 0 131.791 0 131.716C0 131.641 0.0301676 131.568 0.0838674 131.515C0.137567 131.462 0.210402 131.432 0.286345 131.432L67.3221 131.358C67.3979 131.359 67.4705 131.389 67.5241 131.442C67.5776 131.495 67.6076 131.567 67.6076 131.643C67.6076 131.718 67.5776 131.79 67.5241 131.843C67.4705 131.896 67.3979 131.926 67.3221 131.927Z" fill="#CACACA"/>
<path d="M123.187 15.9439H110.441C110.154 15.9439 109.879 15.8308 109.676 15.6294C109.473 15.4281 109.359 15.155 109.359 14.8702C109.359 14.5854 109.473 14.3123 109.676 14.111C109.879 13.9096 110.154 13.7965 110.441 13.7965H123.187C123.474 13.7965 123.749 13.9096 123.952 14.111C124.155 14.3123 124.269 14.5854 124.269 14.8702C124.269 15.155 124.155 15.4281 123.952 15.6294C123.749 15.8308 123.474 15.9439 123.187 15.9439Z" fill="#E6E6E6"/>
<path d="M163.333 6.82588C162.809 6.82588 162.296 6.67169 161.861 6.38282C161.425 6.09395 161.085 5.68337 160.885 5.203C160.684 4.72263 160.632 4.19404 160.734 3.68408C160.836 3.17412 161.088 2.7057 161.459 2.33804C161.83 1.97038 162.302 1.72 162.816 1.61856C163.33 1.51712 163.862 1.56919 164.347 1.76816C164.831 1.96714 165.245 2.30409 165.536 2.73642C165.827 3.16874 165.982 3.67701 165.982 4.19696C165.982 4.89419 165.703 5.56287 165.206 6.05588C164.709 6.5489 164.035 6.82588 163.333 6.82588Z" fill="#E6E6E6"/>
</g>
<defs>
<clipPath id="clip0_165_112">
<rect width="169" height="132" fill="white"/>
</clipPath>
</defs>
</svg>
