<svg width="172" height="131" viewBox="0 0 172 131" fill="none" xmlns="http://www.w3.org/2000/svg">
<g clip-path="url(#clip0_165_159)">
<path d="M83.6546 18.5032C81.9338 20.8563 80.6102 23.4746 79.7362 26.2544C78.9561 28.6807 78.3737 31.166 77.9946 33.686C77.8093 33.613 77.6267 33.5345 77.4469 33.4476C75.7947 32.6471 74.4632 31.3109 73.67 29.6572C72.8769 28.0036 72.6689 26.1302 73.0801 24.3432C73.4913 22.5563 74.4973 20.9614 75.9338 19.8191C77.3704 18.6768 79.1525 18.0547 80.9889 18.0545C81.6789 18.0533 82.3662 18.141 83.0338 18.3153C83.2445 18.3685 83.4523 18.4302 83.6546 18.5032Z" fill="#FF6584"/>
<path d="M8.46505 112.163C9.02321 107.682 11.8048 103.267 16.0852 101.809C14.3972 106.421 14.3975 111.481 16.0863 116.093C16.744 117.869 17.6608 119.777 17.0421 121.567C16.6572 122.681 15.7155 123.533 14.6628 124.066C13.6101 124.599 12.4419 124.853 11.2882 125.102L11.0612 125.289C9.22972 121.16 7.90689 116.644 8.46505 112.163Z" fill="#E6E6E6"/>
<path d="M16.1278 101.894C13.6351 104.682 12.0858 108.184 11.7 111.902C11.6027 112.701 11.6321 113.51 11.7872 114.3C11.9632 115.064 12.341 115.767 12.8814 116.337C13.3745 116.878 13.9417 117.374 14.2945 118.025C14.4702 118.361 14.5727 118.73 14.5954 119.109C14.6181 119.487 14.5604 119.866 14.4261 120.221C14.1146 121.113 13.5006 121.84 12.8754 122.53C12.1812 123.296 11.448 124.081 11.153 125.097C11.1172 125.221 10.928 125.158 10.9637 125.035C11.4771 123.267 13.1958 122.263 14.0154 120.671C14.3979 119.928 14.5585 119.066 14.1999 118.282C13.8864 117.596 13.3019 117.083 12.7978 116.54C12.2626 115.992 11.8697 115.322 11.6537 114.588C11.4588 113.809 11.3982 113.002 11.4744 112.202C11.6173 110.4 12.0432 108.63 12.7365 106.96C13.5171 105.048 14.6195 103.285 15.996 101.745C16.0812 101.649 16.2125 101.799 16.1278 101.894Z" fill="white"/>
<path d="M11.7535 110.697C11.1375 110.548 10.5948 110.185 10.2221 109.673C9.84954 109.161 9.67133 108.534 9.71935 107.903C9.72951 107.775 9.92867 107.785 9.91851 107.913C9.8727 108.5 10.0388 109.085 10.3867 109.561C10.7347 110.037 11.2416 110.373 11.816 110.508C11.9408 110.538 11.8776 110.727 11.7535 110.697Z" fill="white"/>
<path d="M12.5951 116.095C13.7077 115.432 14.5289 114.375 14.8952 113.134C14.9314 113.011 15.1206 113.073 15.0845 113.196C14.7009 114.487 13.844 115.585 12.6848 116.273C12.5743 116.339 12.4852 116.16 12.5951 116.095Z" fill="white"/>
<path d="M13.7019 105.237C13.9282 105.344 14.1776 105.394 14.4278 105.381C14.678 105.369 14.9211 105.294 15.1354 105.164C15.245 105.097 15.3339 105.276 15.225 105.342C14.9877 105.484 14.719 105.566 14.4426 105.581C14.1662 105.595 13.8905 105.542 13.6394 105.426C13.6148 105.417 13.5946 105.399 13.5828 105.376C13.571 105.352 13.5686 105.325 13.576 105.3C13.5844 105.275 13.6023 105.255 13.6259 105.243C13.6495 105.231 13.6768 105.229 13.7019 105.237Z" fill="white"/>
<path d="M29.1328 109.813C29.0655 109.856 28.9982 109.9 28.9309 109.945C28.0294 110.537 27.1776 111.201 26.3838 111.931C26.3215 111.986 26.2593 112.043 26.1987 112.1C24.3051 113.878 22.7586 115.992 21.6378 118.334C21.1927 119.266 20.8193 120.231 20.5207 121.219C20.1085 122.585 19.7704 124.098 18.9544 125.215C18.8706 125.333 18.7796 125.445 18.6819 125.551H11.308C11.2912 125.543 11.2744 125.536 11.2575 125.528L10.9631 125.541C10.975 125.489 10.9883 125.435 11.0002 125.383C11.0069 125.353 11.0153 125.323 11.022 125.292C11.027 125.272 11.0321 125.252 11.0355 125.234C11.0372 125.227 11.0389 125.22 11.0405 125.215C11.0439 125.197 11.049 125.18 11.0524 125.163C11.1264 124.862 11.2026 124.562 11.2811 124.261C11.2811 124.259 11.2811 124.259 11.2828 124.258C11.859 121.961 12.7061 119.741 13.8063 117.643C13.84 117.581 13.8736 117.517 13.9107 117.455C14.4201 116.527 15.0047 115.641 15.6587 114.808C16.0182 114.353 16.4006 113.916 16.8044 113.5C17.8497 112.425 19.0579 111.522 20.3844 110.822C23.0292 109.428 26.091 108.894 28.9175 109.746C28.9898 109.767 29.0605 109.789 29.1328 109.813Z" fill="#E6E6E6"/>
<path d="M29.1161 109.906C25.4442 110.634 22.0955 112.499 19.5455 115.235C18.9861 115.815 18.5216 116.479 18.1692 117.202C17.8488 117.918 17.7262 118.707 17.8143 119.487C17.8819 120.215 18.0354 120.952 17.9245 121.684C17.8621 122.058 17.7212 122.415 17.5112 122.73C17.3011 123.046 17.0266 123.314 16.7056 123.516C15.9189 124.041 14.9902 124.253 14.0747 124.428C13.0583 124.623 11.9995 124.809 11.1512 125.443C11.0484 125.519 10.9351 125.356 11.0377 125.279C12.5136 124.176 14.4914 124.408 16.106 123.629C16.8593 123.266 17.5076 122.674 17.6943 121.832C17.8575 121.096 17.6998 120.336 17.625 119.599C17.5279 118.84 17.6184 118.068 17.8886 117.352C18.203 116.613 18.6411 115.932 19.1841 115.34C20.3853 113.986 21.7923 112.83 23.3534 111.912C25.1293 110.856 27.0731 110.11 29.1008 109.708C29.2263 109.683 29.2408 109.882 29.1161 109.906Z" fill="white"/>
<path d="M20.3146 114.306C19.9129 113.817 19.6984 113.2 19.7096 112.568C19.7209 111.935 19.957 111.327 20.3759 110.852C20.461 110.756 20.6141 110.884 20.5289 110.98C20.138 111.421 19.9181 111.988 19.9089 112.577C19.8996 113.166 20.1017 113.739 20.4785 114.193C20.5603 114.291 20.3959 114.404 20.3146 114.306Z" fill="white"/>
<path d="M17.7314 119.122C19.0196 119.261 20.3131 118.91 21.3538 118.14C21.4569 118.063 21.5703 118.227 21.4673 118.303C20.3828 119.103 19.036 119.465 17.6958 119.318C17.5681 119.303 17.6044 119.108 17.7314 119.122Z" fill="white"/>
<path d="M25.1633 111.117C25.2792 111.339 25.4485 111.529 25.6559 111.669C25.8633 111.809 26.1024 111.896 26.3516 111.921C26.4795 111.934 26.443 112.129 26.316 112.117C26.0408 112.088 25.7769 111.992 25.5474 111.837C25.3178 111.683 25.1297 111.474 24.9994 111.231C24.9852 111.209 24.9799 111.182 24.9846 111.156C24.9892 111.131 25.0036 111.108 25.0246 111.092C25.0464 111.077 25.0731 111.072 25.0991 111.076C25.1251 111.081 25.1481 111.096 25.1633 111.117Z" fill="white"/>
<path d="M86.2649 114.924C83.2009 111.603 81.6242 106.63 83.2763 102.427C85.7103 106.694 89.5777 109.964 94.1941 111.658C95.9768 112.305 98.0271 112.839 98.9955 114.468C99.598 115.481 99.6407 116.749 99.3677 117.896C99.0946 119.042 98.5336 120.096 97.9782 121.136L97.9747 121.43C93.6354 120.157 89.329 118.246 86.2649 114.924Z" fill="#E6E6E6"/>
<path d="M83.3687 102.449C83.8888 106.151 85.5638 109.594 88.1559 112.291C88.7036 112.881 89.341 113.382 90.0448 113.774C90.7428 114.134 91.5246 114.301 92.309 114.257C93.0412 114.231 93.7871 114.12 94.5128 114.272C94.8832 114.355 95.2317 114.516 95.5355 114.743C95.8394 114.97 96.0916 115.259 96.2758 115.591C96.7563 116.405 96.9152 117.342 97.0386 118.265C97.1757 119.289 97.3018 120.355 97.8876 121.236C97.9586 121.343 97.7885 121.447 97.7176 121.34C96.6984 119.807 97.0419 117.848 96.3548 116.195C96.0342 115.423 95.4787 114.743 94.6476 114.51C93.9208 114.305 93.1515 114.42 92.4104 114.452C91.6459 114.506 90.8797 114.372 90.179 114.062C89.4574 113.707 88.8017 113.232 88.2398 112.657C86.9543 111.383 85.8773 109.915 85.0485 108.307C84.0923 106.477 83.4568 104.497 83.1693 102.453C83.1516 102.327 83.351 102.324 83.3687 102.449Z" fill="white"/>
<path d="M87.2698 111.472C86.7576 111.844 86.1293 112.023 85.4972 111.976C84.8651 111.929 84.2704 111.659 83.8191 111.215C83.7281 111.125 83.8643 110.979 83.9554 111.07C84.3748 111.484 84.9289 111.736 85.5176 111.778C86.1063 111.821 86.6909 111.652 87.1658 111.302C87.2691 111.226 87.3725 111.396 87.2698 111.472Z" fill="white"/>
<path d="M91.9392 114.319C92.1514 113.043 91.874 111.734 91.1623 110.653C91.0917 110.546 91.2618 110.442 91.3324 110.549C92.0708 111.675 92.3568 113.038 92.1331 114.366C92.1116 114.492 91.9179 114.445 91.9392 114.319Z" fill="white"/>
<path d="M84.3558 106.458C84.5841 106.355 84.7832 106.197 84.9352 105.998C85.0872 105.799 85.1874 105.566 85.2268 105.319C85.2466 105.192 85.4402 105.24 85.4206 105.366C85.3758 105.638 85.2649 105.896 85.0974 106.116C84.9299 106.336 84.711 106.512 84.4599 106.628C84.4371 106.641 84.4103 106.644 84.3848 106.638C84.3594 106.632 84.3372 106.617 84.3228 106.595C84.3092 106.572 84.305 106.545 84.3111 106.52C84.3173 106.494 84.3334 106.472 84.3558 106.458Z" fill="white"/>
<path d="M97.8264 97.6599C97.8163 97.7394 97.8062 97.8189 97.7973 97.8995C97.667 98.9688 97.6239 100.047 97.6685 101.123C97.6706 101.206 97.674 101.291 97.6785 101.374C97.8135 103.966 98.4294 106.51 99.4947 108.877C99.9195 109.819 100.415 110.727 100.978 111.593C101.755 112.79 102.694 114.026 103.02 115.369C103.055 115.509 103.082 115.651 103.1 115.794L98.3345 121.411C98.3173 121.419 98.3012 121.427 98.2839 121.435L98.1039 121.668C98.0718 121.625 98.0394 121.58 98.0072 121.537C97.9885 121.513 97.9708 121.487 97.952 121.462C97.9399 121.445 97.9277 121.428 97.9158 121.414C97.9117 121.408 97.9077 121.403 97.9049 121.398C97.8929 121.384 97.8834 121.369 97.8727 121.355C97.6908 121.105 97.5103 120.852 97.3312 120.598C97.3299 120.597 97.33 120.597 97.3297 120.595C95.9468 118.671 94.7973 116.591 93.9053 114.397C93.8796 114.331 93.8525 114.264 93.829 114.196C93.4487 113.208 93.1499 112.19 92.9356 111.153C92.8201 110.585 92.7335 110.012 92.6761 109.435C92.5306 107.944 92.6209 106.44 92.9436 104.977C93.5875 102.061 95.1582 99.3834 97.6359 97.7805C97.6993 97.7396 97.7617 97.6998 97.8264 97.6599Z" fill="#E6E6E6"/>
<path d="M97.8871 97.7329C96.0704 101.001 95.3311 104.757 95.7745 108.469C95.8557 109.269 96.0628 110.052 96.3883 110.788C96.7285 111.495 97.2521 112.098 97.9047 112.535C98.505 112.954 99.1677 113.314 99.6555 113.871C99.9009 114.161 100.082 114.498 100.188 114.862C100.293 115.226 100.321 115.609 100.268 115.984C100.161 116.923 99.7221 117.767 99.2644 118.578C98.7562 119.478 98.2141 120.405 98.1503 121.461C98.1426 121.589 97.9442 121.569 97.9519 121.441C98.0629 119.604 99.5181 118.247 99.9666 116.514C100.176 115.705 100.142 114.829 99.6197 114.142C99.1626 113.542 98.4796 113.171 97.868 112.752C97.2251 112.335 96.6942 111.768 96.3215 111.099C95.9596 110.382 95.7227 109.608 95.6207 108.811C95.3626 107.021 95.3879 105.202 95.6959 103.42C96.036 101.384 96.7225 99.4211 97.7256 97.6163C97.7877 97.5046 97.9489 97.622 97.8871 97.7329Z" fill="white"/>
<path d="M95.5611 107.282C94.9273 107.272 94.3178 107.037 93.8415 106.619C93.3651 106.202 93.0529 105.629 92.9607 105.003C92.9424 104.876 93.1389 104.842 93.1571 104.969C93.242 105.552 93.5328 106.086 93.9772 106.473C94.4216 106.861 94.9902 107.078 95.5804 107.084C95.7087 107.085 95.6886 107.283 95.5611 107.282Z" fill="white"/>
<path d="M97.5721 112.362C98.5111 111.471 99.079 110.259 99.1627 108.968C99.1709 108.84 99.3693 108.86 99.3611 108.987C99.2715 110.33 98.6779 111.591 97.6987 112.516C97.6053 112.604 97.4792 112.45 97.5721 112.362Z" fill="white"/>
<path d="M96.258 101.527C96.5024 101.582 96.7566 101.576 96.9979 101.508C97.2392 101.441 97.4599 101.315 97.6403 101.141C97.7325 101.052 97.8586 101.206 97.7669 101.295C97.5668 101.486 97.3228 101.625 97.0564 101.7C96.79 101.775 96.5093 101.784 96.2387 101.725C96.2127 101.722 96.189 101.709 96.1724 101.689C96.1558 101.668 96.1474 101.643 96.1491 101.617C96.1518 101.59 96.1648 101.566 96.1852 101.55C96.2055 101.533 96.2317 101.525 96.258 101.527Z" fill="white"/>
<path d="M56.3825 107.97C59.0959 107.97 61.2957 105.774 61.2957 103.065C61.2957 100.356 59.0959 98.1596 56.3825 98.1596C53.669 98.1596 51.4692 100.356 51.4692 103.065C51.4692 105.774 53.669 107.97 56.3825 107.97Z" fill="#F2F2F2"/>
<path d="M52.7309 60.6933C53.7403 60.6933 54.5586 59.8764 54.5586 58.8687C54.5586 57.8609 53.7403 57.044 52.7309 57.044C51.7216 57.044 50.9033 57.8609 50.9033 58.8687C50.9033 59.8764 51.7216 60.6933 52.7309 60.6933Z" fill="#F36246"/>
<path d="M27.5979 81.0585C28.6073 81.0585 29.4255 80.2416 29.4255 79.2338C29.4255 78.2261 28.6073 77.4091 27.5979 77.4091C26.5885 77.4091 25.7703 78.2261 25.7703 79.2338C25.7703 80.2416 26.5885 81.0585 27.5979 81.0585Z" fill="#F0F0F0"/>
<path d="M135.751 0H0.755577C0.555349 0.000540319 0.363478 0.0801952 0.221897 0.221551C0.0803153 0.362907 0.000536753 0.554469 2.52595e-08 0.754373V5.19367C-5.17375e-05 5.39402 0.0794541 5.58621 0.221082 5.72814C0.362711 5.87007 0.554911 5.95015 0.755577 5.95085H135.751C135.952 5.95015 136.144 5.87007 136.286 5.72814C136.427 5.58621 136.507 5.39402 136.507 5.19367V0.754373C136.506 0.554467 136.426 0.362902 136.285 0.221547C136.143 0.0801912 135.951 0.000539563 135.751 0Z" fill="#F36246"/>
<path d="M4.38897 3.82993C4.98187 3.82993 5.46251 3.35007 5.46251 2.75812C5.46251 2.16618 4.98187 1.68632 4.38897 1.68632C3.79607 1.68632 3.31543 2.16618 3.31543 2.75812C3.31543 3.35007 3.79607 3.82993 4.38897 3.82993Z" fill="white"/>
<path d="M8.46368 3.82993C9.05658 3.82993 9.53722 3.35007 9.53722 2.75812C9.53722 2.16618 9.05658 1.68632 8.46368 1.68632C7.87078 1.68632 7.39014 2.16618 7.39014 2.75812C7.39014 3.35007 7.87078 3.82993 8.46368 3.82993Z" fill="white"/>
<path d="M12.5386 3.82993C13.1315 3.82993 13.6122 3.35007 13.6122 2.75812C13.6122 2.16618 13.1315 1.68632 12.5386 1.68632C11.9457 1.68632 11.4651 2.16618 11.4651 2.75812C11.4651 3.35007 11.9457 3.82993 12.5386 3.82993Z" fill="white"/>
<path d="M131.76 1.32646H127.066C126.974 1.32646 126.886 1.36295 126.821 1.4279C126.756 1.49285 126.719 1.58095 126.719 1.6728C126.719 1.76465 126.756 1.85275 126.821 1.9177C126.886 1.98265 126.974 2.01914 127.066 2.01914H131.76C131.852 2.01914 131.94 1.98265 132.005 1.9177C132.07 1.85275 132.107 1.76465 132.107 1.6728C132.107 1.58095 132.07 1.49285 132.005 1.4279C131.94 1.36295 131.852 1.32646 131.76 1.32646Z" fill="white"/>
<path d="M131.76 2.62769H127.066C126.974 2.62769 126.886 2.66418 126.821 2.72913C126.756 2.79408 126.719 2.88217 126.719 2.97402C126.719 3.06588 126.756 3.15398 126.821 3.21893C126.886 3.28388 126.974 3.32036 127.066 3.32036H131.76C131.852 3.32036 131.94 3.28388 132.005 3.21893C132.07 3.15398 132.107 3.06588 132.107 2.97402C132.107 2.88217 132.07 2.79408 132.005 2.72913C131.94 2.66418 131.852 2.62769 131.76 2.62769Z" fill="white"/>
<path d="M131.76 3.92891H127.066C126.974 3.92891 126.885 3.96554 126.82 4.03076C126.754 4.09597 126.718 4.18442 126.718 4.27665C126.718 4.36887 126.754 4.45732 126.82 4.52254C126.885 4.58775 126.974 4.62439 127.066 4.62439H131.76C131.852 4.62439 131.941 4.58775 132.006 4.52254C132.071 4.45732 132.108 4.36887 132.108 4.27665C132.108 4.18442 132.071 4.09597 132.006 4.03076C131.941 3.96554 131.852 3.92891 131.76 3.92891Z" fill="white"/>
<path d="M5.04876 38.7081C4.6589 38.7094 4.34346 39.2148 4.34424 39.8371C4.34501 40.4577 4.65999 40.9604 5.04876 40.9616H57.992C58.3819 40.9604 58.6973 40.4549 58.6965 39.8326C58.6957 39.2121 58.3808 38.7094 57.992 38.7081H5.04876Z" fill="#E6E6E6"/>
<path d="M5.04876 45.2373C4.6589 45.2386 4.34346 45.744 4.34424 46.3663C4.34501 46.9868 4.65999 47.4896 5.04876 47.4908H57.992C58.3819 47.4896 58.6973 46.9841 58.6965 46.3618C58.6957 45.7413 58.3808 45.2385 57.992 45.2373H5.04876Z" fill="#E6E6E6"/>
<path d="M5.04876 51.6875C4.6589 51.6888 4.34346 52.1942 4.34424 52.8165C4.34501 53.4371 4.65999 53.9398 5.04876 53.941H39.0319C39.4217 53.9398 39.7372 53.4343 39.7364 52.812C39.7356 52.1915 39.4207 51.6887 39.0319 51.6875H5.04876Z" fill="#E6E6E6"/>
<path d="M1.2395 123.776C1.25733 123.735 1.27768 123.697 1.29615 123.657C1.32882 123.32 1.2395 123.776 1.2395 123.776Z" fill="#F2F2F2"/>
<path d="M10.858 118.697C10.1875 118.697 9.5179 118.745 8.85446 118.842L8.75873 118.856C6.63567 119.195 4.70983 120.297 3.34296 121.954C1.97608 123.611 1.26221 125.709 1.33545 127.855L1.36082 128.662C1.37755 129.172 1.39537 129.721 1.41006 130.329C1.41181 130.471 1.46948 130.606 1.57053 130.705C1.67157 130.805 1.80781 130.86 1.94962 130.86H109.272C116.838 130.78 124.378 130.68 131.679 130.563C133.054 130.567 134.426 130.444 135.778 130.195C137.808 129.78 139.216 128.957 140.084 127.679C141.164 126.095 141.199 124.099 141.133 121.845C141 117.293 140.868 112.511 140.737 107.743C140.62 103.541 140.505 99.3504 140.389 95.3383C140.317 92.9573 140.158 90.8557 138.932 89.2495C137.602 87.5124 135.178 86.6319 131.726 86.6319C131.684 86.6319 131.643 86.6319 131.601 86.6322C120.782 86.6987 110.062 93.1301 104.926 102.636C104.335 103.731 103.784 104.902 103.251 106.036C102.492 107.737 101.633 109.391 100.678 110.99C100.18 111.802 99.6108 112.568 98.9778 113.28C98.9361 113.33 98.8884 113.384 98.8379 113.434C98.7225 113.564 98.6018 113.69 98.4841 113.802C97.8356 114.458 97.1073 115.03 96.3162 115.506L96.2403 115.55C96.1831 115.585 96.1211 115.62 96.0591 115.653C95.6288 115.892 95.1813 116.099 94.7202 116.271C92.7625 117.017 90.5363 117.196 88.1039 116.802C85.796 116.405 83.5718 115.622 81.5254 114.485C79.2729 113.254 77.1646 111.719 75.1257 110.236C74.2301 109.584 73.3037 108.91 72.3786 108.271C72.2047 108.151 72.0337 108.033 71.86 107.916C70.7302 107.154 69.7058 106.526 68.7284 105.993C66.4257 104.707 63.8881 103.895 61.2657 103.604C58.575 103.349 56.2039 103.829 54.2198 105.028C53.6522 105.373 53.1186 105.77 52.6261 106.215C50.2761 108.325 48.8274 111.439 47.4265 114.45C45.6838 118.196 43.8818 122.07 40.3235 124.077C36.2175 126.397 30.2242 125.433 25.984 123.758C24.6508 123.231 23.3193 122.625 22.0316 122.038C21.5115 121.801 20.9914 121.565 20.4703 121.333C19.4468 120.876 18.6092 120.526 17.8343 120.23L17.5892 120.136C17.4529 120.085 17.3164 120.034 17.1775 119.985C16.3189 119.67 15.4438 119.401 14.5559 119.181L14.3562 119.131C13.9559 119.039 13.5816 118.964 13.2143 118.9L13.0677 118.875C12.3372 118.756 11.5982 118.696 10.858 118.697Z" fill="#E6E6E6"/>
<path d="M70.9979 118.83C69.2118 112.123 73.1782 105.586 77.813 101.061C80.283 98.6487 83.0338 96.5522 85.7163 94.3867C88.2903 92.3314 90.7416 90.1274 93.0574 87.786C97.5294 83.2162 101.43 77.9938 104.014 72.1234C106.47 66.541 107.631 60.4599 107.056 54.3688C106.511 48.5919 104.437 42.9094 100.621 38.4772C100.146 37.9249 99.6459 37.3955 99.1211 36.8891C98.8397 36.6162 98.4084 37.0459 98.6903 37.3191C102.951 41.4493 105.43 47.0464 106.27 52.8693C107.135 58.8742 106.243 64.9961 103.994 70.6103C101.598 76.5908 97.7884 81.9275 93.3701 86.5845C91.1449 88.9148 88.7779 91.1059 86.2824 93.1451C83.6173 95.3369 80.848 97.4078 78.3103 99.75C73.6333 104.067 69.4297 110.005 70.0072 116.689C70.0744 117.467 70.2094 118.237 70.4105 118.991C70.4341 119.067 70.4861 119.13 70.5555 119.168C70.6248 119.205 70.7062 119.215 70.7824 119.194C70.8586 119.173 70.9236 119.123 70.9638 119.055C71.004 118.987 71.0163 118.906 70.9979 118.83Z" fill="#E6E6E6"/>
<path d="M89.7022 80.6477C89.7399 80.7171 89.7491 80.7983 89.7279 80.8743C89.7068 80.9503 89.6569 81.0151 89.5888 81.0551C89.5207 81.0951 89.4397 81.1072 89.3629 81.0887C89.286 81.0703 89.2194 81.0228 89.177 80.9562C88.4776 79.7588 87.8175 78.5407 87.1967 77.3021C86.7782 76.4608 86.3765 75.6083 86.0001 74.7474C81.775 65.1847 79.9655 54.7327 80.7306 44.3089C80.9387 41.4573 81.3508 38.6242 81.9637 35.8313C82.0901 35.2648 82.225 34.6983 82.3738 34.1375C82.5985 34.101 82.8176 34.0533 83.0339 33.9972C81.7137 38.7759 81.1829 43.8153 81.166 48.7454C81.1465 54.3222 81.8653 59.8771 83.3036 65.2658C84.7355 70.6566 86.8877 75.8303 89.7022 80.6477Z" fill="#E6E6E6"/>
<path d="M129.712 64.1581C127.428 69.0629 123.592 73.09 119.288 76.2982C114.409 79.9354 108.884 82.5603 103.41 85.1656C103.058 85.3338 102.75 84.8094 103.103 84.6412C104.41 84.0186 105.716 83.396 107.013 82.7622C112.204 80.2187 117.35 77.4199 121.696 73.5667C125.715 70.0024 128.99 65.5631 130.485 60.3554C132.044 54.9346 131.749 49.0735 130.072 43.7171C129.031 40.4644 127.538 37.3737 125.636 34.5357C125.007 33.585 124.342 32.6605 123.639 31.7622C123.128 31.1087 122.6 30.4684 122.055 29.8412C120.274 27.8018 118.338 25.9032 116.263 24.1624C114.105 22.3036 111.717 20.7296 109.157 19.4791C106.527 18.2018 103.651 17.5072 100.727 17.4431C97.964 17.405 95.2431 18.1227 92.8594 19.5184C91.2295 20.4876 89.7654 21.7107 88.5225 23.1416C88.441 22.9368 88.3511 22.7349 88.25 22.5386C90.396 20.1689 93.0729 18.3069 96.1879 17.4235C101.943 15.7913 108.019 17.7067 112.876 20.8756C115.245 22.4543 117.458 24.2554 119.485 26.2544C120.241 26.9863 120.976 27.7407 121.684 28.5175C122.538 29.4486 123.354 30.4123 124.131 31.4088C124.131 31.4088 124.136 31.4116 124.136 31.4144C124.398 31.7481 124.654 32.0865 124.906 32.4296C128.19 36.8885 130.642 42.0065 131.619 47.4778C132.619 53.0725 132.125 58.9729 129.712 64.1581Z" fill="#E6E6E6"/>
<path d="M125.853 58.2802C123.572 63.185 119.735 67.2121 115.429 70.4202C110.763 73.8948 105.508 76.4496 100.272 78.9427C100.033 79.0577 99.7916 79.1698 99.5528 79.2848C99.5144 79.3045 99.4722 79.3156 99.4291 79.3175C99.3859 79.3195 99.3429 79.3121 99.3028 79.296C99.2473 79.28 99.1977 79.2479 99.1605 79.2037C99.1232 79.1596 99.1 79.1053 99.0936 79.0479C99.0873 78.9905 99.0982 78.9326 99.125 78.8814C99.1517 78.8302 99.1931 78.7881 99.2439 78.7604C99.4461 78.6622 99.6512 78.5669 99.8534 78.4715C100.202 78.3033 100.547 78.1378 100.895 77.9724C101.651 77.6134 102.405 77.2498 103.157 76.8815C108.345 74.3407 113.493 71.5392 117.836 67.686C121.858 64.1217 125.133 59.6824 126.628 54.4747C128.184 49.0538 127.889 43.1955 126.212 37.8392C125.548 35.7371 124.687 33.7024 123.639 31.7622C123.041 30.6516 122.386 29.5664 121.684 28.5175C120.621 26.925 119.456 25.4028 118.196 23.9604C116.416 21.9213 114.481 20.0236 112.406 18.2844C110.248 16.4253 107.858 14.8513 105.297 13.6011C102.668 12.323 99.7936 11.6275 96.8704 11.5624C94.1063 11.5243 91.3846 12.2419 88.9998 13.6376C86.9127 14.8898 85.0957 16.5437 83.6545 18.5032C81.9337 20.8563 80.6101 23.4746 79.7361 26.2544C78.956 28.6807 78.3736 31.166 77.9946 33.686C77.5377 36.7243 77.3077 39.7923 77.3064 42.8646C77.2883 48.4422 78.007 53.9979 79.4439 59.3879C80.8776 64.778 83.0297 69.9516 85.8426 74.7698C85.8503 74.7823 85.8568 74.7954 85.8623 74.8091C85.8882 74.8798 85.8869 74.9575 85.8588 75.0273C85.8307 75.0972 85.7777 75.1541 85.7099 75.1872C85.6422 75.2203 85.5647 75.2272 85.4922 75.2066C85.4197 75.186 85.3574 75.1393 85.3173 75.0755C84.6179 73.8808 83.9588 72.6628 83.3399 71.4214C78.2683 61.1987 76.0345 49.8055 76.871 38.4281C76.9946 36.7624 77.1865 35.1022 77.4468 33.4476C77.6294 32.2754 77.8494 31.1097 78.1069 29.9506C78.7027 27.1035 79.6509 24.3415 80.9299 21.7282C81.5323 20.5327 82.2362 19.3909 83.0337 18.3153C85.3623 15.1716 88.5195 12.6252 92.3312 11.5455C98.0866 9.91061 104.159 11.826 109.019 14.9949C111.387 16.575 113.6 18.376 115.628 20.3737C117.603 22.2786 119.415 24.3441 121.047 26.5489C122.188 28.0946 123.218 29.7186 124.131 31.4088C124.131 31.4088 124.136 31.4116 124.136 31.4144C124.684 32.4324 125.187 33.4728 125.636 34.5357C126.607 36.8026 127.319 39.1713 127.76 41.5971C128.763 47.1945 128.268 53.0921 125.853 58.2802Z" fill="#E6E6E6"/>
<path d="M107.065 60.3956C109.752 60.3788 112.35 59.432 114.416 57.7166C116.519 55.9508 117.903 53.4785 118.308 50.7649C118.545 49.2308 118.469 47.6645 118.083 46.1608C118.059 46.0855 118.007 46.0223 117.938 45.9846C117.868 45.9468 117.787 45.9374 117.711 45.9584C117.635 45.9794 117.57 46.029 117.529 46.097C117.489 46.1649 117.477 46.2457 117.495 46.3225C118.146 48.8757 117.853 51.5777 116.668 53.932C115.758 55.6923 114.381 57.1693 112.687 58.2018C110.994 59.2344 109.049 59.7828 107.065 59.7873C106.986 59.7901 106.911 59.8233 106.856 59.88C106.801 59.9368 106.771 60.0126 106.771 60.0914C106.771 60.1703 106.801 60.2461 106.856 60.3029C106.911 60.3596 106.986 60.3928 107.065 60.3956Z" fill="#E6E6E6"/>
<path d="M84.1888 94.9656L82.2279 91.5195C82.1857 91.4528 82.1192 91.4051 82.0424 91.3864C81.9656 91.3677 81.8845 91.3795 81.8163 91.4193C81.7481 91.4591 81.698 91.5238 81.6766 91.5998C81.6553 91.6758 81.6643 91.7571 81.7018 91.8265L83.6628 95.2725C83.705 95.3393 83.7715 95.387 83.8483 95.4057C83.9251 95.4244 84.0061 95.4126 84.0743 95.3728C84.1426 95.333 84.1927 95.2682 84.214 95.1923C84.2354 95.1163 84.2263 95.035 84.1888 94.9656Z" fill="#E6E6E6"/>
<path d="M72.7404 24.6659C72.1537 24.2523 71.5117 23.8211 70.7937 23.8384C69.0559 23.8801 68.119 26.4235 66.3829 26.3341C65.2758 26.277 64.5409 25.1542 63.51 24.7471C62.168 24.217 60.4601 25.2536 60.3137 26.6871L60.4861 26.5296C65.7029 27.7993 71.1165 28.049 76.4284 27.2649C75.1991 26.3986 73.9698 25.5322 72.7404 24.6659Z" fill="#E6E6E6"/>
<path d="M65.5588 128.128C66.5279 128.128 67.3135 127.344 67.3135 126.377C67.3135 125.409 66.5279 124.625 65.5588 124.625C64.5898 124.625 63.8042 125.409 63.8042 126.377C63.8042 127.344 64.5898 128.128 65.5588 128.128Z" fill="white"/>
<path d="M70.6475 128.128C71.6165 128.128 72.4021 127.344 72.4021 126.377C72.4021 125.409 71.6165 124.625 70.6475 124.625C69.6784 124.625 68.8928 125.409 68.8928 126.377C68.8928 127.344 69.6784 128.128 70.6475 128.128Z" fill="white"/>
<path d="M75.7358 128.128C76.7049 128.128 77.4905 127.344 77.4905 126.377C77.4905 125.409 76.7049 124.625 75.7358 124.625C74.7668 124.625 73.9812 125.409 73.9812 126.377C73.9812 127.344 74.7668 128.128 75.7358 128.128Z" fill="white"/>
<path d="M70.6635 127.778C71.4387 127.778 72.0672 127.151 72.0672 126.377C72.0672 125.603 71.4387 124.975 70.6635 124.975C69.8882 124.975 69.2598 125.603 69.2598 126.377C69.2598 127.151 69.8882 127.778 70.6635 127.778Z" fill="#3F3D56"/>
<path d="M153.063 126.992H151.14L150.225 119.585H153.063V126.992Z" fill="#FFB6B6"/>
<path d="M154.079 130.319H152.699L152.453 129.018L151.823 130.319H148.165C147.989 130.319 147.819 130.263 147.677 130.159C147.536 130.055 147.432 129.909 147.38 129.742C147.327 129.575 147.33 129.395 147.387 129.23C147.444 129.064 147.553 128.921 147.697 128.822L150.619 126.808V125.493L153.691 125.676L154.079 130.319Z" fill="#2F2E41"/>
<path d="M142.009 125.35L140.198 125.997L136.836 119.332L139.509 118.377L142.009 125.35Z" fill="#FFB6B6"/>
<path d="M144.335 127.232L143.144 127.925L142.275 126.926L142.386 128.367L139.227 130.207C139.075 130.295 138.9 130.333 138.725 130.314C138.551 130.296 138.387 130.222 138.258 130.104C138.128 129.986 138.04 129.829 138.006 129.658C137.972 129.486 137.993 129.308 138.068 129.149L139.574 125.94L138.911 124.804L141.658 123.417L144.335 127.232Z" fill="#2F2E41"/>
<path d="M153.428 122.466H153.404L152.996 109.156C153.26 108.647 153.394 108.08 153.386 107.506C153.378 106.932 153.228 106.369 152.95 105.867L152.891 105.761L153.043 105.059C153.238 104.157 153.149 103.216 152.787 102.367L152.406 89.9508C153.768 81.1346 147.381 74.2314 147.381 74.2314H137.162L135.459 82.5485L130.006 103.359C129.764 103.726 129.614 104.145 129.567 104.582C129.521 105.018 129.58 105.46 129.739 105.869L137.483 121.165L137.423 121.195C137.31 121.258 137.225 121.362 137.187 121.486C137.148 121.609 137.159 121.743 137.217 121.859C137.318 122.152 137.574 122.329 137.79 122.255L140.808 120.731C140.921 120.668 141.006 120.563 141.044 120.44C141.083 120.316 141.072 120.182 141.014 120.066C140.913 119.774 140.657 119.596 140.442 119.67L140.092 119.847L137.756 108.349L137.673 106.003L137.843 103.341L142.868 91.9469L145.848 106.668L150.241 122.614C150.157 122.69 150.098 122.79 150.072 122.9C150.046 123.01 150.054 123.125 150.095 123.231C150.136 123.336 150.208 123.427 150.301 123.491C150.395 123.554 150.505 123.588 150.619 123.588H153.428C153.577 123.588 153.719 123.529 153.825 123.424C153.93 123.319 153.989 123.176 153.989 123.027C153.989 122.878 153.93 122.736 153.825 122.631C153.719 122.525 153.577 122.466 153.428 122.466Z" fill="#2F2E41"/>
<path d="M148.523 68.3422L148.251 71.3821C148.251 71.3821 148.133 73.9061 147.759 74.4641C147.388 75.0194 137.271 75.0895 137.271 75.0895C137.271 75.0895 136.602 71.4915 136.026 68.3422H148.523Z" fill="#FFB6B6"/>
<path d="M143.457 49.4013C146.328 49.4013 148.655 47.0776 148.655 44.2111C148.655 41.3446 146.328 39.0208 143.457 39.0208C140.586 39.0208 138.258 41.3446 138.258 44.2111C138.258 47.0776 140.586 49.4013 143.457 49.4013Z" fill="#FFB6B6"/>
<path d="M146.124 50.3943L141.952 50.8844C141.776 50.9051 141.611 50.98 141.48 51.0988C141.348 51.2176 141.257 51.3743 141.22 51.5471L140.556 54.5785L136.42 59.4417C136.42 59.4417 134.934 62.2222 135.491 65.3734C136.048 68.5247 136.293 70.8661 136.293 70.8661C136.293 70.8661 147.389 75.0197 147.76 74.4636C148.132 73.9075 148.252 71.3815 148.252 71.3815L149.737 54.884C149.737 54.884 148.066 52.1035 147.138 52.1035C146.539 52.0834 146.616 50.7371 146.124 50.3943Z" fill="#F36246"/>
<path opacity="0.2" d="M144.282 61.0537L142.426 74.7706L140.478 74.8719L144.282 61.0537Z" fill="black"/>
<path d="M136.181 71.8805C136.766 71.8805 137.24 71.3122 137.24 70.6112C137.24 69.9102 136.766 69.342 136.181 69.342C135.595 69.342 135.121 69.9102 135.121 70.6112C135.121 71.3122 135.595 71.8805 136.181 71.8805Z" fill="#F36246"/>
<path d="M143.439 87.5614C143.66 87.342 143.83 87.077 143.937 86.785C144.044 86.493 144.086 86.1811 144.059 85.8712C144.032 85.5614 143.938 85.2612 143.782 84.9917C143.627 84.7222 143.414 84.49 143.159 84.3115L146.637 67.5062L142.885 68.6881L140.086 84.9459C139.814 85.3935 139.716 85.9253 139.811 86.4403C139.905 86.9553 140.186 87.4178 140.599 87.7402C141.012 88.0626 141.53 88.2225 142.053 88.1895C142.576 88.1566 143.069 87.9331 143.439 87.5614Z" fill="#FFB6B6"/>
<path d="M146.205 52.5552C146.205 52.5552 148.706 51.4746 150.224 54.1951C151.742 56.9157 149.551 66.3712 149.243 67.9057C148.936 69.4403 144.72 76.7553 144.72 76.7553L140.507 75.914L146.205 52.5552Z" fill="#F36246"/>
<path d="M141.092 39.2495C142.895 38.0118 144.482 37.8232 145.786 38.1743C145.955 37.9132 146.192 37.7031 146.472 37.5664C147.489 35.008 150.584 33.4716 153.24 34.2185C155.913 34.9702 157.757 37.9265 157.254 40.6534C156.943 42.3436 155.877 43.8072 155.449 45.4718C154.619 48.6941 156.643 52.3852 159.809 53.4239C156.811 54.0248 153.512 52.1968 152.436 49.3395C151.914 47.9516 151.882 46.4363 151.816 44.9552C151.75 43.4741 151.63 41.9485 150.958 40.6265C150.507 39.7198 149.759 38.9948 148.837 38.5726C148.92 38.8273 148.94 39.098 148.898 39.3624C148.855 39.6267 148.749 39.877 148.59 40.0927C149.293 40.9718 149.676 41.9226 149.676 42.492C151.136 45.1567 149.048 47.4455 146.379 48.9034C145.314 49.488 144.085 49.7019 142.885 49.5115L142.774 49.0356L142.622 49.4643L142.117 50.9014C141.535 51.1828 140.957 51.4913 140.385 51.8268C140.602 50.807 140.778 49.7891 140.899 48.7939C141.067 47.4393 140.483 45.4227 140.061 44.1963C139.8 43.4405 139.665 42.6467 139.664 41.8471V41.8121L139.254 43.1284L137.759 42.492C138.037 40.9 137.759 39.0927 141.092 39.2495Z" fill="#2F2E41"/>
<path d="M172 130.666C172 130.755 171.964 130.839 171.902 130.902C171.839 130.965 171.754 131 171.666 131H108.384C108.295 131 108.21 130.965 108.148 130.902C108.085 130.84 108.05 130.755 108.05 130.666C108.05 130.578 108.085 130.493 108.148 130.43C108.21 130.368 108.295 130.333 108.384 130.333H171.666C171.71 130.332 171.753 130.341 171.794 130.358C171.834 130.374 171.871 130.399 171.902 130.43C171.933 130.461 171.958 130.498 171.975 130.538C171.992 130.579 172 130.622 172 130.666Z" fill="#CCCCCC"/>
</g>
<defs>
<clipPath id="clip0_165_159">
<rect width="172" height="131" fill="white"/>
</clipPath>
</defs>
</svg>
