<svg width="221" height="140" viewBox="0 0 221 140" fill="none" xmlns="http://www.w3.org/2000/svg">
<g clip-path="url(#clip0_228_176)">
<path d="M35.9574 10.9605H220.794C220.533 9.47856 220.023 8.07661 219.311 6.80685C217.035 2.74857 212.695 0 207.722 0H49.0295C44.0599 0 39.7169 2.74857 37.444 6.80685C36.7315 8.07661 36.2185 9.47856 35.9574 10.9605Z" fill="#F2F2F2"/>
<path d="M46.9983 139.282L133.82 139.641H200.191C214.51 132.342 223.152 121.692 220.229 95.3332L220.229 10.7693L37.3636 10.7693L36.2353 121.333C36.2353 125.264 34.0827 135.333 46.9983 139.282Z" fill="#FEFEFE"/>
<path d="M-7.62939e-05 139.488C-7.62939e-05 139.691 0.16272 139.854 0.365425 139.854H76.3193C76.522 139.854 76.6848 139.691 76.6848 139.488C76.6848 139.39 76.6479 139.304 76.5865 139.239H49.0295C48.4428 139.239 47.8685 139.199 47.3033 139.122H0.365425C0.16272 139.122 -7.62939e-05 139.285 -7.62939e-05 139.488Z" fill="#3F3D56"/>
<path d="M85.1748 64.9142H171.579C172.382 64.9142 173.035 64.0867 173.035 63.0695C173.035 62.0523 172.382 61.2249 171.579 61.2249H85.1748C84.3717 61.2249 83.7185 62.0523 83.7185 63.0695C83.7185 64.0867 84.3717 64.9142 85.1748 64.9142Z" fill="#E6E6E6"/>
<path d="M35.9575 10.9605C36.2185 9.47856 36.7315 8.07661 37.444 6.80685C39.7169 2.74857 44.0599 0 49.0295 0H207.722C212.695 0 217.035 2.74857 219.311 6.80685C220.023 8.0766 220.533 9.47856 220.794 10.9605C220.929 11.7168 221 12.4946 221 13.2909V126.563C221 133.893 215.044 139.854 207.722 139.854H49.0295C47.5122 139.854 46.0502 139.596 44.6896 139.122C39.4927 137.321 35.7517 132.371 35.7517 126.563V13.2909C35.7517 12.4977 35.8223 11.7168 35.9575 10.9605ZM36.366 126.563C36.366 132.976 41.1267 138.28 47.3034 139.122C47.8685 139.199 48.4429 139.239 49.0295 139.239H188.86C206.272 139.239 220.386 125.109 220.386 107.68V13.2909C220.386 12.4946 220.312 11.7168 220.171 10.9605C219.894 9.46625 219.357 8.06738 218.604 6.80685C216.396 3.09906 212.348 0.614892 207.722 0.614892H49.0295C44.4039 0.614892 40.3558 3.09906 38.1474 6.80685C37.3949 8.06738 36.8574 9.46625 36.581 10.9605C36.4397 11.7168 36.366 12.4946 36.366 13.2909V126.563Z" fill="#3F3D56"/>
<path d="M44.1073 66.4327L45.1466 62.618L40.4695 60.884L39.9499 64.3519L44.1073 66.4327Z" fill="#FFB6B6"/>
<path opacity="0.1" d="M44.1073 66.4327L45.1466 62.618L42.3922 61.4551L43.248 65.9522L44.1073 66.4327Z" fill="black"/>
<path d="M57.7988 99.1258C58.6921 98.5938 58.7392 97.0234 57.904 95.6182C57.5384 95.0031 57.0643 94.5216 56.5718 94.2193L56.0813 93.4171L49.8764 82.2826C49.8764 82.2826 47.1603 71.7814 46.0545 70.5117C44.9487 69.242 43.3499 69.5412 43.3499 69.5412L41.9317 70.802L46.9932 85.6755L53.2392 94.4802L54.0763 95.7055C54.1068 96.283 54.3033 96.9297 54.6689 97.5448C55.5041 98.95 56.9054 99.6579 57.7988 99.1258Z" fill="#FFB6B6"/>
<path d="M44.363 65.3432C44.363 65.3432 42.3894 65.2668 41.1442 66.8013C39.899 68.3359 46.4225 85.6321 46.4225 85.6321L51.736 85.4438L44.363 65.3432Z" fill="#1C2126"/>
<path d="M43.8473 63.225C41.1686 63.225 38.997 61.0513 38.997 58.3699C38.997 55.6886 41.1686 53.5149 43.8473 53.5149C46.5261 53.5149 48.6976 55.6886 48.6976 58.3699C48.6976 61.0513 46.5261 63.225 43.8473 63.225Z" fill="#FFB6B6"/>
<path d="M55.1936 128.855L58.4849 137.004L60.3903 135.097L61.0833 131.456L58.3117 127.988L55.1936 128.855Z" fill="#FFB6B6"/>
<path d="M24.3596 125.907L21.0683 129.722L22.6273 132.843L26.0919 132.323L27.8241 127.468L24.3596 125.907Z" fill="#FFB6B6"/>
<path d="M46.2725 80.3909L46.7056 87.4133L35.9656 85.506L36.6585 81.1711L46.2725 80.3909Z" fill="#FFB6B6"/>
<path d="M46.7923 87.5001L35.9657 83.9456C35.9657 83.9456 31.9815 91.9217 36.3122 96.9501C40.6428 101.979 55.0205 130.589 55.0205 130.589L59.3511 128.508L53.115 110.302L46.186 93.4823L46.7923 87.5001Z" fill="#2F2E41"/>
<path d="M36.3121 94.0024L32.1547 112.209L23.4934 126.254L27.9973 128.855L40.123 112.209L44.1072 99.3777L36.3121 94.0024Z" fill="#2F2E41"/>
<path d="M62.6423 130.762H65.6423C65.6423 130.762 69.143 129.375 69.9634 130.762C70.7838 132.149 66.3028 136.083 66.3028 136.083C66.3028 136.083 60.0439 139.605 59.1778 139.432C58.3116 139.258 57.9652 137.178 57.9652 137.178L56.9258 134.75L58.4849 135.27C58.4849 135.27 60.5636 134.057 60.0439 131.976L62.6423 130.762Z" fill="#2F2E41"/>
<path d="M21.7612 130.242V128.508L19.7473 130.242C19.7473 130.242 16.3912 131.456 18.9896 134.057C21.588 136.658 24.8792 139.432 24.8792 139.432C24.8792 139.432 30.076 140.819 30.4224 139.259C30.7689 137.698 30.4224 137.067 30.4224 137.067L28.517 136.137L26.7847 131.629L24.0131 131.976L21.7612 130.242Z" fill="#2F2E41"/>
<path d="M42.375 59.3236L43.934 59.1502L46.7922 56.2892C46.7922 56.2892 49.3906 57.6763 49.3906 56.6359C49.3906 51.7809 46.4458 51.9543 44.0206 51.6075C41.5955 51.2607 41.8553 51.174 41.0758 52.4745C40.7193 53.0692 39.4302 53.4281 39.4302 53.4281C39.4302 53.4281 37.0051 50.1337 35.7925 54.1217C34.5799 58.1098 36.1389 70.4208 34.9263 71.4612C33.7138 72.5015 39.9052 73.5404 39.2346 69.4664C38.5641 65.3924 37.3515 59.1502 38.0444 57.763C38.7373 56.3759 38.9105 56.7226 38.9105 56.7226C38.0518 56.3717 37.4908 62.5532 40.7284 62.8558L40.816 59.8437C40.816 59.8437 41.3357 58.2832 42.375 59.3236Z" fill="#2F2E41"/>
<path d="M44.5403 65.3056L39.3436 63.2249L32.4146 84.0322L46.671 83.5124L47.9547 77.3021C47.9547 77.3021 49.208 74.0698 48.1686 72.1625C47.1293 70.2551 44.5403 65.3056 44.5403 65.3056Z" fill="#1C2126"/>
<path d="M31.0175 100.161C32.0532 100.25 33.0061 99.0013 33.1459 97.3722C33.2071 96.659 33.1023 95.9912 32.8783 95.4582L32.9469 94.5202L34.3904 81.8527C34.3904 81.8527 37.0774 71.4909 36.9184 69.814C36.7594 68.1371 36.5084 67.6919 36.5084 67.6919L34.6219 67.8888L30.0718 82.9269L30.0186 93.7254L29.9851 95.2095C29.6736 95.6964 29.4565 96.3366 29.3954 97.0497C29.2556 98.6788 29.9818 100.072 31.0175 100.161Z" fill="#FFB6B6"/>
<path d="M39.7766 64.8722C39.7766 64.8722 38.2176 63.6585 36.3121 64.1787C34.4067 64.6989 29.6334 82.5585 29.6334 82.5585L34.0602 85.5062L39.7766 64.8722Z" fill="#1C2126"/>
<path d="M130.022 94.8901H150.802C152.07 94.8901 153.102 93.8573 153.102 92.5879V90.5075C153.102 89.2381 152.07 88.2056 150.802 88.2056H130.022C128.754 88.2056 127.722 89.2381 127.722 90.5075V92.5879C127.722 93.8573 128.754 94.8901 130.022 94.8901Z" fill="#1C2126"/>
<path d="M50.1643 26.905H70.9444C72.2126 26.905 73.2444 25.8722 73.2444 24.6028V22.5224C73.2444 21.253 72.2126 20.2205 70.9444 20.2205H50.1643C48.8961 20.2205 47.8643 21.253 47.8643 22.5224V24.6028C47.8643 25.8722 48.8961 26.905 50.1643 26.905Z" fill="#1C2126"/>
<path d="M99.1945 95.0437H119.975C121.328 95.0437 122.428 93.9419 122.428 92.5878V90.5074C122.428 89.1533 121.328 88.0518 119.975 88.0518H99.1945C97.8416 88.0518 96.741 89.1533 96.741 90.5074V92.5878C96.741 93.9419 97.8416 95.0437 99.1945 95.0437ZM119.975 88.6666C120.989 88.6666 121.814 89.4923 121.814 90.5074V92.5878C121.814 93.6029 120.989 94.4289 119.975 94.4289H99.1945C98.1804 94.4289 97.3553 93.6029 97.3553 92.5878V90.5074C97.3553 89.4923 98.1804 88.6666 99.1945 88.6666H119.975Z" fill="#1C2126"/>
<path d="M73.7051 55.3832H183.049C184.065 55.3832 184.892 54.5557 184.892 53.5385C184.892 52.5213 184.065 51.6938 183.049 51.6938H73.7051C72.6889 51.6938 71.8623 52.5213 71.8623 53.5385C71.8623 54.5557 72.6889 55.3832 73.7051 55.3832Z" fill="#E6E6E6"/>
<path d="M190.012 25.4074H203.834C204.85 25.4074 205.677 24.5799 205.677 23.5627C205.677 22.5455 204.85 21.718 203.834 21.718H190.012C188.996 21.718 188.169 22.5455 188.169 23.5627C188.169 24.5799 188.996 25.4074 190.012 25.4074Z" fill="#E6E6E6"/>
<path d="M107.39 25.4074H121.212C122.228 25.4074 123.054 24.5799 123.054 23.5627C123.054 22.5455 122.228 21.718 121.212 21.718H107.39C106.374 21.718 105.547 22.5455 105.547 23.5627C105.547 24.5799 106.374 25.4074 107.39 25.4074Z" fill="#E6E6E6"/>
<path d="M81.2829 25.4074H95.1044C96.1206 25.4074 96.9473 24.5799 96.9473 23.5627C96.9473 22.5455 96.1206 21.718 95.1044 21.718H81.2829C80.2667 21.718 79.44 22.5455 79.44 23.5627C79.44 24.5799 80.2667 25.4074 81.2829 25.4074Z" fill="#E6E6E6"/>
<path d="M97.9696 74.445H158.784C159.801 74.445 160.627 73.6175 160.627 72.6003C160.627 71.5831 159.801 70.7556 158.784 70.7556H97.9696C96.9534 70.7556 96.1268 71.5831 96.1268 72.6003C96.1268 73.6175 96.9534 74.445 97.9696 74.445Z" fill="#E6E6E6"/>
<path d="M95.3196 114.799H161.434C162.049 114.799 162.549 114.299 162.549 113.684C162.549 113.069 162.049 112.568 161.434 112.568H95.3195C94.7051 112.568 94.2053 113.069 94.2053 113.684C94.2053 114.299 94.7051 114.799 95.3196 114.799Z" fill="#E6E6E6"/>
<path d="M94.7041 6.57794H160.819C161.433 6.57794 161.933 6.07761 161.933 5.46255C161.933 4.84749 161.433 4.34717 160.819 4.34717H94.7041C94.0896 4.34717 93.5898 4.84749 93.5898 5.46255C93.5898 6.07761 94.0896 6.57794 94.7041 6.57794Z" fill="white"/>
</g>
<defs>
<clipPath id="clip0_228_176">
<rect width="221" height="140" fill="white" transform="matrix(-1 0 0 1 221 0)"/>
</clipPath>
</defs>
</svg>
