<svg width="158" height="170" viewBox="0 0 158 170" fill="none" xmlns="http://www.w3.org/2000/svg">
<g clip-path="url(#clip0_235_272)">
<path d="M34.2005 68.8488C26.7521 61.5037 23.6063 53.8408 25.3422 47.272C27.57 38.8424 37.4668 33.014 52.495 31.2814L52.5505 31.7649C37.7315 33.4733 27.9857 39.1709 25.8119 47.3965C24.1225 53.7892 27.2226 61.2847 34.5413 68.5022L34.2005 68.8488Z" fill="#F0F0F0"/>
<path d="M106.065 94.9219C96.7686 94.9219 86.6669 93.5381 76.633 90.8771C64.2248 87.5864 52.8477 82.6195 43.7319 76.5131L44.0019 76.1087C53.0738 82.1855 64.4004 87.1297 76.7573 90.4066C87.924 93.3682 99.1745 94.7404 109.288 94.3783L109.306 94.8644C108.238 94.9029 107.157 94.9221 106.065 94.9219Z" fill="#F0F0F0"/>
<path d="M127.391 91.8617L127.235 91.4008C135.549 88.5848 140.749 84.0487 142.273 78.2824C144.21 70.9519 140.002 62.4454 130.423 54.3298C120.795 46.173 106.911 39.4048 91.3281 35.2724L91.4524 34.8019C107.103 38.9525 121.055 45.7557 130.736 53.9583C140.467 62.202 144.731 70.8847 142.743 78.4069C141.175 84.3386 135.867 88.9912 127.391 91.8617Z" fill="#F0F0F0"/>
<path d="M51.0491 95.1254C32.783 87.01 18.7077 76.4813 11.416 65.4786L11.8207 65.2094C19.0619 76.1359 33.0634 86.6022 51.2459 94.6805L51.0491 95.1254Z" fill="#F0F0F0"/>
<path d="M115.271 109.185C113.387 109.185 111.47 109.142 109.522 109.058L109.543 108.572C124.083 109.203 136.912 107.46 146.646 103.53L146.828 103.982C138.337 107.409 127.515 109.185 115.271 109.185Z" fill="#F0F0F0"/>
<path d="M104.673 31.7177C101.653 30.7331 98.5481 29.8163 95.4427 28.9927C77.5725 24.2535 60.0058 22.5709 44.6411 24.1276L44.5923 23.6434C60.0142 22.0815 77.641 23.7682 95.567 28.5222C98.6812 29.3482 101.795 30.2676 104.823 31.2551L104.673 31.7177Z" fill="#F0F0F0"/>
<path d="M22.7849 69.5788C15.3366 62.2336 12.1908 54.5707 13.9267 48.002C16.1545 39.5723 26.0513 33.744 41.0794 32.0113L41.135 32.4948C26.316 34.2033 16.5702 39.9008 14.3964 48.1265C12.7069 54.5192 15.8071 62.0146 23.1258 69.2321L22.7849 69.5788Z" fill="#F0F0F0"/>
<path d="M94.6486 95.6519C85.3526 95.6519 75.2509 94.268 65.217 91.607C52.8087 88.3163 41.4317 83.3494 32.3159 77.243L32.5858 76.8386C41.6578 82.9154 52.9844 87.8596 65.3413 91.1365C76.508 94.0981 87.7585 95.4703 97.8723 95.1082L97.8899 95.5944C96.8218 95.6329 95.7413 95.652 94.6486 95.6519Z" fill="#F0F0F0"/>
<path d="M115.975 92.5917L115.819 92.1307C124.133 89.3148 129.333 84.7786 130.857 79.0123C132.794 71.6818 128.586 63.1754 119.007 55.0597C109.379 46.9029 95.4947 40.1348 79.9121 36.0023L80.0364 35.5319C95.6871 39.6825 109.639 46.4856 119.32 54.6882C129.051 62.9319 133.315 71.6146 131.327 79.1368C129.759 85.0685 124.451 89.7211 115.975 92.5917Z" fill="#F0F0F0"/>
<path d="M39.6331 95.8553C21.367 87.7399 7.29165 77.2112 0 66.2085L0.404657 65.9393C7.64592 76.8658 21.6474 87.3322 39.8299 95.4105L39.6331 95.8553Z" fill="#F0F0F0"/>
<path d="M103.855 109.914C101.971 109.914 100.055 109.872 98.1064 109.788L98.1273 109.302C112.668 109.933 125.497 108.189 135.231 104.26L135.412 104.712C126.921 108.139 116.099 109.914 103.855 109.914Z" fill="#F0F0F0"/>
<path d="M93.257 32.4477C90.238 31.463 87.1326 30.5462 84.0272 29.7226C66.1569 24.9835 48.5903 23.3008 33.2256 24.8575L33.1768 24.3733C48.5987 22.8114 66.2255 24.4981 84.1515 29.2521C87.2656 30.0781 90.3798 30.9975 93.4074 31.985L93.257 32.4477Z" fill="#F0F0F0"/>
<path d="M96.2778 76.2503L100.407 75.7637L101.864 88.416L105.585 105.888C106.103 106.14 106.525 106.554 106.789 107.066C107.053 107.578 107.145 108.163 107.051 108.731C106.957 109.3 106.682 109.824 106.267 110.223C105.852 110.623 105.319 110.878 104.748 110.95C104.177 111.022 103.598 110.907 103.097 110.622C102.596 110.338 102.201 109.899 101.969 109.371C101.737 108.843 101.682 108.255 101.811 107.693C101.941 107.131 102.248 106.626 102.687 106.253L98.9496 95.9588L96.2778 76.2503Z" fill="#FFB6B6"/>
<path d="M90.2793 166.45H93.6812L95.2998 153.305H90.2788L90.2793 166.45Z" fill="#FFB6B6"/>
<path d="M89.4116 169.753H100.381V169.614C100.381 168.48 99.9311 167.392 99.1305 166.59C98.3299 165.788 97.244 165.337 96.1117 165.337H89.4116V169.753Z" fill="#2F2E41"/>
<path d="M64.1709 164.592L67.5111 165.238L71.5887 152.639L66.6581 151.685L64.1709 164.592Z" fill="#FFB6B6"/>
<path d="M62.6948 167.67L73.4653 169.754L73.4915 169.617C73.7061 168.504 73.4704 167.35 72.836 166.41C72.2017 165.471 71.2208 164.822 70.109 164.607L63.5309 163.334L62.6948 167.67Z" fill="#2F2E41"/>
<path d="M95.6135 55.5168L93.6369 59.3159L78.8325 56.045L80.4543 48.6791C81.738 42.8488 86.8841 38.6383 92.7042 39.9242C98.5243 41.2101 101.24 46.9086 99.9561 52.7388L97.5705 60.1843L95.1566 59.6509L95.6135 55.5168Z" fill="#2F2E41"/>
<path d="M100.893 97.4189C100.893 97.4189 102.35 104.718 100.407 115.424C98.4638 126.13 97.978 130.753 97.978 130.753C97.978 130.753 99.4354 132.456 98.4638 133.429C97.4923 134.403 98.4638 136.349 98.4638 136.349L96.2778 159.951L88.7483 158.734L89.7198 136.592C89.7198 136.592 88.7483 134.646 89.234 134.159C89.7198 133.673 88.7483 130.753 88.7483 130.753L87.5338 107.638L80.0042 132.943C80.0042 132.943 80.7329 133.916 80.0042 134.646C79.2756 135.376 77.8182 139.026 77.8182 139.026L72.9604 156.058L65.188 154.598L69.56 135.133C69.56 135.133 69.0742 133.916 69.8029 133.186C70.0154 132.963 70.1707 132.691 70.2553 132.394C70.3399 132.098 70.3513 131.785 70.2887 131.483C70.2887 131.483 69.56 130.753 70.5316 129.78C71.5031 128.806 71.9889 124.913 71.9889 124.913C71.9889 124.913 72.7176 98.8787 75.1465 97.4189C77.5753 95.959 100.893 97.4189 100.893 97.4189Z" fill="#2F2E41"/>
<path d="M89.9098 57.1596C93.6658 57.1596 96.7107 54.1094 96.7107 50.3468C96.7107 46.5842 93.6658 43.534 89.9098 43.534C86.1538 43.534 83.1089 46.5842 83.1089 50.3468C83.1089 54.1094 86.1538 57.1596 89.9098 57.1596Z" fill="#FFB6B6"/>
<path d="M80.3255 59.0677C80.3255 59.0677 75.389 58.4884 73.9316 59.9483L75.389 89.3893C75.389 89.3893 74.4174 90.1192 74.9032 91.8224C75.1852 92.9403 75.1852 94.1109 74.9032 95.2288C74.9032 95.2288 73.4459 96.932 74.1745 97.662C74.9032 98.3919 101.135 97.9053 101.135 97.9053C101.135 97.9053 102.107 96.2021 100.649 95.2288C99.1921 94.2556 99.9208 91.5791 99.9208 91.5791C99.9208 91.5791 100.407 90.8492 99.1921 89.6326C97.9777 88.416 97.0061 78.4401 97.0061 78.4401L100.164 66.2744C100.164 66.2744 96.9852 62.6804 93.3524 62.4094L80.3255 59.0677Z" fill="#E6E6E6"/>
<path d="M96.4004 66.4416L100.163 66.2742C100.163 66.2742 102.349 70.6538 102.592 74.5469L103.93 89.0698L95.3057 90.3623L96.4004 66.4416Z" fill="#E6E6E6"/>
<path d="M95.7365 50.6848L98.2626 47.4287C98.4116 46.7432 98.2836 46.0265 97.9066 45.4352C97.5297 44.844 96.9345 44.4262 96.251 44.2732L86.7074 42.1644C86.023 42.0152 85.3076 42.1434 84.7173 42.521C84.127 42.8985 83.7099 43.4948 83.5571 44.1795L83.5518 44.2038L84.2353 48.1356L84.3552 48.1141C90.2781 47.0562 91.9652 47.4285 95.6396 50.6023L95.7365 50.6848Z" fill="#2F2E41"/>
<path d="M70.3185 102.709L70.7739 83.55L71.2597 69.9244L77.089 70.6543L73.9584 103.221C74.2876 103.635 74.4869 104.137 74.531 104.665C74.5751 105.192 74.4621 105.721 74.2062 106.184C73.9503 106.647 73.5631 107.024 73.0935 107.267C72.6239 107.51 72.093 107.607 71.5679 107.548C71.0428 107.488 70.5472 107.274 70.1436 106.932C69.7401 106.59 69.4468 106.136 69.3008 105.628C69.1548 105.119 69.1627 104.578 69.3234 104.074C69.4842 103.57 69.7906 103.125 70.2039 102.795C70.2413 102.765 70.2795 102.736 70.3185 102.709Z" fill="#FFB6B6"/>
<path d="M78.1837 60.3587L73.9315 59.948C73.9315 59.948 73.2028 59.948 72.4741 62.3811C71.7455 64.8143 67.7397 90.5297 67.7397 90.5297L76.6035 91.3355L78.1837 60.3587Z" fill="#E6E6E6"/>
<path d="M37.9309 26.8942C44.0341 26.8942 48.9818 21.9379 48.9818 15.8239C48.9818 9.70995 44.0341 4.7536 37.9309 4.7536C31.8276 4.7536 26.8799 9.70995 26.8799 15.8239C26.8799 21.9379 31.8276 26.8942 37.9309 26.8942Z" fill="#1C2126"/>
<path d="M40.5234 22.6273C38.2897 22.6273 36.1061 21.9638 34.2488 20.7206C32.3916 19.4774 30.944 17.7105 30.0892 15.6432C29.2344 13.5759 29.0107 11.3011 29.4465 9.10646C29.8823 6.91183 30.9579 4.89593 32.5374 3.31369C34.1169 1.73145 36.1293 0.653932 38.3201 0.217393C40.5109 -0.219146 42.7817 0.00490294 44.8454 0.861207C46.9091 1.71751 48.6729 3.16761 49.9139 5.02813C51.1549 6.88865 51.8173 9.07603 51.8173 11.3137C51.8139 14.3132 50.6229 17.1889 48.5056 19.3099C46.3883 21.4308 43.5177 22.6239 40.5234 22.6273ZM40.5234 0.486633C38.3858 0.48663 36.2961 1.12162 34.5187 2.31131C32.7413 3.50099 31.356 5.19194 30.538 7.17032C29.72 9.14869 29.5059 11.3256 29.923 13.4259C30.34 15.5261 31.3694 17.4553 32.8809 18.9695C34.3924 20.4837 36.3183 21.5148 38.4148 21.9326C40.5114 22.3504 42.6845 22.136 44.6595 21.3165C46.6344 20.497 48.3224 19.1093 49.51 17.3288C50.6976 15.5483 51.3315 13.455 51.3315 11.3136C51.3282 8.44314 50.1885 5.69114 48.1623 3.66139C46.1361 1.63164 43.3889 0.489891 40.5234 0.486633Z" fill="#3F3D56"/>
<path d="M139.62 62.9366C143.811 62.9366 147.209 59.5331 147.209 55.3345C147.209 51.136 143.811 47.7324 139.62 47.7324C135.429 47.7324 132.031 51.136 132.031 55.3345C132.031 59.5331 135.429 62.9366 139.62 62.9366Z" fill="#1C2126"/>
<path d="M141.4 60.0828C139.851 60.0828 138.337 59.6227 137.049 58.7606C135.761 57.8986 134.757 56.6733 134.165 55.2397C133.572 53.8061 133.417 52.2287 133.719 50.7068C134.021 49.1849 134.767 47.787 135.862 46.6898C136.958 45.5926 138.353 44.8454 139.872 44.5427C141.391 44.2399 142.966 44.3953 144.397 44.9891C145.828 45.5829 147.051 46.5885 147.912 47.8787C148.773 49.1688 149.232 50.6857 149.232 52.2374C149.23 54.3174 148.404 56.3115 146.935 57.7823C145.467 59.2531 143.477 60.0805 141.4 60.0828ZM141.4 44.8785C139.947 44.8785 138.527 45.3101 137.319 46.1187C136.111 46.9273 135.169 48.0766 134.613 49.4213C134.057 50.7659 133.912 52.2455 134.195 53.673C134.479 55.1005 135.178 56.4117 136.206 57.4408C137.233 58.47 138.542 59.1709 139.967 59.4548C141.392 59.7387 142.869 59.593 144.211 59.036C145.554 58.4791 146.701 57.5359 147.508 56.3257C148.315 55.1156 148.746 53.6928 148.746 52.2374C148.744 50.2864 147.969 48.4159 146.592 47.0363C145.215 45.6567 143.348 44.8807 141.4 44.8785Z" fill="#3F3D56"/>
<path d="M157.757 170H12.0237C11.9592 170 11.8974 169.974 11.8519 169.929C11.8063 169.883 11.7808 169.821 11.7808 169.757C11.7808 169.692 11.8063 169.63 11.8519 169.585C11.8974 169.539 11.9592 169.513 12.0237 169.513H157.757C157.822 169.513 157.883 169.539 157.929 169.585C157.975 169.63 158 169.692 158 169.757C158 169.821 157.975 169.883 157.929 169.929C157.883 169.974 157.822 170 157.757 170Z" fill="#CACACA"/>
<path d="M147.603 160.104C146.837 160.374 146.014 160.441 145.214 160.3C144.414 160.159 143.664 159.814 143.036 159.298C141.436 157.953 140.934 155.736 140.526 153.684L139.319 147.615L141.846 149.358C143.664 150.612 145.522 151.906 146.781 153.722C148.039 155.537 148.588 158.016 147.577 159.981" fill="#FD6584"/>
<path d="M147.213 167.874C147.531 165.553 147.858 163.201 147.635 160.855C147.437 158.771 146.802 156.735 145.51 155.066C144.824 154.182 143.99 153.425 143.044 152.828C142.798 152.672 142.571 153.063 142.816 153.219C144.452 154.255 145.718 155.785 146.431 157.588C147.217 159.593 147.344 161.778 147.208 163.908C147.126 165.197 146.952 166.476 146.777 167.754C146.763 167.812 146.772 167.873 146.801 167.925C146.83 167.976 146.878 168.015 146.935 168.033C146.993 168.048 147.054 168.04 147.106 168.011C147.158 167.981 147.196 167.932 147.213 167.874L147.213 167.874Z" fill="#F2F2F2"/>
<path d="M144.923 164.149C144.595 164.65 144.143 165.057 143.612 165.332C143.08 165.606 142.487 165.739 141.889 165.718C140.354 165.645 139.073 164.571 137.921 163.552L134.512 160.536L136.768 160.428C138.39 160.35 140.055 160.278 141.601 160.779C143.148 161.28 144.572 162.487 144.855 164.088" fill="#E6E6E6"/>
<path d="M148.112 169.209C146.582 166.495 144.805 163.478 141.631 162.513C140.748 162.246 139.823 162.151 138.904 162.231C138.615 162.256 138.687 162.703 138.977 162.678C140.517 162.55 142.053 162.958 143.328 163.832C144.555 164.668 145.51 165.831 146.318 167.064C146.813 167.818 147.257 168.607 147.7 169.393C147.841 169.645 148.255 169.463 148.112 169.209Z" fill="#F2F2F2"/>
<path d="M27.4464 163.264C27.9982 163.495 28.6001 163.579 29.194 163.509C29.7879 163.439 30.3539 163.217 30.8373 162.865C32.0698 161.944 32.5318 160.337 32.9188 158.846L34.0619 154.437L32.1312 155.611C30.7426 156.456 29.3221 157.328 28.3199 158.61C27.3176 159.892 26.8105 161.688 27.4711 163.175" fill="#E6E6E6"/>
<path d="M27.627 169.245C27.3804 166.137 27.1699 162.64 29.2629 160.063C29.8454 159.347 30.5592 158.75 31.3658 158.302C31.6194 158.16 31.8093 158.572 31.5549 158.713C30.2072 159.47 29.1607 160.668 28.5917 162.107C28.0416 163.487 27.8989 164.986 27.9172 166.462C27.9277 167.364 28.0002 168.267 28.0715 169.167C28.0949 169.454 27.65 169.536 27.627 169.245Z" fill="#F2F2F2"/>
<path d="M23.0417 92.3069C29.0665 92.3069 33.9506 87.4143 33.9506 81.3789C33.9506 75.3436 29.0665 70.4509 23.0417 70.4509C17.0169 70.4509 12.1328 75.3436 12.1328 81.3789C12.1328 87.4143 17.0169 92.3069 23.0417 92.3069Z" fill="#E4E4E4"/>
<path d="M25.6004 88.0982C23.3948 88.0982 21.2387 87.443 19.4049 86.2155C17.571 84.9879 16.1416 83.2432 15.2976 81.2019C14.4536 79.1606 14.2327 76.9145 14.663 74.7475C15.0933 72.5805 16.1554 70.5899 17.715 69.0276C19.2747 67.4653 21.2617 66.4014 23.4249 65.9703C25.5882 65.5393 27.8304 65.7605 29.8681 66.6061C31.9058 67.4516 33.6475 68.8835 34.8728 70.7206C36.0982 72.5577 36.7522 74.7175 36.7522 76.927C36.7489 79.8888 35.5729 82.7283 33.4822 84.8226C31.3916 86.9168 28.557 88.0949 25.6004 88.0982ZM25.6004 66.2423C23.4909 66.2423 21.4288 66.869 19.6748 68.043C17.9208 69.2171 16.5537 70.8858 15.7464 72.8381C14.9391 74.7905 14.7279 76.9388 15.1395 79.0114C15.551 81.084 16.5668 82.9878 18.0585 84.4821C19.5502 85.9764 21.4506 86.994 23.5196 87.4062C25.5886 87.8185 27.7332 87.6069 29.6821 86.7982C31.6311 85.9896 33.2969 84.6201 34.4689 82.863C35.6409 81.106 36.2664 79.0402 36.2664 76.927C36.2633 74.0942 35.1385 71.3784 33.1389 69.3753C31.1393 67.3722 28.4282 66.2455 25.6004 66.2423Z" fill="#2F2E41"/>
<path d="M16.4558 43.3933C17.529 43.3933 18.3989 42.5218 18.3989 41.4468C18.3989 40.3717 17.529 39.5002 16.4558 39.5002C15.3827 39.5002 14.5127 40.3717 14.5127 41.4468C14.5127 42.5218 15.3827 43.3933 16.4558 43.3933Z" fill="#F2F2F2"/>
<path d="M116.283 33.6607C117.357 33.6607 118.227 32.7892 118.227 31.7142C118.227 30.6392 117.357 29.7677 116.283 29.7677C115.21 29.7677 114.34 30.6392 114.34 31.7142C114.34 32.7892 115.21 33.6607 116.283 33.6607Z" fill="#FD6584"/>
<path d="M129.156 102.762C130.23 102.762 131.1 101.89 131.1 100.815C131.1 99.7404 130.23 98.8689 129.156 98.8689C128.083 98.8689 127.213 99.7404 127.213 100.815C127.213 101.89 128.083 102.762 129.156 102.762Z" fill="#F2F2F2"/>
<path d="M42.136 49.0627L42.2097 48.5816L51.7001 50.0401C50.7329 49.1049 47.5301 46.2124 44.6254 45.9191C41.1553 45.5688 39.6285 47.0569 39.4268 49.0624C39.225 51.0679 40.4245 52.8313 43.8947 53.1818C46.8362 53.4788 50.6088 51.2248 51.6903 50.531L42.136 49.0627Z" fill="#F2F2F2"/>
<path d="M132.95 23.2919L132.657 22.9035L140.319 17.107C138.975 17.1491 134.672 17.4315 132.437 19.3124C129.766 21.5595 129.766 23.6934 131.06 25.2369C132.354 26.7804 134.452 27.1489 137.123 24.9019C139.387 22.9971 140.405 18.7167 140.663 17.4563L132.95 23.2919Z" fill="#F2F2F2"/>
<path d="M114.859 79.0929L114.648 78.8134L120.161 74.6432C119.194 74.6735 116.098 74.8766 114.49 76.2298C112.569 77.8465 112.568 79.3817 113.499 80.4922C114.431 81.6026 115.94 81.8678 117.861 80.2511C119.49 78.8808 120.223 75.8013 120.408 74.8945L114.859 79.0929Z" fill="#F2F2F2"/>
<path d="M71.2225 12.7137C72.716 8.69123 76.2445 5.21555 80.5087 4.80212C77.9451 8.69904 76.84 13.3787 77.3891 18.0133C77.6073 19.7999 78.0357 21.7642 77.0743 23.2848C76.4761 24.2309 75.4219 24.8134 74.3351 25.0763C73.2484 25.3391 72.116 25.3187 70.9982 25.2969L70.7479 25.4207C69.9618 21.2019 69.729 16.7361 71.2225 12.7137Z" fill="#F0F0F0"/>
<path d="M80.5292 4.88973C77.6222 6.92413 75.4291 9.82436 74.2612 13.1785C73.997 13.8961 73.8474 14.6509 73.8178 15.4152C73.813 16.1606 74.0076 16.8937 74.3813 17.5383C74.7177 18.1464 75.1321 18.7294 75.3151 19.4088C75.4036 19.7579 75.4174 20.1219 75.3556 20.4768C75.2939 20.8316 75.1579 21.1694 74.9567 21.468C74.4747 22.225 73.7498 22.7634 73.0227 23.2651C72.2154 23.8223 71.3681 24.3881 70.8741 25.2633C70.8143 25.3694 70.6535 25.2702 70.7133 25.1643C71.5727 23.6416 73.3763 23.0884 74.4797 21.795C74.9946 21.1915 75.331 20.4288 75.1718 19.6252C75.0326 18.9224 74.6058 18.3209 74.2599 17.7082C73.8861 17.0847 73.6704 16.379 73.6317 15.6527C73.6223 14.8894 73.7427 14.1301 73.9876 13.4072C74.5132 11.771 75.2923 10.2278 76.2963 8.83399C77.4335 7.23693 78.835 5.8465 80.4402 4.72287C80.5396 4.65336 80.6279 4.82067 80.5292 4.88973Z" fill="white"/>
<path d="M74.5741 12.0763C74.039 11.8036 73.618 11.3492 73.3864 10.7943C73.1547 10.2394 73.1276 9.6201 73.3097 9.04698C73.3469 8.93114 73.5284 8.98368 73.4911 9.09968C73.3205 9.63305 73.3459 10.2099 73.5626 10.7262C73.7793 11.2425 74.1732 11.6642 74.673 11.9151C74.7816 11.9698 74.6821 12.1306 74.5741 12.0763Z" fill="white"/>
<path d="M74.1705 17.2525C75.3409 16.8822 76.329 16.0836 76.9377 15.016C76.9979 14.9101 77.1587 15.0093 77.0985 15.115C76.463 16.2249 75.4331 17.0538 74.2143 17.4365C74.0982 17.4729 74.055 17.2887 74.1705 17.2525Z" fill="white"/>
<path d="M77.5632 7.4517C77.7483 7.60043 77.9674 7.70077 78.2008 7.74371C78.4342 7.78665 78.6746 7.77085 78.9003 7.69772C79.016 7.65987 79.0591 7.8441 78.9442 7.88171C78.6943 7.96134 78.4288 7.97847 78.1708 7.9316C77.9129 7.88473 77.6703 7.77528 77.4643 7.61283C77.4436 7.59915 77.4288 7.57808 77.4231 7.55392C77.4173 7.52975 77.421 7.5043 77.4333 7.48273C77.4465 7.46146 77.4675 7.44627 77.4918 7.44046C77.5162 7.43465 77.5418 7.43869 77.5632 7.4517Z" fill="white"/>
<path d="M90.7871 15.0554C90.7156 15.0811 90.644 15.1068 90.572 15.134C89.6117 15.4844 88.6815 15.9124 87.7904 16.4137C87.7209 16.4513 87.6511 16.4906 87.5828 16.5301C85.4488 17.7609 83.5616 19.3777 82.0169 21.2986C81.4029 22.0635 80.8479 22.8741 80.3567 23.7234C79.6784 24.8963 79.0361 26.2221 78.0399 27.0769C77.937 27.1673 77.8286 27.2511 77.7153 27.328L70.9182 25.7169C70.9046 25.7054 70.8906 25.6955 70.8769 25.6841L70.6025 25.6322C70.6248 25.5866 70.6489 25.5398 70.6712 25.4943C70.684 25.4678 70.6983 25.4416 70.7111 25.4151C70.7202 25.3976 70.7293 25.3801 70.7364 25.3637C70.7394 25.3579 70.7424 25.352 70.7451 25.3477C70.7522 25.3314 70.7606 25.3169 70.7673 25.3021C70.9013 25.0402 71.0372 24.7788 71.1753 24.5179C71.1756 24.5164 71.1757 24.5163 71.1775 24.5152C72.2105 22.5169 73.4764 20.6484 74.9488 18.9489C74.9934 18.8988 75.0383 18.8471 75.086 18.7977C75.7585 18.0503 76.4908 17.3592 77.2756 16.7314C77.7065 16.3889 78.1544 16.0686 78.6176 15.7715C79.8159 15.0063 81.1269 14.4346 82.5025 14.0775C85.245 13.366 88.184 13.541 90.6033 14.9462C90.6652 14.9822 90.7256 15.0178 90.7871 15.0554Z" fill="#F0F0F0"/>
<path d="M90.7513 15.1382C87.2076 15.0093 83.7134 16.0022 80.765 17.9759C80.1228 18.3895 79.5497 18.902 79.0667 19.4944C78.6149 20.0867 78.3296 20.7894 78.2406 21.5294C78.1437 22.2178 78.1242 22.9332 77.8619 23.586C77.7228 23.9182 77.5151 24.2171 77.2525 24.4632C76.9899 24.7094 76.6783 24.8971 76.3382 25.0141C75.4983 25.3278 74.596 25.3205 73.7139 25.2826C72.7345 25.2405 71.7178 25.1813 70.7974 25.5822C70.6859 25.6308 70.6172 25.4546 70.7285 25.4061C72.3299 24.7086 74.1024 25.3548 75.7608 24.9875C76.5346 24.8161 77.2616 24.4101 77.6175 23.6724C77.9287 23.0274 77.9495 22.2897 78.0415 21.5918C78.1178 20.8686 78.3698 20.175 78.7753 19.5718C79.2266 18.9567 79.7791 18.423 80.4091 17.9935C81.8121 17.0041 83.3617 16.2418 85.0011 15.7345C86.8689 15.1452 88.8236 14.8803 90.7806 14.9513C90.9017 14.9557 90.8717 15.1426 90.7513 15.1382Z" fill="white"/>
<path d="M81.677 17.2844C81.4136 16.7439 81.3506 16.1272 81.4991 15.5445C81.6477 14.9617 81.9982 14.4508 82.4881 14.1031C82.5875 14.0331 82.7008 14.1844 82.6013 14.2546C82.1445 14.5775 81.818 15.0535 81.6808 15.5964C81.5435 16.1394 81.6046 16.7136 81.8528 17.2154C81.9067 17.3245 81.7305 17.3929 81.677 17.2844Z" fill="white"/>
<path d="M78.2437 21.1739C79.4008 21.5841 80.6696 21.5424 81.7973 21.0571C81.909 21.0089 81.9778 21.1851 81.8662 21.2332C80.6918 21.7361 79.3712 21.7768 78.1681 21.3472C78.0535 21.3062 78.1297 21.1331 78.2437 21.1739Z" fill="white"/>
<path d="M86.8431 15.3946C86.9015 15.625 87.0161 15.8373 87.1767 16.0124C87.3372 16.1874 87.5386 16.3198 87.7629 16.3976C87.878 16.4371 87.8016 16.6102 87.6873 16.5709C87.4399 16.4838 87.2176 16.3373 87.0398 16.1443C86.862 15.9513 86.7341 15.7176 86.6673 15.4637C86.659 15.4402 86.6598 15.4145 86.6698 15.3918C86.6797 15.369 86.6979 15.3509 86.7207 15.3411C86.744 15.3321 86.77 15.3326 86.7929 15.3427C86.8158 15.3527 86.8338 15.3714 86.8431 15.3946Z" fill="white"/>
<path d="M50.577 68.1893C52.0705 64.1669 55.599 60.6912 59.8632 60.2778C57.2995 64.1747 56.1945 68.8544 56.7436 73.4889C56.9618 75.2755 57.3902 77.2398 56.4288 78.7604C55.8306 79.7066 54.7764 80.289 53.6896 80.5519C52.6029 80.8147 51.4705 80.7944 50.3527 80.7725L50.1024 80.8963C49.3163 76.6775 49.0835 72.2118 50.577 68.1893Z" fill="#F0F0F0"/>
<path d="M59.8837 60.3654C56.9767 62.3998 54.7836 65.3 53.6157 68.6541C53.3515 69.3717 53.2019 70.1265 53.1723 70.8908C53.1675 71.6362 53.3621 72.3694 53.7358 73.014C54.0722 73.622 54.4866 74.205 54.6695 74.8844C54.7581 75.2336 54.7719 75.5975 54.7101 75.9524C54.6484 76.3073 54.5124 76.6451 54.3112 76.9437C53.8292 77.7007 53.1043 78.239 52.3772 78.7408C51.5699 79.2979 50.7226 79.8638 50.2286 80.739C50.1688 80.845 50.008 80.7458 50.0678 80.6399C50.9272 79.1172 52.7308 78.5641 53.8342 77.2707C54.349 76.6671 54.6855 75.9045 54.5263 75.1008C54.3871 74.3981 53.9603 73.7965 53.6144 73.1838C53.2406 72.5603 53.0249 71.8546 52.9862 71.1284C52.9768 70.3651 53.0972 69.6057 53.3421 68.8829C53.8677 67.2467 54.6467 65.7034 55.6508 64.3096C56.788 62.7126 58.1895 61.3222 59.7947 60.1985C59.8941 60.129 59.9824 60.2963 59.8837 60.3654Z" fill="white"/>
<path d="M53.9286 67.5519C53.3934 67.2792 52.9725 66.8249 52.7408 66.27C52.5092 65.7151 52.4821 65.0957 52.6642 64.5226C52.7014 64.4068 52.8829 64.4593 52.8456 64.5753C52.675 65.1087 52.7004 65.6856 52.9171 66.2019C53.1338 66.7182 53.5277 67.1398 54.0275 67.3908C54.1361 67.4454 54.0365 67.6063 53.9286 67.5519Z" fill="white"/>
<path d="M53.525 72.7281C54.6954 72.3578 55.6834 71.5592 56.2922 70.4916C56.3524 70.3858 56.5132 70.485 56.453 70.5907C55.8175 71.7005 54.7876 72.5295 53.5688 72.9121C53.4526 72.9485 53.4095 72.7643 53.525 72.7281Z" fill="white"/>
<path d="M56.9176 62.9273C57.1028 63.0761 57.3219 63.1764 57.5553 63.2194C57.7886 63.2623 58.029 63.2465 58.2548 63.1734C58.3705 63.1355 58.4136 63.3198 58.2986 63.3574C58.0488 63.437 57.7833 63.4541 57.5253 63.4072C57.2673 63.3604 57.0248 63.2509 56.8187 63.0885C56.798 63.0748 56.7833 63.0537 56.7776 63.0296C56.7718 63.0054 56.7755 62.9799 56.7878 62.9584C56.801 62.9371 56.822 62.9219 56.8463 62.9161C56.8706 62.9103 56.8963 62.9143 56.9176 62.9273Z" fill="white"/>
<path d="M70.1416 70.531C70.07 70.5567 69.9985 70.5824 69.9265 70.6097C68.9662 70.9601 68.036 71.388 67.1449 71.8893C67.0754 71.927 67.0055 71.9662 66.9372 72.0058C64.8033 73.2365 62.916 74.8534 61.3713 76.7742C60.7574 77.5392 60.2024 78.3498 59.7112 79.199C59.0329 80.372 58.3906 81.6978 57.3944 82.5525C57.2915 82.6429 57.183 82.7268 57.0698 82.8037L50.2727 81.1925C50.2591 81.1811 50.245 81.1712 50.2313 81.1597L49.957 81.1078C49.9793 81.0623 50.0034 81.0155 50.0257 80.9699C50.0385 80.9434 50.0528 80.9173 50.0656 80.8908C50.0747 80.8732 50.0838 80.8557 50.0909 80.8393C50.0939 80.8335 50.0969 80.8277 50.0995 80.8234C50.1067 80.807 50.115 80.7926 50.1218 80.7778C50.2557 80.5159 50.3917 80.2545 50.5298 79.9935C50.5301 79.992 50.5301 79.992 50.532 79.9908C51.565 77.9925 52.8309 76.1241 54.3033 74.4246C54.3479 74.3744 54.3928 74.3228 54.4405 74.2734C55.113 73.526 55.8453 72.8349 56.6301 72.207C57.061 71.8646 57.5089 71.5442 57.9721 71.2472C59.1704 70.482 60.4814 69.9103 61.857 69.5532C64.5994 68.8417 67.5385 69.0167 69.9578 70.4219C70.0197 70.4578 70.0801 70.4935 70.1416 70.531Z" fill="#F0F0F0"/>
<path d="M70.1058 70.6138C66.5621 70.4849 63.0679 71.4778 60.1195 73.4516C59.4773 73.8652 58.9042 74.3776 58.4212 74.97C57.9694 75.5623 57.6841 76.265 57.595 77.0051C57.4982 77.6935 57.4787 78.4089 57.2164 79.0617C57.0773 79.3938 56.8696 79.6928 56.607 79.9389C56.3444 80.185 56.0328 80.3727 55.6927 80.4898C54.8528 80.8034 53.9505 80.7961 53.0684 80.7582C52.089 80.7162 51.0723 80.6569 50.1519 81.0578C50.0404 81.1064 49.9717 80.9302 50.083 80.8817C51.6844 80.1842 53.4569 80.8304 55.1153 80.4632C55.8891 80.2918 56.6161 79.8858 56.972 79.1481C57.2832 78.503 57.3039 77.7653 57.396 77.0675C57.4723 76.3442 57.7243 75.6507 58.1298 75.0474C58.5811 74.4323 59.1336 73.8986 59.7636 73.4692C61.1666 72.4797 62.7162 71.7174 64.3556 71.2102C66.2234 70.6208 68.1781 70.3559 70.1351 70.4269C70.2562 70.4314 70.2261 70.6182 70.1058 70.6138Z" fill="white"/>
<path d="M61.0315 72.76C60.7681 72.2196 60.7051 71.6029 60.8536 71.0201C61.0022 70.4374 61.3527 69.9265 61.8426 69.5787C61.942 69.5087 62.0553 69.6601 61.9558 69.7302C61.499 70.0532 61.1725 70.5291 61.0353 71.0721C60.898 71.615 60.9591 72.1892 61.2073 72.691C61.2611 72.8002 61.085 72.8685 61.0315 72.76Z" fill="white"/>
<path d="M57.5982 76.6496C58.7553 77.0598 60.0241 77.0181 61.1518 76.5327C61.2635 76.4846 61.3323 76.6607 61.2207 76.7089C60.0463 77.2117 58.7257 77.2524 57.5226 76.8229C57.408 76.7819 57.4842 76.6088 57.5982 76.6496Z" fill="white"/>
<path d="M66.1975 70.8703C66.256 71.1007 66.3706 71.313 66.5311 71.488C66.6917 71.6631 66.8931 71.7954 67.1174 71.8732C67.2325 71.9128 67.1561 72.0858 67.0418 72.0466C66.7944 71.9594 66.5721 71.813 66.3943 71.62C66.2165 71.427 66.0886 71.1933 66.0218 70.9393C66.0134 70.9159 66.0143 70.8902 66.0243 70.8674C66.0342 70.8447 66.0524 70.8265 66.0752 70.8167C66.0985 70.8077 66.1245 70.8083 66.1474 70.8183C66.1703 70.8283 66.1883 70.847 66.1975 70.8703Z" fill="white"/>
<path d="M135.186 98.3395C134.424 95.4853 135.022 92.1255 137.251 90.1908C137.362 93.4018 138.604 96.4699 140.756 98.8521C141.59 99.7679 142.612 100.699 142.677 101.937C142.681 102.717 142.386 103.468 141.852 104.036C141.322 104.596 140.722 105.085 140.067 105.492L139.976 105.662C137.856 103.608 135.948 101.194 135.186 98.3395Z" fill="#F0F0F0"/>
<path d="M137.297 90.2318C136.475 92.5344 136.398 95.038 137.077 97.3871C137.214 97.8954 137.43 98.3788 137.718 98.8196C138.012 99.24 138.413 99.5738 138.879 99.7864C139.328 99.9599 139.753 100.187 140.147 100.464C140.336 100.624 140.488 100.823 140.595 101.047C140.702 101.271 140.76 101.515 140.765 101.763C140.762 102.375 140.636 102.981 140.395 103.543C140.163 104.179 139.913 104.834 139.984 105.523C139.993 105.606 139.863 105.615 139.854 105.532C139.731 104.334 140.523 103.303 140.628 102.137C140.668 101.868 140.646 101.593 140.563 101.334C140.481 101.075 140.341 100.839 140.153 100.642C139.795 100.303 139.316 100.136 138.878 99.9303C138.42 99.7295 138.019 99.4195 137.708 99.0273C137.399 98.6026 137.164 98.1283 137.014 97.6247C136.658 96.4965 136.482 95.3191 136.491 94.1359C136.493 92.7853 136.727 91.4453 137.181 90.1736C137.209 90.0949 137.325 90.1536 137.297 90.2318Z" fill="white"/>
<path d="M136.814 96.6436C136.405 96.7042 135.988 96.6173 135.637 96.3983C135.286 96.1793 135.025 95.8425 134.899 95.4481C134.874 95.3682 134.996 95.3252 135.022 95.4052C135.138 95.7727 135.382 96.0864 135.709 96.2897C136.036 96.4929 136.425 96.5724 136.805 96.5137C136.888 96.501 136.896 96.631 136.814 96.6436Z" fill="white"/>
<path d="M138.647 99.7103C139.157 99.0351 139.393 98.1923 139.31 97.35C139.302 97.2665 139.432 97.258 139.44 97.3414C139.525 98.2181 139.277 99.0946 138.745 99.796C138.694 99.8629 138.596 99.7767 138.647 99.7103Z" fill="white"/>
<path d="M136.652 92.8543C136.815 92.8638 136.978 92.8327 137.126 92.7636C137.274 92.6945 137.402 92.5896 137.5 92.4584C137.55 92.391 137.647 92.4772 137.598 92.5442C137.489 92.6887 137.347 92.8043 137.184 92.881C137.02 92.9577 136.84 92.9931 136.66 92.9842C136.643 92.9848 136.626 92.9788 136.614 92.9676C136.601 92.9563 136.593 92.9406 136.591 92.9235C136.59 92.9063 136.596 92.8894 136.607 92.8764C136.618 92.8634 136.634 92.8555 136.652 92.8543Z" fill="white"/>
<path d="M147.1 91.8423C147.07 91.8853 147.04 91.9283 147.01 91.9724C146.611 92.5525 146.259 93.1641 145.958 93.8013C145.934 93.8502 145.91 93.9001 145.888 93.9496C145.18 95.4924 144.764 97.1536 144.661 98.8486C144.621 99.5231 144.632 100.2 144.694 100.873C144.78 101.802 144.947 102.802 144.728 103.68C144.706 103.772 144.678 103.862 144.645 103.951L140.189 105.76C140.177 105.759 140.165 105.759 140.153 105.758L139.978 105.839C139.972 105.804 139.967 105.768 139.962 105.734C139.958 105.714 139.956 105.693 139.953 105.673C139.951 105.66 139.949 105.647 139.946 105.634C139.946 105.63 139.945 105.626 139.945 105.622C139.942 105.61 139.941 105.599 139.939 105.588C139.91 105.387 139.883 105.186 139.856 104.984C139.856 104.983 139.856 104.983 139.856 104.982C139.641 103.448 139.608 101.894 139.759 100.352C139.764 100.306 139.768 100.259 139.775 100.212C139.856 99.5241 139.992 98.8438 140.182 98.178C140.288 97.8137 140.412 97.4551 140.554 97.1034C140.922 96.1954 141.43 95.351 142.06 94.6013C143.317 93.1069 145.036 92.0317 146.953 91.8545C147.002 91.8499 147.05 91.8458 147.1 91.8423Z" fill="#F0F0F0"/>
<path d="M147.113 91.903C145.072 93.2456 143.506 95.1981 142.636 97.4833C142.44 97.9719 142.322 98.4883 142.287 99.0137C142.269 99.5266 142.388 100.035 142.633 100.486C142.887 100.895 143.09 101.333 143.239 101.791C143.293 102.034 143.295 102.284 143.246 102.527C143.196 102.77 143.096 103 142.952 103.202C142.581 103.689 142.116 104.096 141.585 104.4C141.019 104.767 140.425 105.14 140.067 105.733C140.024 105.804 139.915 105.733 139.959 105.661C140.58 104.63 141.832 104.285 142.617 103.417C142.81 103.226 142.958 102.994 143.048 102.738C143.138 102.481 143.168 102.208 143.136 101.938C143.054 101.451 142.772 101.029 142.546 100.6C142.301 100.164 142.167 99.6741 142.154 99.1735C142.163 98.6481 142.261 98.1279 142.443 97.6353C142.837 96.5197 143.404 95.4731 144.122 94.5338C144.936 93.4572 145.928 92.528 147.055 91.7865C147.124 91.7406 147.182 91.8575 147.113 91.903Z" fill="white"/>
<path d="M142.873 96.731C142.51 96.5328 142.23 96.2118 142.081 95.8254C141.933 95.4389 141.926 95.0122 142.063 94.6214C142.091 94.5424 142.215 94.5822 142.187 94.6612C142.059 95.0249 142.065 95.4224 142.204 95.782C142.343 96.1415 142.605 96.4395 142.945 96.6221C143.018 96.6618 142.946 96.7705 142.873 96.731Z" fill="white"/>
<path d="M142.493 100.285C143.306 100.053 144.002 99.5233 144.442 98.8006C144.485 98.729 144.594 98.8004 144.55 98.8719C144.091 99.6231 143.366 100.173 142.52 100.413C142.439 100.435 142.413 100.308 142.493 100.285Z" fill="white"/>
<path d="M145.021 93.6076C145.145 93.7136 145.294 93.7869 145.454 93.8211C145.614 93.8553 145.779 93.8491 145.936 93.8033C146.016 93.7795 146.042 93.9071 145.963 93.9307C145.789 93.9806 145.606 93.9872 145.429 93.9498C145.253 93.9125 145.088 93.8324 144.949 93.7165C144.936 93.7067 144.926 93.6919 144.922 93.6751C144.919 93.6584 144.922 93.6409 144.931 93.6264C144.94 93.612 144.955 93.6019 144.972 93.5984C144.989 93.5949 145.006 93.5982 145.021 93.6076Z" fill="white"/>
</g>
<defs>
<clipPath id="clip0_235_272">
<rect width="158" height="170" fill="white"/>
</clipPath>
</defs>
</svg>
